%
M48
M72
T01C0.04000
T02C0.07874
%
T01
X20685Y20685
X21685Y30685
X20685Y40685
X21685Y50685
X20685Y60685
X21685Y70685
X59555Y60685
X60555Y50685
X59555Y40685
X60555Y30685
X59555Y20685
X79240Y30843
X80240Y40843
X79240Y50843
X80240Y60843
X119110Y60685
X120110Y70685
X120110Y50685
X119110Y40685
X120110Y30685
X119110Y20685
X80240Y20843
T02
X6906Y6906
X6906Y73835
X132890Y73835
X132890Y6906
M30
