G75*
%MOIN*%
%OFA0B0*%
%FSLAX25Y25*%
%IPPOS*%
%LPD*%
%AMOC8*
5,1,8,0,0,1.08239X$1,22.5*
%
%ADD10C,0.00800*%
D10*
X0018685Y0015685D02*
X0016185Y0018185D01*
X0016185Y0023185D01*
X0018685Y0025685D01*
X0023685Y0025685D01*
X0026185Y0023185D01*
X0026185Y0018185D01*
X0023685Y0015685D01*
X0018685Y0015685D01*
X0018685Y0025685D02*
X0016185Y0028185D01*
X0016185Y0033185D01*
X0018685Y0035685D01*
X0023685Y0035685D01*
X0026185Y0033185D01*
X0026185Y0028185D01*
X0023685Y0025685D01*
X0023685Y0035685D02*
X0026185Y0038185D01*
X0026185Y0043185D01*
X0023685Y0045685D01*
X0018685Y0045685D01*
X0016185Y0048185D01*
X0016185Y0053185D01*
X0018685Y0055685D01*
X0023685Y0055685D01*
X0026185Y0053185D01*
X0026185Y0048185D01*
X0023685Y0045685D01*
X0018685Y0045685D02*
X0016185Y0043185D01*
X0016185Y0038185D01*
X0018685Y0035685D01*
X0018685Y0055685D02*
X0016185Y0058185D01*
X0016185Y0063185D01*
X0018685Y0065685D01*
X0023685Y0065685D01*
X0026185Y0063185D01*
X0026185Y0058185D01*
X0023685Y0055685D01*
X0023685Y0065685D02*
X0026185Y0068185D01*
X0026185Y0073185D01*
X0023685Y0075685D01*
X0018685Y0075685D01*
X0016185Y0073185D01*
X0016185Y0068185D01*
X0018685Y0065685D01*
X0055055Y0063185D02*
X0055055Y0058185D01*
X0057555Y0055685D01*
X0055055Y0053185D01*
X0055055Y0048185D01*
X0057555Y0045685D01*
X0055055Y0043185D01*
X0055055Y0038185D01*
X0057555Y0035685D01*
X0055055Y0033185D01*
X0055055Y0028185D01*
X0057555Y0025685D01*
X0055055Y0023185D01*
X0055055Y0018185D01*
X0057555Y0015685D01*
X0062555Y0015685D01*
X0065055Y0018185D01*
X0065055Y0023185D01*
X0062555Y0025685D01*
X0065055Y0028185D01*
X0065055Y0033185D01*
X0062555Y0035685D01*
X0065055Y0038185D01*
X0065055Y0043185D01*
X0062555Y0045685D01*
X0065055Y0048185D01*
X0065055Y0053185D01*
X0062555Y0055685D01*
X0065055Y0058185D01*
X0065055Y0063185D01*
X0062555Y0065685D01*
X0057555Y0065685D01*
X0055055Y0063185D01*
X0074740Y0063343D02*
X0074740Y0058343D01*
X0077240Y0055843D01*
X0074740Y0053343D01*
X0074740Y0048343D01*
X0077240Y0045843D01*
X0074740Y0043343D01*
X0074740Y0038343D01*
X0077240Y0035843D01*
X0074740Y0033343D01*
X0074740Y0028343D01*
X0077240Y0025843D01*
X0074740Y0023343D01*
X0074740Y0018343D01*
X0077240Y0015843D01*
X0082240Y0015843D01*
X0084740Y0018343D01*
X0084740Y0023343D01*
X0082240Y0025843D01*
X0084740Y0028343D01*
X0084740Y0033343D01*
X0082240Y0035843D01*
X0084740Y0038343D01*
X0084740Y0043343D01*
X0082240Y0045843D01*
X0084740Y0048343D01*
X0084740Y0053343D01*
X0082240Y0055843D01*
X0084740Y0058343D01*
X0084740Y0063343D01*
X0082240Y0065843D01*
X0077240Y0065843D01*
X0074740Y0063343D01*
X0114610Y0063185D02*
X0114610Y0058185D01*
X0117110Y0055685D01*
X0122110Y0055685D01*
X0124610Y0053185D01*
X0124610Y0048185D01*
X0122110Y0045685D01*
X0117110Y0045685D01*
X0114610Y0048185D01*
X0114610Y0053185D01*
X0117110Y0055685D01*
X0122110Y0055685D02*
X0124610Y0058185D01*
X0124610Y0063185D01*
X0122110Y0065685D01*
X0117110Y0065685D01*
X0114610Y0068185D01*
X0114610Y0073185D01*
X0117110Y0075685D01*
X0122110Y0075685D01*
X0124610Y0073185D01*
X0124610Y0068185D01*
X0122110Y0065685D01*
X0117110Y0065685D02*
X0114610Y0063185D01*
X0117110Y0045685D02*
X0114610Y0043185D01*
X0114610Y0038185D01*
X0117110Y0035685D01*
X0122110Y0035685D01*
X0124610Y0033185D01*
X0124610Y0028185D01*
X0122110Y0025685D01*
X0117110Y0025685D01*
X0114610Y0028185D01*
X0114610Y0033185D01*
X0117110Y0035685D01*
X0122110Y0035685D02*
X0124610Y0038185D01*
X0124610Y0043185D01*
X0122110Y0045685D01*
X0122110Y0025685D02*
X0124610Y0023185D01*
X0124610Y0018185D01*
X0122110Y0015685D01*
X0117110Y0015685D01*
X0114610Y0018185D01*
X0114610Y0023185D01*
X0117110Y0025685D01*
M02*
