G75*
%MOIN*%
%OFA0B0*%
%FSLAX25Y25*%
%IPPOS*%
%LPD*%
%AMOC8*
5,1,8,0,0,1.08239X$1,22.5*
%
%ADD10C,0.00000*%
D10*
X0001000Y0001000D02*
X0001000Y0079740D01*
X0138795Y0079740D01*
X0138795Y0001000D01*
X0001000Y0001000D01*
X0002969Y0006906D02*
X0002971Y0007031D01*
X0002977Y0007156D01*
X0002987Y0007280D01*
X0003001Y0007404D01*
X0003018Y0007528D01*
X0003040Y0007651D01*
X0003066Y0007773D01*
X0003095Y0007895D01*
X0003128Y0008015D01*
X0003166Y0008134D01*
X0003206Y0008253D01*
X0003251Y0008369D01*
X0003299Y0008484D01*
X0003351Y0008598D01*
X0003407Y0008710D01*
X0003466Y0008820D01*
X0003528Y0008928D01*
X0003594Y0009035D01*
X0003663Y0009139D01*
X0003736Y0009240D01*
X0003811Y0009340D01*
X0003890Y0009437D01*
X0003972Y0009531D01*
X0004057Y0009623D01*
X0004144Y0009712D01*
X0004235Y0009798D01*
X0004328Y0009881D01*
X0004424Y0009962D01*
X0004522Y0010039D01*
X0004622Y0010113D01*
X0004725Y0010184D01*
X0004830Y0010251D01*
X0004938Y0010316D01*
X0005047Y0010376D01*
X0005158Y0010434D01*
X0005271Y0010487D01*
X0005385Y0010537D01*
X0005501Y0010584D01*
X0005618Y0010626D01*
X0005737Y0010665D01*
X0005857Y0010701D01*
X0005978Y0010732D01*
X0006100Y0010760D01*
X0006222Y0010783D01*
X0006346Y0010803D01*
X0006470Y0010819D01*
X0006594Y0010831D01*
X0006719Y0010839D01*
X0006844Y0010843D01*
X0006968Y0010843D01*
X0007093Y0010839D01*
X0007218Y0010831D01*
X0007342Y0010819D01*
X0007466Y0010803D01*
X0007590Y0010783D01*
X0007712Y0010760D01*
X0007834Y0010732D01*
X0007955Y0010701D01*
X0008075Y0010665D01*
X0008194Y0010626D01*
X0008311Y0010584D01*
X0008427Y0010537D01*
X0008541Y0010487D01*
X0008654Y0010434D01*
X0008765Y0010376D01*
X0008875Y0010316D01*
X0008982Y0010251D01*
X0009087Y0010184D01*
X0009190Y0010113D01*
X0009290Y0010039D01*
X0009388Y0009962D01*
X0009484Y0009881D01*
X0009577Y0009798D01*
X0009668Y0009712D01*
X0009755Y0009623D01*
X0009840Y0009531D01*
X0009922Y0009437D01*
X0010001Y0009340D01*
X0010076Y0009240D01*
X0010149Y0009139D01*
X0010218Y0009035D01*
X0010284Y0008928D01*
X0010346Y0008820D01*
X0010405Y0008710D01*
X0010461Y0008598D01*
X0010513Y0008484D01*
X0010561Y0008369D01*
X0010606Y0008253D01*
X0010646Y0008134D01*
X0010684Y0008015D01*
X0010717Y0007895D01*
X0010746Y0007773D01*
X0010772Y0007651D01*
X0010794Y0007528D01*
X0010811Y0007404D01*
X0010825Y0007280D01*
X0010835Y0007156D01*
X0010841Y0007031D01*
X0010843Y0006906D01*
X0010841Y0006781D01*
X0010835Y0006656D01*
X0010825Y0006532D01*
X0010811Y0006408D01*
X0010794Y0006284D01*
X0010772Y0006161D01*
X0010746Y0006039D01*
X0010717Y0005917D01*
X0010684Y0005797D01*
X0010646Y0005678D01*
X0010606Y0005559D01*
X0010561Y0005443D01*
X0010513Y0005328D01*
X0010461Y0005214D01*
X0010405Y0005102D01*
X0010346Y0004992D01*
X0010284Y0004884D01*
X0010218Y0004777D01*
X0010149Y0004673D01*
X0010076Y0004572D01*
X0010001Y0004472D01*
X0009922Y0004375D01*
X0009840Y0004281D01*
X0009755Y0004189D01*
X0009668Y0004100D01*
X0009577Y0004014D01*
X0009484Y0003931D01*
X0009388Y0003850D01*
X0009290Y0003773D01*
X0009190Y0003699D01*
X0009087Y0003628D01*
X0008982Y0003561D01*
X0008874Y0003496D01*
X0008765Y0003436D01*
X0008654Y0003378D01*
X0008541Y0003325D01*
X0008427Y0003275D01*
X0008311Y0003228D01*
X0008194Y0003186D01*
X0008075Y0003147D01*
X0007955Y0003111D01*
X0007834Y0003080D01*
X0007712Y0003052D01*
X0007590Y0003029D01*
X0007466Y0003009D01*
X0007342Y0002993D01*
X0007218Y0002981D01*
X0007093Y0002973D01*
X0006968Y0002969D01*
X0006844Y0002969D01*
X0006719Y0002973D01*
X0006594Y0002981D01*
X0006470Y0002993D01*
X0006346Y0003009D01*
X0006222Y0003029D01*
X0006100Y0003052D01*
X0005978Y0003080D01*
X0005857Y0003111D01*
X0005737Y0003147D01*
X0005618Y0003186D01*
X0005501Y0003228D01*
X0005385Y0003275D01*
X0005271Y0003325D01*
X0005158Y0003378D01*
X0005047Y0003436D01*
X0004937Y0003496D01*
X0004830Y0003561D01*
X0004725Y0003628D01*
X0004622Y0003699D01*
X0004522Y0003773D01*
X0004424Y0003850D01*
X0004328Y0003931D01*
X0004235Y0004014D01*
X0004144Y0004100D01*
X0004057Y0004189D01*
X0003972Y0004281D01*
X0003890Y0004375D01*
X0003811Y0004472D01*
X0003736Y0004572D01*
X0003663Y0004673D01*
X0003594Y0004777D01*
X0003528Y0004884D01*
X0003466Y0004992D01*
X0003407Y0005102D01*
X0003351Y0005214D01*
X0003299Y0005328D01*
X0003251Y0005443D01*
X0003206Y0005559D01*
X0003166Y0005678D01*
X0003128Y0005797D01*
X0003095Y0005917D01*
X0003066Y0006039D01*
X0003040Y0006161D01*
X0003018Y0006284D01*
X0003001Y0006408D01*
X0002987Y0006532D01*
X0002977Y0006656D01*
X0002971Y0006781D01*
X0002969Y0006906D01*
X0002969Y0073835D02*
X0002971Y0073960D01*
X0002977Y0074085D01*
X0002987Y0074209D01*
X0003001Y0074333D01*
X0003018Y0074457D01*
X0003040Y0074580D01*
X0003066Y0074702D01*
X0003095Y0074824D01*
X0003128Y0074944D01*
X0003166Y0075063D01*
X0003206Y0075182D01*
X0003251Y0075298D01*
X0003299Y0075413D01*
X0003351Y0075527D01*
X0003407Y0075639D01*
X0003466Y0075749D01*
X0003528Y0075857D01*
X0003594Y0075964D01*
X0003663Y0076068D01*
X0003736Y0076169D01*
X0003811Y0076269D01*
X0003890Y0076366D01*
X0003972Y0076460D01*
X0004057Y0076552D01*
X0004144Y0076641D01*
X0004235Y0076727D01*
X0004328Y0076810D01*
X0004424Y0076891D01*
X0004522Y0076968D01*
X0004622Y0077042D01*
X0004725Y0077113D01*
X0004830Y0077180D01*
X0004938Y0077245D01*
X0005047Y0077305D01*
X0005158Y0077363D01*
X0005271Y0077416D01*
X0005385Y0077466D01*
X0005501Y0077513D01*
X0005618Y0077555D01*
X0005737Y0077594D01*
X0005857Y0077630D01*
X0005978Y0077661D01*
X0006100Y0077689D01*
X0006222Y0077712D01*
X0006346Y0077732D01*
X0006470Y0077748D01*
X0006594Y0077760D01*
X0006719Y0077768D01*
X0006844Y0077772D01*
X0006968Y0077772D01*
X0007093Y0077768D01*
X0007218Y0077760D01*
X0007342Y0077748D01*
X0007466Y0077732D01*
X0007590Y0077712D01*
X0007712Y0077689D01*
X0007834Y0077661D01*
X0007955Y0077630D01*
X0008075Y0077594D01*
X0008194Y0077555D01*
X0008311Y0077513D01*
X0008427Y0077466D01*
X0008541Y0077416D01*
X0008654Y0077363D01*
X0008765Y0077305D01*
X0008875Y0077245D01*
X0008982Y0077180D01*
X0009087Y0077113D01*
X0009190Y0077042D01*
X0009290Y0076968D01*
X0009388Y0076891D01*
X0009484Y0076810D01*
X0009577Y0076727D01*
X0009668Y0076641D01*
X0009755Y0076552D01*
X0009840Y0076460D01*
X0009922Y0076366D01*
X0010001Y0076269D01*
X0010076Y0076169D01*
X0010149Y0076068D01*
X0010218Y0075964D01*
X0010284Y0075857D01*
X0010346Y0075749D01*
X0010405Y0075639D01*
X0010461Y0075527D01*
X0010513Y0075413D01*
X0010561Y0075298D01*
X0010606Y0075182D01*
X0010646Y0075063D01*
X0010684Y0074944D01*
X0010717Y0074824D01*
X0010746Y0074702D01*
X0010772Y0074580D01*
X0010794Y0074457D01*
X0010811Y0074333D01*
X0010825Y0074209D01*
X0010835Y0074085D01*
X0010841Y0073960D01*
X0010843Y0073835D01*
X0010841Y0073710D01*
X0010835Y0073585D01*
X0010825Y0073461D01*
X0010811Y0073337D01*
X0010794Y0073213D01*
X0010772Y0073090D01*
X0010746Y0072968D01*
X0010717Y0072846D01*
X0010684Y0072726D01*
X0010646Y0072607D01*
X0010606Y0072488D01*
X0010561Y0072372D01*
X0010513Y0072257D01*
X0010461Y0072143D01*
X0010405Y0072031D01*
X0010346Y0071921D01*
X0010284Y0071813D01*
X0010218Y0071706D01*
X0010149Y0071602D01*
X0010076Y0071501D01*
X0010001Y0071401D01*
X0009922Y0071304D01*
X0009840Y0071210D01*
X0009755Y0071118D01*
X0009668Y0071029D01*
X0009577Y0070943D01*
X0009484Y0070860D01*
X0009388Y0070779D01*
X0009290Y0070702D01*
X0009190Y0070628D01*
X0009087Y0070557D01*
X0008982Y0070490D01*
X0008874Y0070425D01*
X0008765Y0070365D01*
X0008654Y0070307D01*
X0008541Y0070254D01*
X0008427Y0070204D01*
X0008311Y0070157D01*
X0008194Y0070115D01*
X0008075Y0070076D01*
X0007955Y0070040D01*
X0007834Y0070009D01*
X0007712Y0069981D01*
X0007590Y0069958D01*
X0007466Y0069938D01*
X0007342Y0069922D01*
X0007218Y0069910D01*
X0007093Y0069902D01*
X0006968Y0069898D01*
X0006844Y0069898D01*
X0006719Y0069902D01*
X0006594Y0069910D01*
X0006470Y0069922D01*
X0006346Y0069938D01*
X0006222Y0069958D01*
X0006100Y0069981D01*
X0005978Y0070009D01*
X0005857Y0070040D01*
X0005737Y0070076D01*
X0005618Y0070115D01*
X0005501Y0070157D01*
X0005385Y0070204D01*
X0005271Y0070254D01*
X0005158Y0070307D01*
X0005047Y0070365D01*
X0004937Y0070425D01*
X0004830Y0070490D01*
X0004725Y0070557D01*
X0004622Y0070628D01*
X0004522Y0070702D01*
X0004424Y0070779D01*
X0004328Y0070860D01*
X0004235Y0070943D01*
X0004144Y0071029D01*
X0004057Y0071118D01*
X0003972Y0071210D01*
X0003890Y0071304D01*
X0003811Y0071401D01*
X0003736Y0071501D01*
X0003663Y0071602D01*
X0003594Y0071706D01*
X0003528Y0071813D01*
X0003466Y0071921D01*
X0003407Y0072031D01*
X0003351Y0072143D01*
X0003299Y0072257D01*
X0003251Y0072372D01*
X0003206Y0072488D01*
X0003166Y0072607D01*
X0003128Y0072726D01*
X0003095Y0072846D01*
X0003066Y0072968D01*
X0003040Y0073090D01*
X0003018Y0073213D01*
X0003001Y0073337D01*
X0002987Y0073461D01*
X0002977Y0073585D01*
X0002971Y0073710D01*
X0002969Y0073835D01*
X0128953Y0073835D02*
X0128955Y0073960D01*
X0128961Y0074085D01*
X0128971Y0074209D01*
X0128985Y0074333D01*
X0129002Y0074457D01*
X0129024Y0074580D01*
X0129050Y0074702D01*
X0129079Y0074824D01*
X0129112Y0074944D01*
X0129150Y0075063D01*
X0129190Y0075182D01*
X0129235Y0075298D01*
X0129283Y0075413D01*
X0129335Y0075527D01*
X0129391Y0075639D01*
X0129450Y0075749D01*
X0129512Y0075857D01*
X0129578Y0075964D01*
X0129647Y0076068D01*
X0129720Y0076169D01*
X0129795Y0076269D01*
X0129874Y0076366D01*
X0129956Y0076460D01*
X0130041Y0076552D01*
X0130128Y0076641D01*
X0130219Y0076727D01*
X0130312Y0076810D01*
X0130408Y0076891D01*
X0130506Y0076968D01*
X0130606Y0077042D01*
X0130709Y0077113D01*
X0130814Y0077180D01*
X0130922Y0077245D01*
X0131031Y0077305D01*
X0131142Y0077363D01*
X0131255Y0077416D01*
X0131369Y0077466D01*
X0131485Y0077513D01*
X0131602Y0077555D01*
X0131721Y0077594D01*
X0131841Y0077630D01*
X0131962Y0077661D01*
X0132084Y0077689D01*
X0132206Y0077712D01*
X0132330Y0077732D01*
X0132454Y0077748D01*
X0132578Y0077760D01*
X0132703Y0077768D01*
X0132828Y0077772D01*
X0132952Y0077772D01*
X0133077Y0077768D01*
X0133202Y0077760D01*
X0133326Y0077748D01*
X0133450Y0077732D01*
X0133574Y0077712D01*
X0133696Y0077689D01*
X0133818Y0077661D01*
X0133939Y0077630D01*
X0134059Y0077594D01*
X0134178Y0077555D01*
X0134295Y0077513D01*
X0134411Y0077466D01*
X0134525Y0077416D01*
X0134638Y0077363D01*
X0134749Y0077305D01*
X0134859Y0077245D01*
X0134966Y0077180D01*
X0135071Y0077113D01*
X0135174Y0077042D01*
X0135274Y0076968D01*
X0135372Y0076891D01*
X0135468Y0076810D01*
X0135561Y0076727D01*
X0135652Y0076641D01*
X0135739Y0076552D01*
X0135824Y0076460D01*
X0135906Y0076366D01*
X0135985Y0076269D01*
X0136060Y0076169D01*
X0136133Y0076068D01*
X0136202Y0075964D01*
X0136268Y0075857D01*
X0136330Y0075749D01*
X0136389Y0075639D01*
X0136445Y0075527D01*
X0136497Y0075413D01*
X0136545Y0075298D01*
X0136590Y0075182D01*
X0136630Y0075063D01*
X0136668Y0074944D01*
X0136701Y0074824D01*
X0136730Y0074702D01*
X0136756Y0074580D01*
X0136778Y0074457D01*
X0136795Y0074333D01*
X0136809Y0074209D01*
X0136819Y0074085D01*
X0136825Y0073960D01*
X0136827Y0073835D01*
X0136825Y0073710D01*
X0136819Y0073585D01*
X0136809Y0073461D01*
X0136795Y0073337D01*
X0136778Y0073213D01*
X0136756Y0073090D01*
X0136730Y0072968D01*
X0136701Y0072846D01*
X0136668Y0072726D01*
X0136630Y0072607D01*
X0136590Y0072488D01*
X0136545Y0072372D01*
X0136497Y0072257D01*
X0136445Y0072143D01*
X0136389Y0072031D01*
X0136330Y0071921D01*
X0136268Y0071813D01*
X0136202Y0071706D01*
X0136133Y0071602D01*
X0136060Y0071501D01*
X0135985Y0071401D01*
X0135906Y0071304D01*
X0135824Y0071210D01*
X0135739Y0071118D01*
X0135652Y0071029D01*
X0135561Y0070943D01*
X0135468Y0070860D01*
X0135372Y0070779D01*
X0135274Y0070702D01*
X0135174Y0070628D01*
X0135071Y0070557D01*
X0134966Y0070490D01*
X0134858Y0070425D01*
X0134749Y0070365D01*
X0134638Y0070307D01*
X0134525Y0070254D01*
X0134411Y0070204D01*
X0134295Y0070157D01*
X0134178Y0070115D01*
X0134059Y0070076D01*
X0133939Y0070040D01*
X0133818Y0070009D01*
X0133696Y0069981D01*
X0133574Y0069958D01*
X0133450Y0069938D01*
X0133326Y0069922D01*
X0133202Y0069910D01*
X0133077Y0069902D01*
X0132952Y0069898D01*
X0132828Y0069898D01*
X0132703Y0069902D01*
X0132578Y0069910D01*
X0132454Y0069922D01*
X0132330Y0069938D01*
X0132206Y0069958D01*
X0132084Y0069981D01*
X0131962Y0070009D01*
X0131841Y0070040D01*
X0131721Y0070076D01*
X0131602Y0070115D01*
X0131485Y0070157D01*
X0131369Y0070204D01*
X0131255Y0070254D01*
X0131142Y0070307D01*
X0131031Y0070365D01*
X0130921Y0070425D01*
X0130814Y0070490D01*
X0130709Y0070557D01*
X0130606Y0070628D01*
X0130506Y0070702D01*
X0130408Y0070779D01*
X0130312Y0070860D01*
X0130219Y0070943D01*
X0130128Y0071029D01*
X0130041Y0071118D01*
X0129956Y0071210D01*
X0129874Y0071304D01*
X0129795Y0071401D01*
X0129720Y0071501D01*
X0129647Y0071602D01*
X0129578Y0071706D01*
X0129512Y0071813D01*
X0129450Y0071921D01*
X0129391Y0072031D01*
X0129335Y0072143D01*
X0129283Y0072257D01*
X0129235Y0072372D01*
X0129190Y0072488D01*
X0129150Y0072607D01*
X0129112Y0072726D01*
X0129079Y0072846D01*
X0129050Y0072968D01*
X0129024Y0073090D01*
X0129002Y0073213D01*
X0128985Y0073337D01*
X0128971Y0073461D01*
X0128961Y0073585D01*
X0128955Y0073710D01*
X0128953Y0073835D01*
X0128953Y0006906D02*
X0128955Y0007031D01*
X0128961Y0007156D01*
X0128971Y0007280D01*
X0128985Y0007404D01*
X0129002Y0007528D01*
X0129024Y0007651D01*
X0129050Y0007773D01*
X0129079Y0007895D01*
X0129112Y0008015D01*
X0129150Y0008134D01*
X0129190Y0008253D01*
X0129235Y0008369D01*
X0129283Y0008484D01*
X0129335Y0008598D01*
X0129391Y0008710D01*
X0129450Y0008820D01*
X0129512Y0008928D01*
X0129578Y0009035D01*
X0129647Y0009139D01*
X0129720Y0009240D01*
X0129795Y0009340D01*
X0129874Y0009437D01*
X0129956Y0009531D01*
X0130041Y0009623D01*
X0130128Y0009712D01*
X0130219Y0009798D01*
X0130312Y0009881D01*
X0130408Y0009962D01*
X0130506Y0010039D01*
X0130606Y0010113D01*
X0130709Y0010184D01*
X0130814Y0010251D01*
X0130922Y0010316D01*
X0131031Y0010376D01*
X0131142Y0010434D01*
X0131255Y0010487D01*
X0131369Y0010537D01*
X0131485Y0010584D01*
X0131602Y0010626D01*
X0131721Y0010665D01*
X0131841Y0010701D01*
X0131962Y0010732D01*
X0132084Y0010760D01*
X0132206Y0010783D01*
X0132330Y0010803D01*
X0132454Y0010819D01*
X0132578Y0010831D01*
X0132703Y0010839D01*
X0132828Y0010843D01*
X0132952Y0010843D01*
X0133077Y0010839D01*
X0133202Y0010831D01*
X0133326Y0010819D01*
X0133450Y0010803D01*
X0133574Y0010783D01*
X0133696Y0010760D01*
X0133818Y0010732D01*
X0133939Y0010701D01*
X0134059Y0010665D01*
X0134178Y0010626D01*
X0134295Y0010584D01*
X0134411Y0010537D01*
X0134525Y0010487D01*
X0134638Y0010434D01*
X0134749Y0010376D01*
X0134859Y0010316D01*
X0134966Y0010251D01*
X0135071Y0010184D01*
X0135174Y0010113D01*
X0135274Y0010039D01*
X0135372Y0009962D01*
X0135468Y0009881D01*
X0135561Y0009798D01*
X0135652Y0009712D01*
X0135739Y0009623D01*
X0135824Y0009531D01*
X0135906Y0009437D01*
X0135985Y0009340D01*
X0136060Y0009240D01*
X0136133Y0009139D01*
X0136202Y0009035D01*
X0136268Y0008928D01*
X0136330Y0008820D01*
X0136389Y0008710D01*
X0136445Y0008598D01*
X0136497Y0008484D01*
X0136545Y0008369D01*
X0136590Y0008253D01*
X0136630Y0008134D01*
X0136668Y0008015D01*
X0136701Y0007895D01*
X0136730Y0007773D01*
X0136756Y0007651D01*
X0136778Y0007528D01*
X0136795Y0007404D01*
X0136809Y0007280D01*
X0136819Y0007156D01*
X0136825Y0007031D01*
X0136827Y0006906D01*
X0136825Y0006781D01*
X0136819Y0006656D01*
X0136809Y0006532D01*
X0136795Y0006408D01*
X0136778Y0006284D01*
X0136756Y0006161D01*
X0136730Y0006039D01*
X0136701Y0005917D01*
X0136668Y0005797D01*
X0136630Y0005678D01*
X0136590Y0005559D01*
X0136545Y0005443D01*
X0136497Y0005328D01*
X0136445Y0005214D01*
X0136389Y0005102D01*
X0136330Y0004992D01*
X0136268Y0004884D01*
X0136202Y0004777D01*
X0136133Y0004673D01*
X0136060Y0004572D01*
X0135985Y0004472D01*
X0135906Y0004375D01*
X0135824Y0004281D01*
X0135739Y0004189D01*
X0135652Y0004100D01*
X0135561Y0004014D01*
X0135468Y0003931D01*
X0135372Y0003850D01*
X0135274Y0003773D01*
X0135174Y0003699D01*
X0135071Y0003628D01*
X0134966Y0003561D01*
X0134858Y0003496D01*
X0134749Y0003436D01*
X0134638Y0003378D01*
X0134525Y0003325D01*
X0134411Y0003275D01*
X0134295Y0003228D01*
X0134178Y0003186D01*
X0134059Y0003147D01*
X0133939Y0003111D01*
X0133818Y0003080D01*
X0133696Y0003052D01*
X0133574Y0003029D01*
X0133450Y0003009D01*
X0133326Y0002993D01*
X0133202Y0002981D01*
X0133077Y0002973D01*
X0132952Y0002969D01*
X0132828Y0002969D01*
X0132703Y0002973D01*
X0132578Y0002981D01*
X0132454Y0002993D01*
X0132330Y0003009D01*
X0132206Y0003029D01*
X0132084Y0003052D01*
X0131962Y0003080D01*
X0131841Y0003111D01*
X0131721Y0003147D01*
X0131602Y0003186D01*
X0131485Y0003228D01*
X0131369Y0003275D01*
X0131255Y0003325D01*
X0131142Y0003378D01*
X0131031Y0003436D01*
X0130921Y0003496D01*
X0130814Y0003561D01*
X0130709Y0003628D01*
X0130606Y0003699D01*
X0130506Y0003773D01*
X0130408Y0003850D01*
X0130312Y0003931D01*
X0130219Y0004014D01*
X0130128Y0004100D01*
X0130041Y0004189D01*
X0129956Y0004281D01*
X0129874Y0004375D01*
X0129795Y0004472D01*
X0129720Y0004572D01*
X0129647Y0004673D01*
X0129578Y0004777D01*
X0129512Y0004884D01*
X0129450Y0004992D01*
X0129391Y0005102D01*
X0129335Y0005214D01*
X0129283Y0005328D01*
X0129235Y0005443D01*
X0129190Y0005559D01*
X0129150Y0005678D01*
X0129112Y0005797D01*
X0129079Y0005917D01*
X0129050Y0006039D01*
X0129024Y0006161D01*
X0129002Y0006284D01*
X0128985Y0006408D01*
X0128971Y0006532D01*
X0128961Y0006656D01*
X0128955Y0006781D01*
X0128953Y0006906D01*
M02*
