G75*
%MOIN*%
%OFA0B0*%
%FSLAX24Y24*%
%IPPOS*%
%LPD*%
%AMOC8*
5,1,8,0,0,1.08239X$1,22.5*
%
%ADD10R,0.0413X0.0413*%
%ADD11OC8,0.0600*%
%ADD12C,0.0760*%
%ADD13C,0.0160*%
D10*
X031600Y013600D03*
X032100Y013600D03*
X032100Y014100D03*
X031600Y014100D03*
X032600Y014100D03*
X032600Y013600D03*
X033100Y013600D03*
X033100Y014100D03*
X033600Y014100D03*
X034100Y014100D03*
X034100Y013600D03*
X033600Y013600D03*
X034600Y013600D03*
X034600Y014100D03*
X035100Y014100D03*
X035100Y013600D03*
X035600Y013600D03*
X035600Y014100D03*
X036100Y014100D03*
X036100Y013600D03*
D11*
X025100Y013600D03*
X025100Y014600D03*
X026100Y014600D03*
X026100Y013600D03*
X026100Y015600D03*
X025100Y015600D03*
X029600Y018600D03*
X029600Y019600D03*
X030600Y019600D03*
X030600Y018600D03*
X031600Y018600D03*
X032600Y018600D03*
X032600Y019600D03*
X031600Y019600D03*
X033600Y019600D03*
X034600Y019600D03*
X034600Y018600D03*
X033600Y018600D03*
X035600Y018600D03*
X036600Y018600D03*
X036600Y019600D03*
X035600Y019600D03*
X037600Y019600D03*
X037600Y018600D03*
X038600Y018600D03*
X038600Y019600D03*
X042100Y015600D03*
X043100Y015600D03*
X043100Y014600D03*
X043100Y013600D03*
X042100Y013600D03*
X042100Y014600D03*
D12*
X040454Y014076D03*
X040454Y012698D03*
X040651Y015454D03*
X041045Y016635D03*
X040257Y017620D03*
X038797Y017600D03*
X038191Y016706D03*
X036768Y017559D03*
X035888Y016423D03*
X034758Y017215D03*
X033384Y016509D03*
X032369Y017295D03*
X031081Y016869D03*
X029719Y017280D03*
X028577Y018227D03*
X026872Y016635D03*
X027659Y015061D03*
X028053Y014076D03*
X027069Y013486D03*
X027856Y012895D03*
D13*
X028840Y011911D01*
X032383Y011911D01*
X033100Y012628D01*
X033100Y013600D01*
X032600Y013600D02*
X032600Y013112D01*
X031990Y012502D01*
X029628Y012502D01*
X028053Y014076D01*
X027069Y013486D02*
X026872Y013289D01*
X026872Y012502D01*
X028053Y011320D01*
X032580Y011320D01*
X033600Y012340D01*
X033600Y013600D01*
X034100Y013600D02*
X034100Y012163D01*
X034549Y011714D01*
X039470Y011714D01*
X040454Y012698D01*
X042100Y013600D02*
X043100Y013600D01*
X043100Y014600D01*
X042100Y014600D01*
X043100Y014600D02*
X043100Y015600D01*
X042100Y015600D01*
X042100Y018100D01*
X041100Y019100D01*
X039600Y019100D01*
X039100Y019600D01*
X038600Y019600D01*
X039600Y019100D02*
X039600Y017100D01*
X039600Y016765D01*
X039470Y016635D01*
X036935Y014100D01*
X036100Y014100D01*
X035600Y014100D02*
X035600Y014600D01*
X035600Y014734D01*
X037502Y016635D01*
X037502Y017620D01*
X037502Y017817D01*
X037305Y018013D01*
X037100Y018218D01*
X037100Y019100D01*
X037600Y019600D01*
X036600Y019600D01*
X036600Y020100D01*
X036100Y020600D01*
X034549Y020600D01*
X034549Y019651D01*
X034600Y019600D01*
X034100Y019100D01*
X034100Y014100D01*
X033600Y014100D02*
X033600Y015025D01*
X033565Y015061D01*
X032580Y016045D01*
X032580Y016635D01*
X033100Y017155D01*
X033100Y019100D01*
X033600Y019600D01*
X033600Y018600D02*
X033600Y016725D01*
X033384Y016509D01*
X032600Y017525D02*
X032369Y017295D01*
X032600Y017525D02*
X032600Y018600D01*
X032100Y019100D02*
X032100Y017927D01*
X031793Y017620D01*
X031727Y017554D01*
X031727Y016614D01*
X031990Y016352D01*
X031990Y016045D01*
X033100Y014935D01*
X033100Y014100D01*
X032600Y014100D02*
X032600Y014864D01*
X031616Y015848D01*
X030612Y015848D01*
X030415Y016045D01*
X030415Y017423D01*
X031100Y018108D01*
X031100Y019100D01*
X031600Y019600D01*
X030600Y019600D01*
X029600Y019600D01*
X028419Y019600D01*
X027919Y019100D01*
X026600Y019100D01*
X026100Y018600D01*
X026100Y015600D01*
X026100Y014600D01*
X026100Y013600D01*
X025100Y013600D01*
X025100Y014600D02*
X026100Y014600D01*
X027659Y015061D02*
X027736Y015138D01*
X028123Y015138D01*
X030168Y013092D01*
X031793Y013092D01*
X032100Y013399D01*
X032100Y013600D01*
X031600Y013600D02*
X030301Y013600D01*
X028053Y015848D01*
X027659Y015848D01*
X027069Y016439D01*
X026872Y016635D01*
X027919Y016600D02*
X030419Y014100D01*
X031600Y014100D01*
X032100Y014100D02*
X032100Y014600D01*
X031246Y015454D01*
X030218Y015454D01*
X028840Y016832D01*
X028840Y017423D01*
X029431Y018013D01*
X029824Y018013D01*
X030100Y018289D01*
X030100Y019100D01*
X030600Y019600D01*
X030600Y018600D02*
X030612Y018600D01*
X030612Y018173D01*
X029719Y017280D01*
X031081Y017499D02*
X031081Y016869D01*
X031081Y017499D02*
X031202Y017620D01*
X031600Y018017D01*
X031600Y018600D01*
X032100Y019100D02*
X032600Y019600D01*
X031600Y019600D02*
X031600Y020100D01*
X032100Y020600D01*
X034549Y020600D01*
X035600Y019600D02*
X035100Y019100D01*
X035100Y017856D01*
X035336Y017620D01*
X035336Y016832D01*
X035139Y016635D01*
X035139Y015848D01*
X034746Y015454D01*
X034600Y015309D01*
X034600Y014100D01*
X034600Y013600D02*
X034600Y012647D01*
X035139Y012108D01*
X038486Y012108D01*
X040454Y014076D01*
X040651Y015454D02*
X037698Y012502D01*
X035533Y012502D01*
X035100Y012935D01*
X035100Y013600D01*
X035100Y014100D02*
X035100Y015100D01*
X035454Y015454D01*
X035730Y015454D01*
X036517Y016242D01*
X036517Y016832D01*
X036320Y017029D01*
X036100Y017250D01*
X036100Y019100D01*
X036600Y019600D01*
X036600Y018600D02*
X036600Y017727D01*
X036768Y017559D01*
X037600Y018309D02*
X037895Y018013D01*
X037895Y017002D01*
X038191Y016706D01*
X038797Y017600D02*
X038600Y017797D01*
X038600Y018600D01*
X037600Y018600D02*
X037600Y018309D01*
X035730Y018470D02*
X035730Y017029D01*
X035888Y016871D01*
X035888Y016423D01*
X034758Y017215D02*
X034600Y017374D01*
X034600Y018600D01*
X035600Y018600D02*
X035730Y018470D01*
X040257Y017620D02*
X040257Y016832D01*
X037025Y013600D01*
X036100Y013600D01*
X035600Y013600D02*
X035600Y013222D01*
X035730Y013092D01*
X037502Y013092D01*
X041045Y016635D01*
X029600Y018600D02*
X028951Y018600D01*
X028577Y018227D01*
X027919Y019100D02*
X027919Y016600D01*
X026100Y015600D02*
X025100Y015600D01*
M02*
