%
M48
M72
T01C0.0276
T02C0.0315
T03C0.0400
%
T01
X31600Y13600
X32100Y13600
X32100Y14100
X31600Y14100
X32600Y14100
X32600Y13600
X33100Y13600
X33100Y14100
X33600Y14100
X34100Y14100
X34100Y13600
X33600Y13600
X34600Y13600
X34600Y14100
X35100Y14100
X35100Y13600
X35600Y13600
X35600Y14100
X36100Y14100
X36100Y13600
T02
X35888Y16423
X34758Y17215
X33384Y16509
X32369Y17295
X31081Y16869
X29719Y17280
X28577Y18227
X26872Y16635
X27659Y15061
X28053Y14076
X27069Y13486
X27856Y12895
X36768Y17559
X38191Y16706
X38797Y17600
X40257Y17620
X41045Y16635
X40651Y15454
X40454Y14076
X40454Y12698
T03
X25100Y13600
X25100Y14600
X26100Y14600
X26100Y13600
X26100Y15600
X25100Y15600
X29600Y18600
X29600Y19600
X30600Y19600
X30600Y18600
X31600Y18600
X32600Y18600
X32600Y19600
X31600Y19600
X33600Y19600
X34600Y19600
X34600Y18600
X33600Y18600
X35600Y18600
X36600Y18600
X36600Y19600
X35600Y19600
X37600Y19600
X37600Y18600
X38600Y18600
X38600Y19600
X42100Y15600
X43100Y15600
X43100Y14600
X43100Y13600
X42100Y13600
X42100Y14600
M30
