%
M48
M72
T01C0.01400
T02C0.02362
T03C0.03200
T04C0.04000
%
T01
X75866Y30146
X88858Y17154
X93583Y17154
X99094Y17154
X104213Y49438
X109331Y54162
X109331Y59674
X113268Y59674
X118780Y59674
X112087Y65973
X101850Y62430
X99094Y59674
X93976Y59674
X88465Y62824
X82165Y59674
X75866Y61249
X81772Y51013
X93976Y54162
X99094Y54162
X128622Y59674
X148701Y59674
X189252Y59674
X54606Y59674
X54606Y54162
T02
X18780Y51013
X18780Y62824
T03
X18465Y41170
X58465Y41170
X150354Y41170
X150354Y31328
X150354Y21485
X150354Y11643
X190354Y11643
X190354Y21485
X190354Y31328
X190354Y41170
T04
X189134Y84320
X179134Y84320
X179134Y94320
X189134Y94320
X189134Y104320
X179134Y104320
X148425Y103257
X138425Y103257
X128425Y103257
X118425Y103257
X108425Y103257
X98425Y103257
X88425Y103257
X78425Y103257
X68425Y103257
X58425Y103257
X58425Y93257
X68425Y93257
X78425Y93257
X88425Y93257
X98425Y93257
X108425Y93257
X118425Y93257
X128425Y93257
X138425Y93257
X148425Y93257
X27717Y94320
X17717Y94320
X17717Y84320
X27717Y84320
X27717Y104320
X17717Y104320
M30
