G75*
%MOIN*%
%OFA0B0*%
%FSLAX25Y25*%
%IPPOS*%
%LPD*%
%AMOC8*
5,1,8,0,0,1.08239X$1,22.5*
%
%ADD10R,0.04921X0.04921*%
%ADD11OC8,0.06787*%
%ADD12OC8,0.05587*%
D10*
X0081457Y0031328D03*
X0086457Y0031328D03*
X0091457Y0031328D03*
X0096457Y0031328D03*
X0101457Y0031328D03*
X0106457Y0031328D03*
X0111457Y0031328D03*
X0116457Y0031328D03*
X0121457Y0031328D03*
X0126457Y0031328D03*
X0126457Y0036328D03*
X0121457Y0036328D03*
X0116457Y0036328D03*
X0111457Y0036328D03*
X0106457Y0036328D03*
X0101457Y0036328D03*
X0096457Y0036328D03*
X0091457Y0036328D03*
X0086457Y0036328D03*
X0081457Y0036328D03*
D11*
X0027717Y0084320D03*
X0017717Y0084320D03*
X0017717Y0094320D03*
X0027717Y0094320D03*
X0027717Y0104320D03*
X0017717Y0104320D03*
X0058425Y0103257D03*
X0068425Y0103257D03*
X0078425Y0103257D03*
X0088425Y0103257D03*
X0098425Y0103257D03*
X0108425Y0103257D03*
X0118425Y0103257D03*
X0128425Y0103257D03*
X0138425Y0103257D03*
X0148425Y0103257D03*
X0148425Y0093257D03*
X0138425Y0093257D03*
X0128425Y0093257D03*
X0118425Y0093257D03*
X0108425Y0093257D03*
X0098425Y0093257D03*
X0088425Y0093257D03*
X0078425Y0093257D03*
X0068425Y0093257D03*
X0058425Y0093257D03*
X0179134Y0094320D03*
X0189134Y0094320D03*
X0189134Y0084320D03*
X0179134Y0084320D03*
X0179134Y0104320D03*
X0189134Y0104320D03*
D12*
X0018465Y0041170D03*
X0058465Y0041170D03*
X0150354Y0041170D03*
X0150354Y0031328D03*
X0150354Y0021485D03*
X0150354Y0011643D03*
X0190354Y0011643D03*
X0190354Y0021485D03*
X0190354Y0031328D03*
X0190354Y0041170D03*
M02*
