%
M48
M72
T01C0.01400
T02C0.02362
T03C0.02756
T04C0.03200
T05C0.04000
%
T01
X73031Y59637
X78631Y59637
X75831Y65237
X81431Y65937
X97531Y59637
X101731Y59637
X105931Y59637
X129731Y59637
X133931Y59637
X136731Y62437
X139531Y59637
X143731Y59637
X148631Y59637
X189231Y59637
T02
X18780Y62824
X18780Y51013
T03
X81457Y36328
X86457Y36328
X91457Y36328
X96457Y36328
X101457Y36328
X106457Y36328
X111457Y36328
X116457Y36328
X121457Y36328
X126457Y36328
X126457Y31328
X121457Y31328
X116457Y31328
X111457Y31328
X106457Y31328
X101457Y31328
X96457Y31328
X91457Y31328
X86457Y31328
X81457Y31328
T04
X18465Y41170
X58465Y41170
X150354Y41170
X150354Y31328
X150354Y21485
X150354Y11643
X190354Y11643
X190354Y21485
X190354Y31328
X190354Y41170
T05
X189134Y84320
X179134Y84320
X179134Y94320
X189134Y94320
X189134Y104320
X179134Y104320
X148425Y103257
X138425Y103257
X128425Y103257
X118425Y103257
X108425Y103257
X98425Y103257
X88425Y103257
X78425Y103257
X68425Y103257
X58425Y103257
X58425Y93257
X68425Y93257
X78425Y93257
X88425Y93257
X98425Y93257
X108425Y93257
X118425Y93257
X128425Y93257
X138425Y93257
X148425Y93257
X27717Y94320
X17717Y94320
X17717Y84320
X27717Y84320
X27717Y104320
X17717Y104320
M30
