%
M48
M72
T01C0.01969
T02C0.02756
T03C0.03200
T04C0.04000
%
T01
X18780Y49044
X16811Y62824
X55000Y60461
X58543Y64005
X69567Y63611
X73110Y60461
X77835Y60461
X77835Y53375
X96732Y60461
X101457Y60461
X108543Y60461
X118780Y60461
X122717Y63217
X128622Y60461
X138071Y60461
X148701Y60461
X189252Y60461
T02
X126457Y36328
X121457Y36328
X116457Y36328
X111457Y36328
X106457Y36328
X101457Y36328
X96457Y36328
X91457Y36328
X86457Y36328
X81457Y36328
X81457Y31328
X86457Y31328
X91457Y31328
X96457Y31328
X101457Y31328
X106457Y31328
X111457Y31328
X116457Y31328
X121457Y31328
X126457Y31328
T03
X18465Y41170
X58465Y41170
X150354Y41170
X150354Y31328
X150354Y21485
X150354Y11643
X190354Y11643
X190354Y21485
X190354Y31328
X190354Y41170
T04
X189134Y84320
X179134Y84320
X179134Y94320
X189134Y94320
X189134Y104320
X179134Y104320
X148425Y103257
X138425Y103257
X128425Y103257
X118425Y103257
X108425Y103257
X98425Y103257
X88425Y103257
X78425Y103257
X68425Y103257
X58425Y103257
X58425Y93257
X68425Y93257
X78425Y93257
X88425Y93257
X98425Y93257
X108425Y93257
X118425Y93257
X128425Y93257
X138425Y93257
X148425Y93257
X27717Y94320
X17717Y94320
X17717Y84320
X27717Y84320
X27717Y104320
X17717Y104320
M30
