%
M48
M72
T01C0.0236
T02C0.0276
T03C0.0315
T04C0.0390
T05C0.0400
T06C0.0492
T07C0.0512
T08C0.1200
T09C0.1220
T10C0.1250
T11C0.1417
%
T01
X10180Y12239
X10180Y16806
X25731Y24255
T02
X34601Y17523
X35101Y17523
X35101Y17023
X35101Y16523
X34601Y16523
X34601Y17023
X34601Y16023
X35101Y16023
X35101Y15523
X34601Y15523
X34601Y15023
X35101Y15023
X35101Y14523
X35101Y14023
X34601Y14023
X34601Y14523
X34601Y13523
X35101Y13523
X35101Y13023
X34601Y13023
T03
X7621Y21991
X8211Y22936
X8211Y23881
X7916Y24845
X9432Y23645
X9589Y22621
X9019Y21026
X8093Y20849
X8211Y19944
X9294Y18034
X8960Y17188
X11361Y18467
X12503Y18271
X13290Y17739
X11597Y10219
X12326Y10948
X13389Y11263
X13546Y12208
X13689Y13134
X11932Y11912
X8271Y10908
X7798Y8763
X8211Y7857
X7621Y7070
X9314Y6066
X12247Y6164
X14137Y6341
X15259Y7227
X16243Y6519
X17227Y6834
X18211Y6834
X19235Y6834
X20259Y6834
X21164Y6794
X22149Y6834
X23211Y6834
X24196Y6873
X25180Y6952
X26400Y6991
X27404Y6460
X30416Y9511
X32916Y11499
X33841Y13192
X30554Y13841
X28782Y18408
X29412Y19373
X30967Y18802
X32503Y26086
X27286Y24353
X24156Y24334
X21952Y23979
X20082Y24334
X18960Y23979
X17975Y24708
X17109Y24117
X16201Y23917
X14038Y24944
X12101Y23966
X10987Y25239
X13979Y21814
X12897Y21735
X11696Y21420
X15751Y21105
X7601Y17956
X5200Y15357
X5160Y14393
X5574Y13211
X4471Y13133
X3467Y12365
X2463Y12897
X5495Y11597
X13684Y14826
X1125Y18448
X4570Y4727
X34786Y3566
T04
X31589Y25432
X33361Y25432
T05
X10625Y22897
X11625Y22897
X12625Y22897
X13625Y22897
X14625Y22897
X15625Y22897
X16625Y22897
X17625Y22897
X18625Y22897
X19625Y22897
X20625Y22897
X21625Y22897
X3684Y16101
X3684Y15101
X3684Y14101
X3684Y11377
X3684Y10377
X3684Y9377
X3684Y7834
X3684Y6834
X3684Y5834
X10751Y5259
X11751Y5259
X12751Y5259
X13751Y5259
X14751Y5259
X15751Y5259
X16751Y5259
X17751Y5259
X18751Y5259
X19751Y5259
X20751Y5259
X21751Y5259
X22751Y5259
X23751Y5259
X24751Y5259
X25751Y5259
T06
X37267Y22611
X37267Y19796
T07
X31097Y24452
X33853Y24452
T08
X9101Y19168
X9101Y9877
T09
X33956Y9208
X35137Y7357
T10
X2109Y25180
X2109Y2109
X36400Y25180
X36400Y2109
T11
X32774Y7357
M30
