G75*
%MOIN*%
%OFA0B0*%
%FSLAX24Y24*%
%IPPOS*%
%LPD*%
%AMOC8*
5,1,8,0,0,1.08239X$1,22.5*
%
%ADD10C,0.0160*%
%ADD11C,0.0100*%
%ADD12C,0.0000*%
%ADD13R,0.0709X0.0315*%
%ADD14R,0.1024X0.0118*%
D10*
X000180Y000180D02*
X000180Y027109D01*
X038330Y027109D01*
X038330Y000180D01*
X000180Y000180D01*
D11*
X011164Y008408D02*
X011164Y009235D01*
X014235Y011086D01*
X014235Y017700D01*
X011164Y019904D01*
X011164Y020613D01*
X027700Y020613D01*
X027700Y008408D01*
X011164Y008408D01*
X011164Y008419D02*
X027700Y008419D01*
X027700Y008517D02*
X011164Y008517D01*
X011164Y008616D02*
X027700Y008616D01*
X027700Y008714D02*
X011164Y008714D01*
X011164Y008813D02*
X027700Y008813D01*
X027700Y008911D02*
X011164Y008911D01*
X011164Y009010D02*
X027700Y009010D01*
X027700Y009108D02*
X011164Y009108D01*
X011164Y009207D02*
X027700Y009207D01*
X027700Y009305D02*
X011280Y009305D01*
X011444Y009404D02*
X027700Y009404D01*
X027700Y009502D02*
X011607Y009502D01*
X011771Y009601D02*
X027700Y009601D01*
X027700Y009699D02*
X011934Y009699D01*
X012098Y009798D02*
X027700Y009798D01*
X027700Y009896D02*
X012261Y009896D01*
X012425Y009995D02*
X027700Y009995D01*
X027700Y010093D02*
X012588Y010093D01*
X012752Y010192D02*
X027700Y010192D01*
X027700Y010290D02*
X012915Y010290D01*
X013078Y010389D02*
X027700Y010389D01*
X027700Y010487D02*
X013242Y010487D01*
X013405Y010586D02*
X027700Y010586D01*
X027700Y010684D02*
X013569Y010684D01*
X013732Y010783D02*
X027700Y010783D01*
X027700Y010881D02*
X013896Y010881D01*
X014059Y010980D02*
X027700Y010980D01*
X027700Y011078D02*
X014223Y011078D01*
X014235Y011177D02*
X027700Y011177D01*
X027700Y011275D02*
X014235Y011275D01*
X014235Y011374D02*
X027700Y011374D01*
X027700Y011472D02*
X014235Y011472D01*
X014235Y011571D02*
X027700Y011571D01*
X027700Y011669D02*
X014235Y011669D01*
X014235Y011768D02*
X027700Y011768D01*
X027700Y011866D02*
X014235Y011866D01*
X014235Y011965D02*
X027700Y011965D01*
X027700Y012063D02*
X014235Y012063D01*
X014235Y012162D02*
X027700Y012162D01*
X027700Y012260D02*
X014235Y012260D01*
X014235Y012359D02*
X027700Y012359D01*
X027700Y012457D02*
X014235Y012457D01*
X014235Y012556D02*
X027700Y012556D01*
X027700Y012654D02*
X014235Y012654D01*
X014235Y012753D02*
X027700Y012753D01*
X027700Y012851D02*
X014235Y012851D01*
X014235Y012950D02*
X027700Y012950D01*
X027700Y013048D02*
X014235Y013048D01*
X014235Y013147D02*
X027700Y013147D01*
X027700Y013245D02*
X014235Y013245D01*
X014235Y013344D02*
X027700Y013344D01*
X027700Y013442D02*
X014235Y013442D01*
X014235Y013541D02*
X027700Y013541D01*
X027700Y013639D02*
X014235Y013639D01*
X014235Y013738D02*
X027700Y013738D01*
X027700Y013836D02*
X014235Y013836D01*
X014235Y013935D02*
X027700Y013935D01*
X027700Y014033D02*
X014235Y014033D01*
X014235Y014132D02*
X027700Y014132D01*
X027700Y014230D02*
X014235Y014230D01*
X014235Y014329D02*
X027700Y014329D01*
X027700Y014427D02*
X014235Y014427D01*
X014235Y014526D02*
X027700Y014526D01*
X027700Y014624D02*
X014235Y014624D01*
X014235Y014723D02*
X027700Y014723D01*
X027700Y014821D02*
X014235Y014821D01*
X014235Y014920D02*
X027700Y014920D01*
X027700Y015018D02*
X014235Y015018D01*
X014235Y015117D02*
X027700Y015117D01*
X027700Y015215D02*
X014235Y015215D01*
X014235Y015314D02*
X027700Y015314D01*
X027700Y015412D02*
X014235Y015412D01*
X014235Y015511D02*
X027700Y015511D01*
X027700Y015609D02*
X014235Y015609D01*
X014235Y015708D02*
X027700Y015708D01*
X027700Y015806D02*
X014235Y015806D01*
X014235Y015905D02*
X027700Y015905D01*
X027700Y016003D02*
X014235Y016003D01*
X014235Y016102D02*
X027700Y016102D01*
X027700Y016200D02*
X014235Y016200D01*
X014235Y016299D02*
X027700Y016299D01*
X027700Y016397D02*
X014235Y016397D01*
X014235Y016496D02*
X027700Y016496D01*
X027700Y016594D02*
X014235Y016594D01*
X014235Y016693D02*
X027700Y016693D01*
X027700Y016791D02*
X014235Y016791D01*
X014235Y016890D02*
X027700Y016890D01*
X027700Y016988D02*
X014235Y016988D01*
X014235Y017087D02*
X027700Y017087D01*
X027700Y017185D02*
X014235Y017185D01*
X014235Y017284D02*
X027700Y017284D01*
X027700Y017382D02*
X014235Y017382D01*
X014235Y017481D02*
X027700Y017481D01*
X027700Y017579D02*
X014235Y017579D01*
X014235Y017678D02*
X027700Y017678D01*
X027700Y017776D02*
X014129Y017776D01*
X013992Y017875D02*
X027700Y017875D01*
X027700Y017973D02*
X013854Y017973D01*
X013717Y018072D02*
X027700Y018072D01*
X027700Y018170D02*
X013580Y018170D01*
X013443Y018269D02*
X027700Y018269D01*
X027700Y018367D02*
X013306Y018367D01*
X013168Y018466D02*
X027700Y018466D01*
X027700Y018564D02*
X013031Y018564D01*
X012894Y018663D02*
X027700Y018663D01*
X027700Y018761D02*
X012757Y018761D01*
X012620Y018860D02*
X027700Y018860D01*
X027700Y018958D02*
X012482Y018958D01*
X012345Y019057D02*
X027700Y019057D01*
X027700Y019155D02*
X012208Y019155D01*
X012071Y019254D02*
X027700Y019254D01*
X027700Y019352D02*
X011934Y019352D01*
X011796Y019451D02*
X027700Y019451D01*
X027700Y019549D02*
X011659Y019549D01*
X011522Y019648D02*
X027700Y019648D01*
X027700Y019746D02*
X011385Y019746D01*
X011248Y019845D02*
X027700Y019845D01*
X027700Y019943D02*
X011164Y019943D01*
X011164Y020042D02*
X027700Y020042D01*
X027700Y020140D02*
X011164Y020140D01*
X011164Y020239D02*
X027700Y020239D01*
X027700Y020337D02*
X011164Y020337D01*
X011164Y020436D02*
X027700Y020436D01*
X027700Y020534D02*
X011164Y020534D01*
D12*
X008501Y019168D02*
X008503Y019217D01*
X008509Y019265D01*
X008519Y019313D01*
X008533Y019360D01*
X008550Y019406D01*
X008571Y019450D01*
X008596Y019492D01*
X008624Y019532D01*
X008656Y019570D01*
X008690Y019605D01*
X008727Y019637D01*
X008766Y019666D01*
X008808Y019692D01*
X008852Y019714D01*
X008897Y019732D01*
X008944Y019747D01*
X008991Y019758D01*
X009040Y019765D01*
X009089Y019768D01*
X009138Y019767D01*
X009186Y019762D01*
X009235Y019753D01*
X009282Y019740D01*
X009328Y019723D01*
X009372Y019703D01*
X009415Y019679D01*
X009456Y019652D01*
X009494Y019621D01*
X009530Y019588D01*
X009562Y019552D01*
X009592Y019513D01*
X009619Y019472D01*
X009642Y019428D01*
X009661Y019383D01*
X009677Y019337D01*
X009689Y019290D01*
X009697Y019241D01*
X009701Y019192D01*
X009701Y019144D01*
X009697Y019095D01*
X009689Y019046D01*
X009677Y018999D01*
X009661Y018953D01*
X009642Y018908D01*
X009619Y018864D01*
X009592Y018823D01*
X009562Y018784D01*
X009530Y018748D01*
X009494Y018715D01*
X009456Y018684D01*
X009415Y018657D01*
X009372Y018633D01*
X009328Y018613D01*
X009282Y018596D01*
X009235Y018583D01*
X009186Y018574D01*
X009138Y018569D01*
X009089Y018568D01*
X009040Y018571D01*
X008991Y018578D01*
X008944Y018589D01*
X008897Y018604D01*
X008852Y018622D01*
X008808Y018644D01*
X008766Y018670D01*
X008727Y018699D01*
X008690Y018731D01*
X008656Y018766D01*
X008624Y018804D01*
X008596Y018844D01*
X008571Y018886D01*
X008550Y018930D01*
X008533Y018976D01*
X008519Y019023D01*
X008509Y019071D01*
X008503Y019119D01*
X008501Y019168D01*
X010062Y016806D02*
X010064Y016827D01*
X010070Y016847D01*
X010079Y016867D01*
X010091Y016884D01*
X010106Y016898D01*
X010124Y016910D01*
X010144Y016918D01*
X010164Y016923D01*
X010185Y016924D01*
X010206Y016921D01*
X010226Y016915D01*
X010245Y016904D01*
X010262Y016891D01*
X010275Y016875D01*
X010286Y016857D01*
X010294Y016837D01*
X010298Y016817D01*
X010298Y016795D01*
X010294Y016775D01*
X010286Y016755D01*
X010275Y016737D01*
X010262Y016721D01*
X010245Y016708D01*
X010226Y016697D01*
X010206Y016691D01*
X010185Y016688D01*
X010164Y016689D01*
X010144Y016694D01*
X010124Y016702D01*
X010106Y016714D01*
X010091Y016728D01*
X010079Y016745D01*
X010070Y016765D01*
X010064Y016785D01*
X010062Y016806D01*
X010062Y012239D02*
X010064Y012260D01*
X010070Y012280D01*
X010079Y012300D01*
X010091Y012317D01*
X010106Y012331D01*
X010124Y012343D01*
X010144Y012351D01*
X010164Y012356D01*
X010185Y012357D01*
X010206Y012354D01*
X010226Y012348D01*
X010245Y012337D01*
X010262Y012324D01*
X010275Y012308D01*
X010286Y012290D01*
X010294Y012270D01*
X010298Y012250D01*
X010298Y012228D01*
X010294Y012208D01*
X010286Y012188D01*
X010275Y012170D01*
X010262Y012154D01*
X010245Y012141D01*
X010226Y012130D01*
X010206Y012124D01*
X010185Y012121D01*
X010164Y012122D01*
X010144Y012127D01*
X010124Y012135D01*
X010106Y012147D01*
X010091Y012161D01*
X010079Y012178D01*
X010070Y012198D01*
X010064Y012218D01*
X010062Y012239D01*
X008501Y009877D02*
X008503Y009926D01*
X008509Y009974D01*
X008519Y010022D01*
X008533Y010069D01*
X008550Y010115D01*
X008571Y010159D01*
X008596Y010201D01*
X008624Y010241D01*
X008656Y010279D01*
X008690Y010314D01*
X008727Y010346D01*
X008766Y010375D01*
X008808Y010401D01*
X008852Y010423D01*
X008897Y010441D01*
X008944Y010456D01*
X008991Y010467D01*
X009040Y010474D01*
X009089Y010477D01*
X009138Y010476D01*
X009186Y010471D01*
X009235Y010462D01*
X009282Y010449D01*
X009328Y010432D01*
X009372Y010412D01*
X009415Y010388D01*
X009456Y010361D01*
X009494Y010330D01*
X009530Y010297D01*
X009562Y010261D01*
X009592Y010222D01*
X009619Y010181D01*
X009642Y010137D01*
X009661Y010092D01*
X009677Y010046D01*
X009689Y009999D01*
X009697Y009950D01*
X009701Y009901D01*
X009701Y009853D01*
X009697Y009804D01*
X009689Y009755D01*
X009677Y009708D01*
X009661Y009662D01*
X009642Y009617D01*
X009619Y009573D01*
X009592Y009532D01*
X009562Y009493D01*
X009530Y009457D01*
X009494Y009424D01*
X009456Y009393D01*
X009415Y009366D01*
X009372Y009342D01*
X009328Y009322D01*
X009282Y009305D01*
X009235Y009292D01*
X009186Y009283D01*
X009138Y009278D01*
X009089Y009277D01*
X009040Y009280D01*
X008991Y009287D01*
X008944Y009298D01*
X008897Y009313D01*
X008852Y009331D01*
X008808Y009353D01*
X008766Y009379D01*
X008727Y009408D01*
X008690Y009440D01*
X008656Y009475D01*
X008624Y009513D01*
X008596Y009553D01*
X008571Y009595D01*
X008550Y009639D01*
X008533Y009685D01*
X008519Y009732D01*
X008509Y009780D01*
X008503Y009828D01*
X008501Y009877D01*
X030841Y024452D02*
X030843Y024483D01*
X030849Y024514D01*
X030858Y024544D01*
X030871Y024573D01*
X030888Y024600D01*
X030908Y024624D01*
X030930Y024646D01*
X030956Y024665D01*
X030983Y024681D01*
X031012Y024693D01*
X031042Y024702D01*
X031073Y024707D01*
X031105Y024708D01*
X031136Y024705D01*
X031167Y024698D01*
X031197Y024688D01*
X031225Y024674D01*
X031251Y024656D01*
X031275Y024636D01*
X031296Y024612D01*
X031315Y024587D01*
X031330Y024559D01*
X031341Y024530D01*
X031349Y024499D01*
X031353Y024468D01*
X031353Y024436D01*
X031349Y024405D01*
X031341Y024374D01*
X031330Y024345D01*
X031315Y024317D01*
X031296Y024292D01*
X031275Y024268D01*
X031251Y024248D01*
X031225Y024230D01*
X031197Y024216D01*
X031167Y024206D01*
X031136Y024199D01*
X031105Y024196D01*
X031073Y024197D01*
X031042Y024202D01*
X031012Y024211D01*
X030983Y024223D01*
X030956Y024239D01*
X030930Y024258D01*
X030908Y024280D01*
X030888Y024304D01*
X030871Y024331D01*
X030858Y024360D01*
X030849Y024390D01*
X030843Y024421D01*
X030841Y024452D01*
X033597Y024452D02*
X033599Y024483D01*
X033605Y024514D01*
X033614Y024544D01*
X033627Y024573D01*
X033644Y024600D01*
X033664Y024624D01*
X033686Y024646D01*
X033712Y024665D01*
X033739Y024681D01*
X033768Y024693D01*
X033798Y024702D01*
X033829Y024707D01*
X033861Y024708D01*
X033892Y024705D01*
X033923Y024698D01*
X033953Y024688D01*
X033981Y024674D01*
X034007Y024656D01*
X034031Y024636D01*
X034052Y024612D01*
X034071Y024587D01*
X034086Y024559D01*
X034097Y024530D01*
X034105Y024499D01*
X034109Y024468D01*
X034109Y024436D01*
X034105Y024405D01*
X034097Y024374D01*
X034086Y024345D01*
X034071Y024317D01*
X034052Y024292D01*
X034031Y024268D01*
X034007Y024248D01*
X033981Y024230D01*
X033953Y024216D01*
X033923Y024206D01*
X033892Y024199D01*
X033861Y024196D01*
X033829Y024197D01*
X033798Y024202D01*
X033768Y024211D01*
X033739Y024223D01*
X033712Y024239D01*
X033686Y024258D01*
X033664Y024280D01*
X033644Y024304D01*
X033627Y024331D01*
X033614Y024360D01*
X033605Y024390D01*
X033599Y024421D01*
X033597Y024452D01*
D13*
X010771Y017082D03*
X010771Y011963D03*
D14*
X011676Y012652D03*
X011676Y012849D03*
X011676Y013046D03*
X011676Y013243D03*
X011676Y013440D03*
X011676Y013637D03*
X011676Y013834D03*
X011676Y014030D03*
X011676Y014227D03*
X011676Y014424D03*
X011676Y014621D03*
X011676Y014818D03*
X011676Y015015D03*
X011676Y015211D03*
X011676Y015408D03*
X011676Y015605D03*
X011676Y015802D03*
X011676Y015999D03*
X011676Y016196D03*
X011676Y016393D03*
X009865Y016393D03*
X009865Y016196D03*
X009865Y015999D03*
X009865Y015802D03*
X009865Y015605D03*
X009865Y015408D03*
X009865Y015211D03*
X009865Y015015D03*
X009865Y014818D03*
X009865Y014621D03*
X009865Y014424D03*
X009865Y014227D03*
X009865Y014030D03*
X009865Y013834D03*
X009865Y013637D03*
X009865Y013440D03*
X009865Y013243D03*
X009865Y013046D03*
X009865Y012849D03*
X009865Y012652D03*
M02*
