G75*
%MOIN*%
%OFA0B0*%
%FSLAX24Y24*%
%IPPOS*%
%LPD*%
%AMOC8*
5,1,8,0,0,1.08239X$1,22.5*
%
%ADD10C,0.0160*%
%ADD11C,0.0100*%
%ADD12C,0.0080*%
%ADD13C,0.0060*%
%ADD14R,0.0133X0.0007*%
%ADD15R,0.0182X0.0007*%
%ADD16R,0.0182X0.0007*%
%ADD17R,0.0231X0.0007*%
%ADD18R,0.0266X0.0007*%
%ADD19R,0.0294X0.0007*%
%ADD20R,0.0294X0.0007*%
%ADD21R,0.0329X0.0007*%
%ADD22R,0.0343X0.0007*%
%ADD23R,0.0371X0.0007*%
%ADD24R,0.0385X0.0007*%
%ADD25R,0.0392X0.0007*%
%ADD26R,0.0406X0.0007*%
%ADD27R,0.0427X0.0007*%
%ADD28R,0.0427X0.0007*%
%ADD29R,0.0441X0.0007*%
%ADD30R,0.0455X0.0007*%
%ADD31R,0.0469X0.0007*%
%ADD32R,0.0483X0.0007*%
%ADD33R,0.0497X0.0007*%
%ADD34R,0.0490X0.0007*%
%ADD35R,0.0511X0.0007*%
%ADD36R,0.0525X0.0007*%
%ADD37R,0.0518X0.0007*%
%ADD38R,0.0525X0.0007*%
%ADD39R,0.0532X0.0007*%
%ADD40R,0.0539X0.0007*%
%ADD41R,0.0553X0.0007*%
%ADD42R,0.0560X0.0007*%
%ADD43R,0.0567X0.0007*%
%ADD44R,0.0567X0.0007*%
%ADD45R,0.0574X0.0007*%
%ADD46R,0.0574X0.0007*%
%ADD47R,0.0581X0.0007*%
%ADD48R,0.0588X0.0007*%
%ADD49R,0.0595X0.0007*%
%ADD50R,0.0609X0.0007*%
%ADD51R,0.0609X0.0007*%
%ADD52R,0.0616X0.0007*%
%ADD53R,0.0623X0.0007*%
%ADD54R,0.0616X0.0007*%
%ADD55R,0.0623X0.0007*%
%ADD56R,0.0630X0.0007*%
%ADD57R,0.0637X0.0007*%
%ADD58R,0.0637X0.0007*%
%ADD59R,0.0644X0.0007*%
%ADD60R,0.0644X0.0007*%
%ADD61R,0.0651X0.0007*%
%ADD62R,0.0644X0.0007*%
%ADD63R,0.0651X0.0007*%
%ADD64R,0.0658X0.0007*%
%ADD65R,0.0658X0.0007*%
%ADD66R,0.0644X0.0007*%
%ADD67R,0.0567X0.0007*%
%ADD68R,0.0567X0.0007*%
%ADD69R,0.0546X0.0007*%
%ADD70R,0.0336X0.0007*%
%ADD71R,0.0322X0.0007*%
%ADD72R,0.0322X0.0007*%
%ADD73R,0.0301X0.0007*%
%ADD74R,0.0259X0.0007*%
%ADD75R,0.0224X0.0007*%
%ADD76R,0.0175X0.0007*%
%ADD77R,0.0112X0.0007*%
%ADD78R,0.0112X0.0007*%
%ADD79R,0.7560X0.0007*%
%ADD80R,0.7553X0.0007*%
%ADD81R,0.7553X0.0007*%
%ADD82R,0.7546X0.0007*%
%ADD83R,0.7539X0.0007*%
%ADD84R,0.7532X0.0007*%
%ADD85R,0.7525X0.0007*%
%ADD86R,0.7518X0.0007*%
%ADD87R,0.7511X0.0007*%
%ADD88R,0.7511X0.0007*%
%ADD89R,0.7497X0.0007*%
%ADD90R,0.7497X0.0007*%
%ADD91R,0.7490X0.0007*%
%ADD92R,0.7483X0.0007*%
%ADD93R,0.7476X0.0007*%
%ADD94R,0.7469X0.0007*%
%ADD95R,0.7462X0.0007*%
%ADD96R,0.7455X0.0007*%
%ADD97R,0.7455X0.0007*%
%ADD98R,0.7448X0.0007*%
%ADD99R,0.7441X0.0007*%
%ADD100R,0.7434X0.0007*%
%ADD101R,0.7434X0.0007*%
%ADD102R,0.7427X0.0007*%
%ADD103R,0.7420X0.0007*%
%ADD104R,0.7420X0.0007*%
%ADD105R,0.7406X0.0007*%
%ADD106R,0.7406X0.0007*%
%ADD107R,0.7399X0.0007*%
%ADD108R,0.7392X0.0007*%
%ADD109R,0.7385X0.0007*%
%ADD110R,0.7378X0.0007*%
%ADD111R,0.7378X0.0007*%
%ADD112R,0.7371X0.0007*%
%ADD113R,0.7364X0.0007*%
%ADD114R,0.0266X0.0007*%
%ADD115R,0.0126X0.0007*%
%ADD116R,0.0098X0.0007*%
%ADD117R,0.0217X0.0007*%
%ADD118R,0.0210X0.0007*%
%ADD119R,0.0217X0.0007*%
%ADD120R,0.0203X0.0007*%
%ADD121R,0.0294X0.0007*%
%ADD122R,0.0273X0.0007*%
%ADD123R,0.0287X0.0007*%
%ADD124R,0.0294X0.0007*%
%ADD125R,0.0280X0.0007*%
%ADD126R,0.0273X0.0007*%
%ADD127R,0.0329X0.0007*%
%ADD128R,0.0322X0.0007*%
%ADD129R,0.0371X0.0007*%
%ADD130R,0.0364X0.0007*%
%ADD131R,0.0364X0.0007*%
%ADD132R,0.0350X0.0007*%
%ADD133R,0.0413X0.0007*%
%ADD134R,0.0420X0.0007*%
%ADD135R,0.0336X0.0007*%
%ADD136R,0.0399X0.0007*%
%ADD137R,0.0448X0.0007*%
%ADD138R,0.0427X0.0007*%
%ADD139R,0.0469X0.0007*%
%ADD140R,0.0469X0.0007*%
%ADD141R,0.0378X0.0007*%
%ADD142R,0.0448X0.0007*%
%ADD143R,0.0504X0.0007*%
%ADD144R,0.0497X0.0007*%
%ADD145R,0.0399X0.0007*%
%ADD146R,0.0497X0.0007*%
%ADD147R,0.0420X0.0007*%
%ADD148R,0.0560X0.0007*%
%ADD149R,0.0441X0.0007*%
%ADD150R,0.0539X0.0007*%
%ADD151R,0.0455X0.0007*%
%ADD152R,0.0553X0.0007*%
%ADD153R,0.0595X0.0007*%
%ADD154R,0.0581X0.0007*%
%ADD155R,0.0490X0.0007*%
%ADD156R,0.0630X0.0007*%
%ADD157R,0.0504X0.0007*%
%ADD158R,0.0609X0.0007*%
%ADD159R,0.0637X0.0007*%
%ADD160R,0.0665X0.0007*%
%ADD161R,0.0672X0.0007*%
%ADD162R,0.0672X0.0007*%
%ADD163R,0.0679X0.0007*%
%ADD164R,0.0686X0.0007*%
%ADD165R,0.0812X0.0007*%
%ADD166R,0.0665X0.0007*%
%ADD167R,0.0693X0.0007*%
%ADD168R,0.0700X0.0007*%
%ADD169R,0.0819X0.0007*%
%ADD170R,0.0686X0.0007*%
%ADD171R,0.0679X0.0007*%
%ADD172R,0.0721X0.0007*%
%ADD173R,0.0714X0.0007*%
%ADD174R,0.0826X0.0007*%
%ADD175R,0.0707X0.0007*%
%ADD176R,0.0728X0.0007*%
%ADD177R,0.0833X0.0007*%
%ADD178R,0.0714X0.0007*%
%ADD179R,0.0714X0.0007*%
%ADD180R,0.0735X0.0007*%
%ADD181R,0.0742X0.0007*%
%ADD182R,0.0833X0.0007*%
%ADD183R,0.0728X0.0007*%
%ADD184R,0.0742X0.0007*%
%ADD185R,0.0840X0.0007*%
%ADD186R,0.0749X0.0007*%
%ADD187R,0.0742X0.0007*%
%ADD188R,0.0847X0.0007*%
%ADD189R,0.0749X0.0007*%
%ADD190R,0.0756X0.0007*%
%ADD191R,0.0854X0.0007*%
%ADD192R,0.0770X0.0007*%
%ADD193R,0.0735X0.0007*%
%ADD194R,0.0861X0.0007*%
%ADD195R,0.0777X0.0007*%
%ADD196R,0.0784X0.0007*%
%ADD197R,0.0861X0.0007*%
%ADD198R,0.0791X0.0007*%
%ADD199R,0.0868X0.0007*%
%ADD200R,0.0805X0.0007*%
%ADD201R,0.0798X0.0007*%
%ADD202R,0.0875X0.0007*%
%ADD203R,0.0812X0.0007*%
%ADD204R,0.0798X0.0007*%
%ADD205R,0.0308X0.0007*%
%ADD206R,0.0882X0.0007*%
%ADD207R,0.0791X0.0007*%
%ADD208R,0.0280X0.0007*%
%ADD209R,0.0399X0.0007*%
%ADD210R,0.0245X0.0007*%
%ADD211R,0.0889X0.0007*%
%ADD212R,0.0840X0.0007*%
%ADD213R,0.0238X0.0007*%
%ADD214R,0.0364X0.0007*%
%ADD215R,0.0259X0.0007*%
%ADD216R,0.0224X0.0007*%
%ADD217R,0.0364X0.0007*%
%ADD218R,0.0406X0.0007*%
%ADD219R,0.0259X0.0007*%
%ADD220R,0.0378X0.0007*%
%ADD221R,0.0168X0.0007*%
%ADD222R,0.0252X0.0007*%
%ADD223R,0.0392X0.0007*%
%ADD224R,0.0154X0.0007*%
%ADD225R,0.0252X0.0007*%
%ADD226R,0.0161X0.0007*%
%ADD227R,0.0385X0.0007*%
%ADD228R,0.0343X0.0007*%
%ADD229R,0.0126X0.0007*%
%ADD230R,0.0140X0.0007*%
%ADD231R,0.0315X0.0007*%
%ADD232R,0.0238X0.0007*%
%ADD233R,0.0308X0.0007*%
%ADD234R,0.0119X0.0007*%
%ADD235R,0.0217X0.0007*%
%ADD236R,0.0091X0.0007*%
%ADD237R,0.0252X0.0007*%
%ADD238R,0.0112X0.0007*%
%ADD239R,0.0196X0.0007*%
%ADD240R,0.0077X0.0007*%
%ADD241R,0.0063X0.0007*%
%ADD242R,0.0070X0.0007*%
%ADD243R,0.0056X0.0007*%
%ADD244R,0.0301X0.0007*%
%ADD245R,0.0049X0.0007*%
%ADD246R,0.0287X0.0007*%
%ADD247R,0.0056X0.0007*%
%ADD248R,0.0287X0.0007*%
%ADD249R,0.0147X0.0007*%
%ADD250R,0.0035X0.0007*%
%ADD251R,0.0042X0.0007*%
%ADD252R,0.0021X0.0007*%
%ADD253R,0.0028X0.0007*%
%ADD254R,0.0119X0.0007*%
%ADD255R,0.0014X0.0007*%
%ADD256R,0.0105X0.0007*%
%ADD257R,0.0091X0.0007*%
%ADD258R,0.0287X0.0007*%
%ADD259R,0.0049X0.0007*%
%ADD260R,0.0042X0.0007*%
%ADD261R,0.0259X0.0007*%
%ADD262R,0.0021X0.0007*%
%ADD263R,0.0007X0.0007*%
%ADD264R,0.0924X0.0007*%
%ADD265R,0.0924X0.0007*%
%ADD266R,0.0476X0.0007*%
%ADD267R,0.0931X0.0007*%
%ADD268R,0.0511X0.0007*%
%ADD269R,0.0931X0.0007*%
%ADD270R,0.0546X0.0007*%
%ADD271R,0.0532X0.0007*%
%ADD272R,0.0434X0.0007*%
%ADD273R,0.0007X0.0007*%
%ADD274R,0.0329X0.0007*%
%ADD275R,0.0035X0.0007*%
%ADD276R,0.0063X0.0007*%
%ADD277R,0.0315X0.0007*%
%ADD278R,0.0322X0.0007*%
%ADD279R,0.0084X0.0007*%
%ADD280R,0.0098X0.0007*%
%ADD281R,0.0007X0.0007*%
%ADD282R,0.0119X0.0007*%
%ADD283R,0.0133X0.0007*%
%ADD284R,0.0042X0.0007*%
%ADD285R,0.0350X0.0007*%
%ADD286R,0.0147X0.0007*%
%ADD287R,0.0357X0.0007*%
%ADD288R,0.0210X0.0007*%
%ADD289R,0.0231X0.0007*%
%ADD290R,0.0399X0.0007*%
%ADD291R,0.0357X0.0007*%
%ADD292R,0.0357X0.0007*%
%ADD293R,0.0392X0.0007*%
%ADD294R,0.0147X0.0007*%
%ADD295R,0.0413X0.0007*%
%ADD296R,0.0763X0.0007*%
%ADD297R,0.0819X0.0007*%
%ADD298R,0.0847X0.0007*%
%ADD299R,0.0196X0.0007*%
%ADD300R,0.0819X0.0007*%
%ADD301R,0.0896X0.0007*%
%ADD302R,0.0770X0.0007*%
%ADD303R,0.0224X0.0007*%
%ADD304R,0.0637X0.0007*%
%ADD305R,0.0889X0.0007*%
%ADD306R,0.0784X0.0007*%
%ADD307R,0.0784X0.0007*%
%ADD308R,0.0882X0.0007*%
%ADD309R,0.0805X0.0007*%
%ADD310R,0.0875X0.0007*%
%ADD311R,0.0868X0.0007*%
%ADD312R,0.0777X0.0007*%
%ADD313R,0.0763X0.0007*%
%ADD314R,0.0812X0.0007*%
%ADD315R,0.0742X0.0007*%
%ADD316R,0.0721X0.0007*%
%ADD317R,0.0693X0.0007*%
%ADD318R,0.0700X0.0007*%
%ADD319R,0.0588X0.0007*%
%ADD320R,0.0679X0.0007*%
%ADD321R,0.0777X0.0007*%
%ADD322R,0.0602X0.0007*%
%ADD323R,0.0483X0.0007*%
%ADD324R,0.0602X0.0007*%
%ADD325R,0.0462X0.0007*%
%ADD326R,0.0518X0.0007*%
%ADD327R,0.0504X0.0007*%
%ADD328R,0.0504X0.0007*%
%ADD329R,0.0476X0.0007*%
%ADD330R,0.0469X0.0007*%
%ADD331R,0.0462X0.0007*%
%ADD332R,0.0224X0.0007*%
%ADD333R,0.0203X0.0007*%
%ADD334R,0.0182X0.0007*%
%ADD335R,0.0434X0.0007*%
%ADD336R,0.0427X0.0007*%
%ADD337R,0.0140X0.0007*%
%ADD338C,0.0070*%
%ADD339C,0.0050*%
%ADD340C,0.0000*%
%ADD341C,0.0394*%
%ADD342C,0.0040*%
%ADD343C,0.0030*%
%ADD344R,0.0118X0.0059*%
%ADD345R,0.0118X0.0118*%
%ADD346R,0.0059X0.0118*%
D10*
X000180Y000180D02*
X000180Y027109D01*
X038330Y027109D01*
X038330Y000180D01*
X000180Y000180D01*
D11*
X011164Y008408D02*
X011164Y009235D01*
X014235Y011086D01*
X014235Y017700D01*
X011164Y019904D01*
X011164Y020613D01*
X027700Y020613D01*
X027700Y008408D01*
X011164Y008408D01*
X011164Y008419D02*
X027700Y008419D01*
X027700Y008517D02*
X011164Y008517D01*
X011164Y008616D02*
X027700Y008616D01*
X027700Y008714D02*
X011164Y008714D01*
X011164Y008813D02*
X027700Y008813D01*
X027700Y008911D02*
X011164Y008911D01*
X011164Y009010D02*
X027700Y009010D01*
X027700Y009108D02*
X011164Y009108D01*
X011164Y009207D02*
X027700Y009207D01*
X027700Y009305D02*
X011280Y009305D01*
X011444Y009404D02*
X027700Y009404D01*
X027700Y009502D02*
X011607Y009502D01*
X011771Y009601D02*
X027700Y009601D01*
X027700Y009699D02*
X011934Y009699D01*
X012098Y009798D02*
X027700Y009798D01*
X027700Y009896D02*
X012261Y009896D01*
X012425Y009995D02*
X027700Y009995D01*
X027700Y010093D02*
X012588Y010093D01*
X012752Y010192D02*
X027700Y010192D01*
X027700Y010290D02*
X012915Y010290D01*
X013078Y010389D02*
X027700Y010389D01*
X027700Y010487D02*
X013242Y010487D01*
X013405Y010586D02*
X027700Y010586D01*
X027700Y010684D02*
X013569Y010684D01*
X013732Y010783D02*
X027700Y010783D01*
X027700Y010881D02*
X013896Y010881D01*
X014059Y010980D02*
X027700Y010980D01*
X027700Y011078D02*
X014223Y011078D01*
X014235Y011177D02*
X027700Y011177D01*
X027700Y011275D02*
X014235Y011275D01*
X014235Y011374D02*
X027700Y011374D01*
X027700Y011472D02*
X014235Y011472D01*
X014235Y011571D02*
X027700Y011571D01*
X027700Y011669D02*
X014235Y011669D01*
X014235Y011768D02*
X027700Y011768D01*
X027700Y011866D02*
X014235Y011866D01*
X014235Y011965D02*
X027700Y011965D01*
X027700Y012063D02*
X014235Y012063D01*
X014235Y012162D02*
X027700Y012162D01*
X027700Y012260D02*
X014235Y012260D01*
X014235Y012359D02*
X027700Y012359D01*
X027700Y012457D02*
X014235Y012457D01*
X014235Y012556D02*
X027700Y012556D01*
X027700Y012654D02*
X014235Y012654D01*
X014235Y012753D02*
X027700Y012753D01*
X027700Y012851D02*
X014235Y012851D01*
X014235Y012950D02*
X027700Y012950D01*
X027700Y013048D02*
X014235Y013048D01*
X014235Y013147D02*
X027700Y013147D01*
X027700Y013245D02*
X014235Y013245D01*
X014235Y013344D02*
X027700Y013344D01*
X027700Y013442D02*
X014235Y013442D01*
X014235Y013541D02*
X027700Y013541D01*
X027700Y013639D02*
X014235Y013639D01*
X014235Y013738D02*
X027700Y013738D01*
X027700Y013836D02*
X014235Y013836D01*
X014235Y013935D02*
X027700Y013935D01*
X027700Y014033D02*
X014235Y014033D01*
X014235Y014132D02*
X027700Y014132D01*
X027700Y014230D02*
X014235Y014230D01*
X014235Y014329D02*
X027700Y014329D01*
X027700Y014427D02*
X014235Y014427D01*
X014235Y014526D02*
X027700Y014526D01*
X027700Y014624D02*
X014235Y014624D01*
X014235Y014723D02*
X027700Y014723D01*
X027700Y014821D02*
X014235Y014821D01*
X014235Y014920D02*
X027700Y014920D01*
X027700Y015018D02*
X014235Y015018D01*
X014235Y015117D02*
X027700Y015117D01*
X027700Y015215D02*
X014235Y015215D01*
X014235Y015314D02*
X027700Y015314D01*
X027700Y015412D02*
X014235Y015412D01*
X014235Y015511D02*
X027700Y015511D01*
X027700Y015609D02*
X014235Y015609D01*
X014235Y015708D02*
X027700Y015708D01*
X027700Y015806D02*
X014235Y015806D01*
X014235Y015905D02*
X027700Y015905D01*
X027700Y016003D02*
X014235Y016003D01*
X014235Y016102D02*
X027700Y016102D01*
X027700Y016200D02*
X014235Y016200D01*
X014235Y016299D02*
X027700Y016299D01*
X027700Y016397D02*
X014235Y016397D01*
X014235Y016496D02*
X027700Y016496D01*
X027700Y016594D02*
X014235Y016594D01*
X014235Y016693D02*
X027700Y016693D01*
X027700Y016791D02*
X014235Y016791D01*
X014235Y016890D02*
X027700Y016890D01*
X027700Y016988D02*
X014235Y016988D01*
X014235Y017087D02*
X027700Y017087D01*
X027700Y017185D02*
X014235Y017185D01*
X014235Y017284D02*
X027700Y017284D01*
X027700Y017382D02*
X014235Y017382D01*
X014235Y017481D02*
X027700Y017481D01*
X027700Y017579D02*
X014235Y017579D01*
X014235Y017678D02*
X027700Y017678D01*
X027700Y017776D02*
X014129Y017776D01*
X013992Y017875D02*
X027700Y017875D01*
X027700Y017973D02*
X013854Y017973D01*
X013717Y018072D02*
X027700Y018072D01*
X027700Y018170D02*
X013580Y018170D01*
X013443Y018269D02*
X027700Y018269D01*
X027700Y018367D02*
X013306Y018367D01*
X013168Y018466D02*
X027700Y018466D01*
X027700Y018564D02*
X013031Y018564D01*
X012894Y018663D02*
X027700Y018663D01*
X027700Y018761D02*
X012757Y018761D01*
X012620Y018860D02*
X027700Y018860D01*
X027700Y018958D02*
X012482Y018958D01*
X012345Y019057D02*
X027700Y019057D01*
X027700Y019155D02*
X012208Y019155D01*
X012071Y019254D02*
X027700Y019254D01*
X027700Y019352D02*
X011934Y019352D01*
X011796Y019451D02*
X027700Y019451D01*
X027700Y019549D02*
X011659Y019549D01*
X011522Y019648D02*
X027700Y019648D01*
X027700Y019746D02*
X011385Y019746D01*
X011248Y019845D02*
X027700Y019845D01*
X027700Y019943D02*
X011164Y019943D01*
X011164Y020042D02*
X027700Y020042D01*
X027700Y020140D02*
X011164Y020140D01*
X011164Y020239D02*
X027700Y020239D01*
X027700Y020337D02*
X011164Y020337D01*
X011164Y020436D02*
X027700Y020436D01*
X027700Y020534D02*
X011164Y020534D01*
X034814Y010180D02*
X034816Y010213D01*
X034822Y010246D01*
X034831Y010278D01*
X034845Y010309D01*
X034861Y010338D01*
X034881Y010364D01*
X034904Y010389D01*
X034930Y010410D01*
X034957Y010429D01*
X034987Y010444D01*
X035019Y010455D01*
X035051Y010463D01*
X035084Y010467D01*
X035118Y010467D01*
X035151Y010463D01*
X035183Y010455D01*
X035215Y010444D01*
X035244Y010429D01*
X035272Y010410D01*
X035298Y010389D01*
X035321Y010364D01*
X035341Y010338D01*
X035357Y010309D01*
X035371Y010278D01*
X035380Y010246D01*
X035386Y010213D01*
X035388Y010180D01*
X035386Y010147D01*
X035380Y010114D01*
X035371Y010082D01*
X035357Y010051D01*
X035341Y010022D01*
X035321Y009996D01*
X035298Y009971D01*
X035272Y009950D01*
X035245Y009931D01*
X035215Y009916D01*
X035183Y009905D01*
X035151Y009897D01*
X035118Y009893D01*
X035084Y009893D01*
X035051Y009897D01*
X035019Y009905D01*
X034987Y009916D01*
X034957Y009931D01*
X034930Y009950D01*
X034904Y009971D01*
X034881Y009996D01*
X034861Y010022D01*
X034845Y010051D01*
X034831Y010082D01*
X034822Y010114D01*
X034816Y010147D01*
X034814Y010180D01*
X035416Y010180D02*
X036086Y010180D01*
X036361Y010180D02*
X036363Y010198D01*
X036369Y010214D01*
X036378Y010229D01*
X036391Y010242D01*
X036406Y010251D01*
X036422Y010257D01*
X036440Y010259D01*
X036458Y010257D01*
X036474Y010251D01*
X036489Y010242D01*
X036502Y010229D01*
X036511Y010214D01*
X036517Y010198D01*
X036519Y010180D01*
X036517Y010162D01*
X036511Y010146D01*
X036502Y010131D01*
X036489Y010118D01*
X036474Y010109D01*
X036458Y010103D01*
X036440Y010101D01*
X036422Y010103D01*
X036406Y010109D01*
X036391Y010118D01*
X036378Y010131D01*
X036369Y010146D01*
X036363Y010162D01*
X036361Y010180D01*
X036440Y010180D02*
X037267Y010180D01*
X037295Y010180D02*
X037297Y010213D01*
X037303Y010246D01*
X037312Y010278D01*
X037326Y010309D01*
X037342Y010338D01*
X037362Y010364D01*
X037385Y010389D01*
X037411Y010410D01*
X037438Y010429D01*
X037468Y010444D01*
X037500Y010455D01*
X037532Y010463D01*
X037565Y010467D01*
X037599Y010467D01*
X037632Y010463D01*
X037664Y010455D01*
X037696Y010444D01*
X037725Y010429D01*
X037753Y010410D01*
X037779Y010389D01*
X037802Y010364D01*
X037822Y010338D01*
X037838Y010309D01*
X037852Y010278D01*
X037861Y010246D01*
X037867Y010213D01*
X037869Y010180D01*
X037867Y010147D01*
X037861Y010114D01*
X037852Y010082D01*
X037838Y010051D01*
X037822Y010022D01*
X037802Y009996D01*
X037779Y009971D01*
X037753Y009950D01*
X037726Y009931D01*
X037696Y009916D01*
X037664Y009905D01*
X037632Y009897D01*
X037599Y009893D01*
X037565Y009893D01*
X037532Y009897D01*
X037500Y009905D01*
X037468Y009916D01*
X037438Y009931D01*
X037411Y009950D01*
X037385Y009971D01*
X037362Y009996D01*
X037342Y010022D01*
X037326Y010051D01*
X037312Y010082D01*
X037303Y010114D01*
X037297Y010147D01*
X037295Y010180D01*
X036519Y010495D02*
X036483Y010499D01*
X036447Y010500D01*
X036412Y010497D01*
X036376Y010490D01*
X036342Y010479D01*
X036309Y010465D01*
X036278Y010447D01*
X036248Y010426D01*
X036221Y010402D01*
X036197Y010376D01*
X036176Y010347D01*
X036158Y010316D01*
X036143Y010283D01*
X036132Y010249D01*
X036124Y010214D01*
X036120Y010178D01*
X036120Y010142D01*
X036124Y010106D01*
X036132Y010071D01*
X036143Y010037D01*
X036158Y010004D01*
X036176Y009973D01*
X036197Y009944D01*
X036221Y009918D01*
X036248Y009894D01*
X036278Y009873D01*
X036309Y009855D01*
X036342Y009841D01*
X036376Y009830D01*
X036412Y009823D01*
X036447Y009820D01*
X036483Y009821D01*
X036519Y009825D01*
D12*
X030986Y010622D02*
X029586Y010622D01*
X029586Y013202D01*
X030986Y013202D01*
X030986Y010622D01*
X030574Y007109D02*
X028763Y007109D01*
X028763Y006932D01*
X029274Y006932D02*
X029274Y006145D01*
X028763Y006145D02*
X028763Y005967D01*
X030574Y005967D01*
X030574Y006145D01*
X030574Y006932D02*
X030574Y007109D01*
X037241Y014078D02*
X037345Y014182D01*
X037345Y014285D01*
X037241Y014389D01*
X036724Y014389D01*
X036724Y014492D02*
X036724Y014285D01*
X036724Y014723D02*
X036724Y015137D01*
X036724Y014930D02*
X037345Y014930D01*
X037345Y015367D02*
X036931Y015367D01*
X036724Y015574D01*
X036931Y015781D01*
X037345Y015781D01*
X037241Y016012D02*
X036828Y016012D01*
X036724Y016115D01*
X036724Y016322D01*
X036828Y016426D01*
X037034Y016426D02*
X037034Y016219D01*
X037034Y016426D02*
X037241Y016426D01*
X037345Y016322D01*
X037345Y016115D01*
X037241Y016012D01*
X037034Y015781D02*
X037034Y015367D01*
X034904Y019550D02*
X033093Y019550D01*
X033093Y019727D01*
X033605Y019727D02*
X033605Y020515D01*
X033093Y020515D02*
X033093Y020692D01*
X034904Y020692D01*
X034904Y020515D01*
X034904Y019727D02*
X034904Y019550D01*
X012466Y014027D02*
X012466Y013706D01*
X012385Y013626D01*
X012225Y013626D01*
X012145Y013706D01*
X012466Y014027D01*
X012385Y014107D01*
X012225Y014107D01*
X012145Y014027D01*
X012145Y013706D01*
X011968Y013706D02*
X011968Y013626D01*
X011887Y013626D01*
X011887Y013706D01*
X011968Y013706D01*
X011692Y013626D02*
X011372Y013626D01*
X011532Y013626D02*
X011532Y014107D01*
X011372Y013947D01*
X011176Y013947D02*
X011016Y013626D01*
X010856Y013947D01*
X010678Y013706D02*
X010678Y013626D01*
X010598Y013626D01*
X010598Y013706D01*
X010678Y013706D01*
X010403Y013706D02*
X010323Y013626D01*
X010083Y013626D01*
X010083Y014107D01*
X010323Y014107D01*
X010403Y014027D01*
X010403Y013947D01*
X010323Y013867D01*
X010083Y013867D01*
X010323Y013867D02*
X010403Y013787D01*
X010403Y013706D01*
X009887Y013706D02*
X009807Y013626D01*
X009647Y013626D01*
X009567Y013706D01*
X009567Y014027D01*
X009647Y014107D01*
X009807Y014107D01*
X009887Y014027D01*
X009372Y014027D02*
X009372Y013867D01*
X009292Y013787D01*
X009051Y013787D01*
X009051Y013626D02*
X009051Y014107D01*
X009292Y014107D01*
X009372Y014027D01*
X008874Y013706D02*
X008874Y013626D01*
X008794Y013626D01*
X008794Y013706D01*
X008874Y013706D01*
X008598Y013787D02*
X008598Y014107D01*
X008278Y014107D02*
X008278Y013787D01*
X008438Y013626D01*
X008598Y013787D01*
X008083Y013626D02*
X007762Y013626D01*
X007762Y014107D01*
X008083Y014107D01*
X007922Y013867D02*
X007762Y013867D01*
X007567Y014027D02*
X007487Y014107D01*
X007247Y014107D01*
X007247Y013626D01*
X007487Y013626D01*
X007567Y013706D01*
X007567Y014027D01*
X007051Y014027D02*
X007051Y013947D01*
X006731Y013626D01*
X007051Y013626D01*
X007051Y014027D02*
X006971Y014107D01*
X006811Y014107D01*
X006731Y014027D01*
X006536Y014107D02*
X006536Y013626D01*
X006376Y013787D01*
X006215Y013626D01*
X006215Y014107D01*
X006020Y014107D02*
X005700Y013787D01*
X005780Y013867D02*
X006020Y013626D01*
X005700Y013626D02*
X005700Y014107D01*
X002503Y014308D02*
X001882Y014308D01*
X002503Y014722D01*
X001882Y014722D01*
X001882Y014944D02*
X001882Y015151D01*
X001882Y015048D02*
X002503Y015048D01*
X002503Y015151D02*
X002503Y014944D01*
X002503Y015382D02*
X002089Y015382D01*
X001882Y015589D01*
X002089Y015796D01*
X002503Y015796D01*
X002184Y011715D02*
X002184Y011301D01*
X002391Y011508D02*
X001977Y011508D01*
X001977Y011070D02*
X001874Y010967D01*
X001874Y010760D01*
X001977Y010657D01*
X002080Y010657D01*
X002184Y010760D01*
X002184Y010863D01*
X002184Y010760D02*
X002287Y010657D01*
X002391Y010657D01*
X002494Y010760D01*
X002494Y010967D01*
X002391Y011070D01*
X001977Y010426D02*
X001874Y010426D01*
X001874Y010322D01*
X001977Y010322D01*
X001977Y010426D01*
X001977Y010103D02*
X001874Y010000D01*
X001874Y009793D01*
X001977Y009690D01*
X002080Y009690D01*
X002184Y009793D01*
X002184Y009897D01*
X002184Y009793D02*
X002287Y009690D01*
X002391Y009690D01*
X002494Y009793D01*
X002494Y010000D01*
X002391Y010103D01*
X002494Y009459D02*
X002080Y009459D01*
X001874Y009252D01*
X002080Y009045D01*
X002494Y009045D01*
X002469Y007699D02*
X002056Y007699D01*
X001952Y007596D01*
X001952Y007389D01*
X002056Y007285D01*
X002263Y007285D01*
X002263Y007492D01*
X002469Y007285D02*
X002573Y007389D01*
X002573Y007596D01*
X002469Y007699D01*
X002573Y007055D02*
X001952Y007055D01*
X001952Y006641D02*
X002573Y007055D01*
X002573Y006641D02*
X001952Y006641D01*
X001952Y006410D02*
X001952Y006100D01*
X002056Y005996D01*
X002469Y005996D01*
X002573Y006100D01*
X002573Y006410D01*
X001952Y006410D01*
D13*
X003184Y006584D02*
X003184Y007084D01*
X003434Y007334D01*
X003184Y007584D01*
X003184Y008084D01*
X003434Y008334D01*
X003934Y008334D01*
X004184Y008084D01*
X004184Y007584D01*
X003934Y007334D01*
X004184Y007084D01*
X004184Y006584D01*
X003934Y006334D01*
X004184Y006084D01*
X004184Y005584D01*
X003934Y005334D01*
X003434Y005334D01*
X003184Y005584D01*
X003184Y006084D01*
X003434Y006334D01*
X003184Y006584D01*
X003434Y006334D02*
X003934Y006334D01*
X003934Y007334D02*
X003434Y007334D01*
X003434Y008877D02*
X003184Y009127D01*
X003184Y009627D01*
X003434Y009877D01*
X003184Y010127D01*
X003184Y010627D01*
X003434Y010877D01*
X003184Y011127D01*
X003184Y011627D01*
X003434Y011877D01*
X003934Y011877D01*
X004184Y011627D01*
X004184Y011127D01*
X003934Y010877D01*
X004184Y010627D01*
X004184Y010127D01*
X003934Y009877D01*
X004184Y009627D01*
X004184Y009127D01*
X003934Y008877D01*
X003434Y008877D01*
X003434Y009877D02*
X003934Y009877D01*
X003934Y010877D02*
X003434Y010877D01*
X006720Y012922D02*
X006720Y013262D01*
X006890Y013262D01*
X006947Y013205D01*
X006947Y013092D01*
X006890Y013035D01*
X006720Y013035D01*
X006833Y013035D02*
X006947Y012922D01*
X007088Y012922D02*
X007145Y012922D01*
X007145Y012978D01*
X007088Y012978D01*
X007088Y012922D01*
X007272Y012978D02*
X007329Y012922D01*
X007442Y012922D01*
X007499Y012978D01*
X007499Y013035D01*
X007442Y013092D01*
X007329Y013092D01*
X007272Y013149D01*
X007272Y013205D01*
X007329Y013262D01*
X007442Y013262D01*
X007499Y013205D01*
X007641Y012978D02*
X007697Y012978D01*
X007697Y012922D01*
X007641Y012922D01*
X007641Y012978D01*
X008193Y012978D02*
X008250Y012922D01*
X008363Y012922D01*
X008420Y012978D01*
X008420Y013092D01*
X008363Y013149D01*
X008306Y013149D01*
X008193Y013092D01*
X008193Y013262D01*
X008420Y013262D01*
X008561Y012922D02*
X008788Y013262D01*
X008930Y013205D02*
X008986Y013262D01*
X009100Y013262D01*
X009157Y013205D01*
X009157Y013149D01*
X008930Y012922D01*
X009157Y012922D01*
X009298Y012978D02*
X009355Y012922D01*
X009468Y012922D01*
X009525Y012978D01*
X009525Y013205D01*
X009468Y013262D01*
X009355Y013262D01*
X009298Y013205D01*
X009298Y013149D01*
X009355Y013092D01*
X009525Y013092D01*
X009666Y012922D02*
X009893Y013262D01*
X010035Y013205D02*
X010091Y013262D01*
X010205Y013262D01*
X010261Y013205D01*
X010261Y013149D01*
X010035Y012922D01*
X010261Y012922D01*
X010403Y012978D02*
X010630Y013205D01*
X010630Y012978D01*
X010573Y012922D01*
X010460Y012922D01*
X010403Y012978D01*
X010403Y013205D01*
X010460Y013262D01*
X010573Y013262D01*
X010630Y013205D01*
X010771Y013149D02*
X010885Y013262D01*
X010885Y012922D01*
X010998Y012922D02*
X010771Y012922D01*
X011140Y012978D02*
X011196Y012922D01*
X011310Y012922D01*
X011366Y012978D01*
X011366Y013092D01*
X011310Y013149D01*
X011253Y013149D01*
X011140Y013092D01*
X011140Y013262D01*
X011366Y013262D01*
X011623Y008172D02*
X011697Y008172D01*
X011770Y008099D01*
X011770Y007952D01*
X011697Y007878D01*
X011623Y007878D01*
X011550Y007952D01*
X011550Y008099D01*
X011623Y008172D01*
X011770Y008099D02*
X011844Y008172D01*
X011917Y008172D01*
X011990Y008099D01*
X011990Y007952D01*
X011917Y007878D01*
X011844Y007878D01*
X011770Y007952D01*
X011990Y007712D02*
X011990Y007418D01*
X011990Y007565D02*
X011550Y007565D01*
X011697Y007418D01*
X011550Y007251D02*
X011550Y006958D01*
X011990Y006958D01*
X011990Y007251D01*
X011770Y007104D02*
X011770Y006958D01*
X011550Y006791D02*
X011550Y006497D01*
X011550Y006644D02*
X011990Y006644D01*
X011770Y006330D02*
X011844Y006257D01*
X011844Y006037D01*
X011990Y006037D02*
X011550Y006037D01*
X011550Y006257D01*
X011623Y006330D01*
X011770Y006330D01*
X012001Y005759D02*
X011501Y005759D01*
X011251Y005509D01*
X011001Y005759D01*
X010501Y005759D01*
X010251Y005509D01*
X010251Y005009D01*
X010501Y004759D01*
X011001Y004759D01*
X011251Y005009D01*
X011251Y005509D01*
X011251Y005009D02*
X011501Y004759D01*
X012001Y004759D01*
X012251Y005009D01*
X012251Y005509D01*
X012501Y005759D01*
X013001Y005759D01*
X013251Y005509D01*
X013501Y005759D01*
X014001Y005759D01*
X014251Y005509D01*
X014501Y005759D01*
X015001Y005759D01*
X015251Y005509D01*
X015501Y005759D01*
X016001Y005759D01*
X016251Y005509D01*
X016501Y005759D01*
X017001Y005759D01*
X017251Y005509D01*
X017501Y005759D01*
X018001Y005759D01*
X018251Y005509D01*
X018501Y005759D01*
X019001Y005759D01*
X019251Y005509D01*
X019501Y005759D01*
X020001Y005759D01*
X020251Y005509D01*
X020501Y005759D01*
X021001Y005759D01*
X021251Y005509D01*
X021501Y005759D01*
X022001Y005759D01*
X022251Y005509D01*
X022501Y005759D01*
X023001Y005759D01*
X023251Y005509D01*
X023501Y005759D01*
X024001Y005759D01*
X024251Y005509D01*
X024501Y005759D01*
X025001Y005759D01*
X025251Y005509D01*
X025501Y005759D01*
X026001Y005759D01*
X026251Y005509D01*
X026251Y005009D01*
X026001Y004759D01*
X025501Y004759D01*
X025251Y005009D01*
X025001Y004759D01*
X024501Y004759D01*
X024251Y005009D01*
X024251Y005509D01*
X024251Y005009D02*
X024001Y004759D01*
X023501Y004759D01*
X023251Y005009D01*
X023001Y004759D01*
X022501Y004759D01*
X022251Y005009D01*
X022001Y004759D01*
X021501Y004759D01*
X021251Y005009D01*
X021251Y005509D01*
X021251Y005009D02*
X021001Y004759D01*
X020501Y004759D01*
X020251Y005009D01*
X020001Y004759D01*
X019501Y004759D01*
X019251Y005009D01*
X019001Y004759D01*
X018501Y004759D01*
X018251Y005009D01*
X018251Y005509D01*
X018251Y005009D02*
X018001Y004759D01*
X017501Y004759D01*
X017251Y005009D01*
X017001Y004759D01*
X016501Y004759D01*
X016251Y005009D01*
X016001Y004759D01*
X015501Y004759D01*
X015251Y005009D01*
X015251Y005509D01*
X015251Y005009D02*
X015001Y004759D01*
X014501Y004759D01*
X014251Y005009D01*
X014001Y004759D01*
X013501Y004759D01*
X013251Y005009D01*
X013001Y004759D01*
X012501Y004759D01*
X012251Y005009D01*
X012251Y005509D02*
X012001Y005759D01*
X012456Y006037D02*
X012456Y006257D01*
X012529Y006330D01*
X012676Y006330D01*
X012749Y006257D01*
X012749Y006037D01*
X012896Y006037D02*
X012456Y006037D01*
X012456Y006497D02*
X012456Y006791D01*
X012456Y006644D02*
X012896Y006644D01*
X012896Y006958D02*
X012456Y006958D01*
X012456Y007251D01*
X012602Y007418D02*
X012456Y007565D01*
X012896Y007565D01*
X012896Y007418D02*
X012896Y007712D01*
X012896Y007878D02*
X012823Y007878D01*
X012529Y008172D01*
X012456Y008172D01*
X012456Y007878D01*
X012896Y007251D02*
X012896Y006958D01*
X012676Y006958D02*
X012676Y007104D01*
X013558Y006958D02*
X013998Y006958D01*
X013998Y007251D01*
X013998Y007418D02*
X013998Y007712D01*
X013998Y007565D02*
X013558Y007565D01*
X013705Y007418D01*
X013558Y007251D02*
X013558Y006958D01*
X013558Y006791D02*
X013558Y006497D01*
X013558Y006644D02*
X013998Y006644D01*
X013778Y006958D02*
X013778Y007104D01*
X014542Y006958D02*
X014983Y006958D01*
X014983Y007251D01*
X014762Y007104D02*
X014762Y006958D01*
X014542Y006958D02*
X014542Y007251D01*
X014762Y007418D02*
X014762Y007712D01*
X014542Y007638D02*
X014983Y007638D01*
X014762Y007418D02*
X014542Y007638D01*
X013998Y007952D02*
X013998Y008099D01*
X013925Y008172D01*
X013851Y008172D01*
X013778Y008099D01*
X013778Y007878D01*
X013925Y007878D01*
X013998Y007952D01*
X013778Y007878D02*
X013631Y008025D01*
X013558Y008172D01*
X014542Y006791D02*
X014542Y006497D01*
X014542Y006644D02*
X014983Y006644D01*
X014762Y006330D02*
X014616Y006330D01*
X014542Y006257D01*
X014542Y006037D01*
X014983Y006037D01*
X014836Y006037D02*
X014836Y006257D01*
X014762Y006330D01*
X015566Y006257D02*
X015566Y006037D01*
X016006Y006037D01*
X015859Y006037D02*
X015859Y006257D01*
X015786Y006330D01*
X015639Y006330D01*
X015566Y006257D01*
X015566Y006497D02*
X015566Y006791D01*
X015566Y006644D02*
X016006Y006644D01*
X016006Y006958D02*
X015566Y006958D01*
X015566Y007251D01*
X015639Y007418D02*
X015566Y007491D01*
X015566Y007638D01*
X015639Y007712D01*
X015713Y007712D01*
X015786Y007638D01*
X015859Y007712D01*
X015933Y007712D01*
X016006Y007638D01*
X016006Y007491D01*
X015933Y007418D01*
X016006Y007251D02*
X016006Y006958D01*
X015786Y006958D02*
X015786Y007104D01*
X015786Y007565D02*
X015786Y007638D01*
X016589Y007638D02*
X016589Y007491D01*
X016663Y007418D01*
X016589Y007251D02*
X016589Y006958D01*
X017030Y006958D01*
X017030Y007251D01*
X017030Y007418D02*
X016736Y007712D01*
X016663Y007712D01*
X016589Y007638D01*
X017030Y007712D02*
X017030Y007418D01*
X016810Y007104D02*
X016810Y006958D01*
X016589Y006791D02*
X016589Y006497D01*
X016589Y006644D02*
X017030Y006644D01*
X016810Y006330D02*
X016883Y006257D01*
X016883Y006037D01*
X017030Y006037D02*
X016589Y006037D01*
X016589Y006257D01*
X016663Y006330D01*
X016810Y006330D01*
X017495Y006257D02*
X017495Y006037D01*
X017935Y006037D01*
X017788Y006037D02*
X017788Y006257D01*
X017715Y006330D01*
X017568Y006330D01*
X017495Y006257D01*
X017495Y006497D02*
X017495Y006791D01*
X017495Y006644D02*
X017935Y006644D01*
X017935Y006958D02*
X017495Y006958D01*
X017495Y007251D01*
X017642Y007418D02*
X017495Y007565D01*
X017935Y007565D01*
X017935Y007418D02*
X017935Y007712D01*
X017935Y007251D02*
X017935Y006958D01*
X017715Y006958D02*
X017715Y007104D01*
X018558Y006958D02*
X018998Y006958D01*
X018998Y007251D01*
X018925Y007418D02*
X018631Y007418D01*
X018558Y007491D01*
X018558Y007638D01*
X018631Y007712D01*
X018925Y007418D01*
X018998Y007491D01*
X018998Y007638D01*
X018925Y007712D01*
X018631Y007712D01*
X018558Y007251D02*
X018558Y006958D01*
X018558Y006791D02*
X018558Y006497D01*
X018558Y006644D02*
X018998Y006644D01*
X018778Y006958D02*
X018778Y007104D01*
X019582Y007178D02*
X019582Y006958D01*
X020022Y006958D01*
X020022Y007178D01*
X019948Y007251D01*
X019655Y007251D01*
X019582Y007178D01*
X019582Y007418D02*
X019582Y007712D01*
X019655Y007712D01*
X019948Y007418D01*
X020022Y007418D01*
X020526Y007178D02*
X020526Y006958D01*
X020967Y006958D01*
X020967Y007178D01*
X020893Y007251D01*
X020600Y007251D01*
X020526Y007178D01*
X020747Y007418D02*
X020747Y007638D01*
X020820Y007712D01*
X020893Y007712D01*
X020967Y007638D01*
X020967Y007491D01*
X020893Y007418D01*
X020747Y007418D01*
X020600Y007565D01*
X020526Y007712D01*
X021471Y007712D02*
X021471Y007418D01*
X021691Y007418D01*
X021618Y007565D01*
X021618Y007638D01*
X021691Y007712D01*
X021838Y007712D01*
X021912Y007638D01*
X021912Y007491D01*
X021838Y007418D01*
X021838Y007251D02*
X021545Y007251D01*
X021471Y007178D01*
X021471Y006958D01*
X021912Y006958D01*
X021912Y007178D01*
X021838Y007251D01*
X021471Y006791D02*
X021471Y006497D01*
X021471Y006644D02*
X021912Y006644D01*
X021691Y006330D02*
X021545Y006330D01*
X021471Y006257D01*
X021471Y006037D01*
X021912Y006037D01*
X021765Y006037D02*
X021765Y006257D01*
X021691Y006330D01*
X020967Y006037D02*
X020526Y006037D01*
X020526Y006257D01*
X020600Y006330D01*
X020747Y006330D01*
X020820Y006257D01*
X020820Y006037D01*
X020526Y006497D02*
X020526Y006791D01*
X020526Y006644D02*
X020967Y006644D01*
X020022Y006644D02*
X019582Y006644D01*
X019582Y006497D02*
X019582Y006791D01*
X019655Y006330D02*
X019582Y006257D01*
X019582Y006037D01*
X020022Y006037D01*
X019875Y006037D02*
X019875Y006257D01*
X019802Y006330D01*
X019655Y006330D01*
X018998Y006037D02*
X018558Y006037D01*
X018558Y006257D01*
X018631Y006330D01*
X018778Y006330D01*
X018851Y006257D01*
X018851Y006037D01*
X019251Y005509D02*
X019251Y005009D01*
X020251Y005009D02*
X020251Y005509D01*
X022251Y005509D02*
X022251Y005009D01*
X023251Y005009D02*
X023251Y005509D01*
X022975Y006037D02*
X022534Y006037D01*
X022534Y006257D01*
X022608Y006330D01*
X022754Y006330D01*
X022828Y006257D01*
X022828Y006037D01*
X022534Y006497D02*
X022534Y006791D01*
X022534Y006644D02*
X022975Y006644D01*
X022975Y006958D02*
X022534Y006958D01*
X022534Y007178D01*
X022608Y007251D01*
X022901Y007251D01*
X022975Y007178D01*
X022975Y006958D01*
X022754Y007418D02*
X022754Y007712D01*
X022534Y007638D02*
X022975Y007638D01*
X022754Y007418D02*
X022534Y007638D01*
X023558Y007638D02*
X023558Y007491D01*
X023631Y007418D01*
X023631Y007251D02*
X023558Y007178D01*
X023558Y006958D01*
X023998Y006958D01*
X023998Y007178D01*
X023925Y007251D01*
X023631Y007251D01*
X023925Y007418D02*
X023998Y007491D01*
X023998Y007638D01*
X023925Y007712D01*
X023851Y007712D01*
X023778Y007638D01*
X023778Y007565D01*
X023778Y007638D02*
X023705Y007712D01*
X023631Y007712D01*
X023558Y007638D01*
X024503Y007638D02*
X024503Y007491D01*
X024576Y007418D01*
X024576Y007251D02*
X024503Y007178D01*
X024503Y006958D01*
X024943Y006958D01*
X024943Y007178D01*
X024870Y007251D01*
X024576Y007251D01*
X024943Y007418D02*
X024650Y007712D01*
X024576Y007712D01*
X024503Y007638D01*
X024943Y007712D02*
X024943Y007418D01*
X025487Y007565D02*
X025634Y007418D01*
X025560Y007251D02*
X025487Y007178D01*
X025487Y006958D01*
X025927Y006958D01*
X025927Y007178D01*
X025854Y007251D01*
X025560Y007251D01*
X025927Y007418D02*
X025927Y007712D01*
X025927Y007565D02*
X025487Y007565D01*
X025487Y006791D02*
X025487Y006497D01*
X025487Y006644D02*
X025927Y006644D01*
X025707Y006330D02*
X025781Y006257D01*
X025781Y006037D01*
X025927Y006037D02*
X025487Y006037D01*
X025487Y006257D01*
X025560Y006330D01*
X025707Y006330D01*
X024943Y006037D02*
X024503Y006037D01*
X024503Y006257D01*
X024576Y006330D01*
X024723Y006330D01*
X024796Y006257D01*
X024796Y006037D01*
X024503Y006497D02*
X024503Y006791D01*
X024503Y006644D02*
X024943Y006644D01*
X023998Y006644D02*
X023558Y006644D01*
X023558Y006497D02*
X023558Y006791D01*
X023631Y006330D02*
X023778Y006330D01*
X023851Y006257D01*
X023851Y006037D01*
X023998Y006037D02*
X023558Y006037D01*
X023558Y006257D01*
X023631Y006330D01*
X025251Y005509D02*
X025251Y005009D01*
X017251Y005009D02*
X017251Y005509D01*
X016251Y005509D02*
X016251Y005009D01*
X014251Y005009D02*
X014251Y005509D01*
X013998Y006037D02*
X013558Y006037D01*
X013558Y006257D01*
X013631Y006330D01*
X013778Y006330D01*
X013851Y006257D01*
X013851Y006037D01*
X013251Y005509D02*
X013251Y005009D01*
X011006Y006037D02*
X010566Y006037D01*
X010566Y006257D01*
X010639Y006330D01*
X010786Y006330D01*
X010859Y006257D01*
X010859Y006037D01*
X010566Y006497D02*
X010566Y006791D01*
X010566Y006644D02*
X011006Y006644D01*
X011006Y006958D02*
X010566Y006958D01*
X010566Y007251D01*
X010713Y007418D02*
X010566Y007565D01*
X011006Y007565D01*
X011006Y007418D02*
X011006Y007712D01*
X010933Y007878D02*
X011006Y007952D01*
X011006Y008099D01*
X010933Y008172D01*
X010639Y008172D01*
X010566Y008099D01*
X010566Y007952D01*
X010639Y007878D01*
X010713Y007878D01*
X010786Y007952D01*
X010786Y008172D01*
X011006Y007251D02*
X011006Y006958D01*
X010786Y006958D02*
X010786Y007104D01*
X004184Y013851D02*
X003934Y013601D01*
X003434Y013601D01*
X003184Y013851D01*
X003184Y014351D01*
X003434Y014601D01*
X003184Y014851D01*
X003184Y015351D01*
X003434Y015601D01*
X003184Y015851D01*
X003184Y016351D01*
X003434Y016601D01*
X003934Y016601D01*
X004184Y016351D01*
X004184Y015851D01*
X003934Y015601D01*
X004184Y015351D01*
X004184Y014851D01*
X003934Y014601D01*
X004184Y014351D01*
X004184Y013851D01*
X003934Y014601D02*
X003434Y014601D01*
X003434Y015601D02*
X003934Y015601D01*
X010375Y022397D02*
X010125Y022647D01*
X010125Y023147D01*
X010375Y023397D01*
X010875Y023397D01*
X011125Y023147D01*
X011375Y023397D01*
X011875Y023397D01*
X012125Y023147D01*
X012375Y023397D01*
X012875Y023397D01*
X013125Y023147D01*
X013375Y023397D01*
X013875Y023397D01*
X014125Y023147D01*
X014375Y023397D01*
X014875Y023397D01*
X015125Y023147D01*
X015375Y023397D01*
X015875Y023397D01*
X016125Y023147D01*
X016375Y023397D01*
X016875Y023397D01*
X017125Y023147D01*
X017375Y023397D01*
X017875Y023397D01*
X018125Y023147D01*
X018375Y023397D01*
X018875Y023397D01*
X019125Y023147D01*
X019375Y023397D01*
X019875Y023397D01*
X020125Y023147D01*
X020375Y023397D01*
X020875Y023397D01*
X021125Y023147D01*
X021375Y023397D01*
X021875Y023397D01*
X022125Y023147D01*
X022125Y022647D01*
X021875Y022397D01*
X021375Y022397D01*
X021125Y022647D01*
X020875Y022397D01*
X020375Y022397D01*
X020125Y022647D01*
X020125Y023147D01*
X020125Y022647D02*
X019875Y022397D01*
X019375Y022397D01*
X019125Y022647D01*
X018875Y022397D01*
X018375Y022397D01*
X018125Y022647D01*
X017875Y022397D01*
X017375Y022397D01*
X017125Y022647D01*
X017125Y023147D01*
X017125Y022647D02*
X016875Y022397D01*
X016375Y022397D01*
X016125Y022647D01*
X015875Y022397D01*
X015375Y022397D01*
X015125Y022647D01*
X014875Y022397D01*
X014375Y022397D01*
X014125Y022647D01*
X014125Y023147D01*
X014125Y022647D02*
X013875Y022397D01*
X013375Y022397D01*
X013125Y022647D01*
X012875Y022397D01*
X012375Y022397D01*
X012125Y022647D01*
X011875Y022397D01*
X011375Y022397D01*
X011125Y022647D01*
X010875Y022397D01*
X010375Y022397D01*
X011125Y022647D02*
X011125Y023147D01*
X010809Y023714D02*
X010369Y023714D01*
X010369Y023934D01*
X010442Y024008D01*
X010589Y024008D01*
X010663Y023934D01*
X010663Y023714D01*
X010663Y023861D02*
X010809Y024008D01*
X010809Y024174D02*
X010809Y024468D01*
X010736Y024635D02*
X010809Y024708D01*
X010809Y024855D01*
X010736Y024928D01*
X010663Y024928D01*
X010589Y024855D01*
X010589Y024708D01*
X010516Y024635D01*
X010442Y024635D01*
X010369Y024708D01*
X010369Y024855D01*
X010442Y024928D01*
X010369Y025095D02*
X010369Y025389D01*
X010369Y025556D02*
X010369Y025849D01*
X010369Y025702D02*
X010809Y025702D01*
X010809Y025389D02*
X010809Y025095D01*
X010369Y025095D01*
X010589Y025095D02*
X010589Y025242D01*
X010249Y025986D02*
X010249Y023684D01*
X010369Y024174D02*
X010809Y024174D01*
X010589Y024174D02*
X010589Y024321D01*
X010369Y024468D02*
X010369Y024174D01*
X011471Y024174D02*
X011471Y024468D01*
X011471Y024321D02*
X011912Y024321D01*
X011912Y024635D02*
X011618Y024635D01*
X011471Y024782D01*
X011618Y024928D01*
X011912Y024928D01*
X011838Y025095D02*
X011545Y025389D01*
X011838Y025389D01*
X011912Y025315D01*
X011912Y025169D01*
X011838Y025095D01*
X011545Y025095D01*
X011471Y025169D01*
X011471Y025315D01*
X011545Y025389D01*
X011691Y024928D02*
X011691Y024635D01*
X012416Y024782D02*
X012563Y024928D01*
X012857Y024928D01*
X012857Y025095D02*
X012857Y025389D01*
X012857Y025242D02*
X012416Y025242D01*
X012563Y025095D01*
X012636Y024928D02*
X012636Y024635D01*
X012563Y024635D02*
X012416Y024782D01*
X012563Y024635D02*
X012857Y024635D01*
X012857Y024321D02*
X012416Y024321D01*
X012416Y024174D02*
X012416Y024468D01*
X012490Y024008D02*
X012636Y024008D01*
X012710Y023934D01*
X012710Y023714D01*
X012857Y023714D02*
X012416Y023714D01*
X012416Y023934D01*
X012490Y024008D01*
X011912Y023714D02*
X011471Y023714D01*
X011471Y023934D01*
X011545Y024008D01*
X011691Y024008D01*
X011765Y023934D01*
X011765Y023714D01*
X012125Y023147D02*
X012125Y022647D01*
X013125Y022647D02*
X013125Y023147D01*
X013361Y023714D02*
X013361Y023934D01*
X013434Y024008D01*
X013581Y024008D01*
X013655Y023934D01*
X013655Y023714D01*
X013801Y023714D02*
X013361Y023714D01*
X013361Y024174D02*
X013361Y024468D01*
X013361Y024321D02*
X013801Y024321D01*
X013801Y024635D02*
X013508Y024635D01*
X013361Y024782D01*
X013508Y024928D01*
X013801Y024928D01*
X013801Y025095D02*
X013508Y025389D01*
X013434Y025389D01*
X013361Y025315D01*
X013361Y025169D01*
X013434Y025095D01*
X013581Y024928D02*
X013581Y024635D01*
X013801Y025095D02*
X013801Y025389D01*
X014385Y025315D02*
X014458Y025389D01*
X014531Y025389D01*
X014605Y025315D01*
X014678Y025389D01*
X014752Y025389D01*
X014825Y025315D01*
X014825Y025169D01*
X014752Y025095D01*
X014825Y024928D02*
X014531Y024928D01*
X014385Y024782D01*
X014531Y024635D01*
X014825Y024635D01*
X014605Y024635D02*
X014605Y024928D01*
X014458Y025095D02*
X014385Y025169D01*
X014385Y025315D01*
X014605Y025315D02*
X014605Y025242D01*
X015369Y025315D02*
X015589Y025095D01*
X015589Y025389D01*
X015809Y025315D02*
X015369Y025315D01*
X015516Y024928D02*
X015809Y024928D01*
X015589Y024928D02*
X015589Y024635D01*
X015516Y024635D02*
X015369Y024782D01*
X015516Y024928D01*
X015516Y024635D02*
X015809Y024635D01*
X015809Y024321D02*
X015369Y024321D01*
X015369Y024174D02*
X015369Y024468D01*
X014825Y024321D02*
X014385Y024321D01*
X014385Y024174D02*
X014385Y024468D01*
X014458Y024008D02*
X014605Y024008D01*
X014678Y023934D01*
X014678Y023714D01*
X014825Y023714D02*
X014385Y023714D01*
X014385Y023934D01*
X014458Y024008D01*
X015369Y023934D02*
X015369Y023714D01*
X015809Y023714D01*
X015663Y023714D02*
X015663Y023934D01*
X015589Y024008D01*
X015442Y024008D01*
X015369Y023934D01*
X015125Y023147D02*
X015125Y022647D01*
X016125Y022647D02*
X016125Y023147D01*
X016393Y023714D02*
X016393Y023934D01*
X016466Y024008D01*
X016613Y024008D01*
X016686Y023934D01*
X016686Y023714D01*
X016833Y023714D02*
X016393Y023714D01*
X016393Y024174D02*
X016393Y024468D01*
X016393Y024321D02*
X016833Y024321D01*
X016833Y024635D02*
X016539Y024635D01*
X016393Y024782D01*
X016539Y024928D01*
X016833Y024928D01*
X016833Y025095D02*
X016833Y025389D01*
X016833Y025242D02*
X016393Y025242D01*
X016539Y025095D01*
X016613Y024928D02*
X016613Y024635D01*
X017377Y024782D02*
X017524Y024928D01*
X017817Y024928D01*
X017817Y025095D02*
X017817Y025389D01*
X017817Y025242D02*
X017377Y025242D01*
X017524Y025095D01*
X017597Y024928D02*
X017597Y024635D01*
X017524Y024635D02*
X017377Y024782D01*
X017524Y024635D02*
X017817Y024635D01*
X017817Y024321D02*
X017377Y024321D01*
X017377Y024174D02*
X017377Y024468D01*
X017450Y024008D02*
X017597Y024008D01*
X017670Y023934D01*
X017670Y023714D01*
X017817Y023714D02*
X017377Y023714D01*
X017377Y023934D01*
X017450Y024008D01*
X018400Y023934D02*
X018400Y023714D01*
X018841Y023714D01*
X018694Y023714D02*
X018694Y023934D01*
X018621Y024008D01*
X018474Y024008D01*
X018400Y023934D01*
X018400Y024174D02*
X018400Y024468D01*
X018400Y024321D02*
X018841Y024321D01*
X018767Y024635D02*
X018474Y024635D01*
X018400Y024708D01*
X018400Y024855D01*
X018474Y024928D01*
X018621Y025095D02*
X018400Y025315D01*
X018841Y025315D01*
X018621Y025389D02*
X018621Y025095D01*
X018767Y024928D02*
X018841Y024855D01*
X018841Y024708D01*
X018767Y024635D01*
X019424Y024708D02*
X019497Y024635D01*
X019791Y024635D01*
X019864Y024708D01*
X019864Y024855D01*
X019791Y024928D01*
X019791Y025095D02*
X019864Y025169D01*
X019864Y025315D01*
X019791Y025389D01*
X019644Y025389D01*
X019571Y025315D01*
X019571Y025242D01*
X019644Y025095D01*
X019424Y025095D01*
X019424Y025389D01*
X019497Y024928D02*
X019424Y024855D01*
X019424Y024708D01*
X019424Y024468D02*
X019424Y024174D01*
X019424Y024321D02*
X019864Y024321D01*
X020408Y024321D02*
X020849Y024321D01*
X020775Y024635D02*
X020849Y024708D01*
X020849Y024855D01*
X020775Y024928D01*
X020775Y025095D02*
X020849Y025169D01*
X020849Y025315D01*
X020775Y025389D01*
X020702Y025389D01*
X020628Y025315D01*
X020628Y025095D01*
X020775Y025095D01*
X020628Y025095D02*
X020482Y025242D01*
X020408Y025389D01*
X020482Y024928D02*
X020408Y024855D01*
X020408Y024708D01*
X020482Y024635D01*
X020775Y024635D01*
X020408Y024468D02*
X020408Y024174D01*
X020482Y024008D02*
X020408Y023934D01*
X020408Y023714D01*
X020849Y023714D01*
X020702Y023714D02*
X020702Y023934D01*
X020628Y024008D01*
X020482Y024008D01*
X019864Y023714D02*
X019424Y023714D01*
X019424Y023934D01*
X019497Y024008D01*
X019644Y024008D01*
X019718Y023934D01*
X019718Y023714D01*
X019125Y023147D02*
X019125Y022647D01*
X018125Y022647D02*
X018125Y023147D01*
X021125Y023147D02*
X021125Y022647D01*
X021393Y023714D02*
X021393Y023934D01*
X021466Y024008D01*
X021613Y024008D01*
X021686Y023934D01*
X021686Y023714D01*
X021833Y023714D02*
X021393Y023714D01*
X021393Y024174D02*
X021393Y024468D01*
X021393Y024321D02*
X021833Y024321D01*
X021760Y024635D02*
X021466Y024635D01*
X021393Y024708D01*
X021393Y024855D01*
X021466Y024928D01*
X021393Y025095D02*
X021393Y025389D01*
X021466Y025389D01*
X021760Y025095D01*
X021833Y025095D01*
X021760Y024928D02*
X021833Y024855D01*
X021833Y024708D01*
X021760Y024635D01*
X017817Y025629D02*
X017817Y025776D01*
X017744Y025849D01*
X017450Y025849D01*
X017377Y025776D01*
X017377Y025629D01*
X017450Y025556D01*
X017524Y025556D01*
X017597Y025629D01*
X017597Y025849D01*
X017817Y025629D02*
X017744Y025556D01*
X016833Y025629D02*
X016760Y025556D01*
X016686Y025556D01*
X016613Y025629D01*
X016613Y025776D01*
X016686Y025849D01*
X016760Y025849D01*
X016833Y025776D01*
X016833Y025629D01*
X016613Y025629D02*
X016539Y025556D01*
X016466Y025556D01*
X016393Y025629D01*
X016393Y025776D01*
X016466Y025849D01*
X016539Y025849D01*
X016613Y025776D01*
X029580Y017580D02*
X029580Y017139D01*
X029580Y017286D02*
X029800Y017286D01*
X029874Y017359D01*
X029874Y017506D01*
X029800Y017580D01*
X029580Y017580D01*
X030040Y017506D02*
X030040Y017213D01*
X030114Y017139D01*
X030261Y017139D01*
X030334Y017213D01*
X030334Y017506D01*
X030261Y017580D01*
X030114Y017580D01*
X030040Y017506D01*
X030501Y017580D02*
X030501Y017139D01*
X030648Y017286D01*
X030794Y017139D01*
X030794Y017580D01*
X030961Y017580D02*
X030961Y017139D01*
X031255Y017139D01*
X031422Y017139D02*
X031422Y017580D01*
X031642Y017580D01*
X031715Y017506D01*
X031715Y017359D01*
X031642Y017286D01*
X031422Y017286D01*
X031568Y017286D02*
X031715Y017139D01*
X031255Y017580D02*
X030961Y017580D01*
X030961Y017359D02*
X031108Y017359D01*
X035298Y019558D02*
X035298Y019779D01*
X035372Y019852D01*
X035519Y019852D01*
X035592Y019779D01*
X035592Y019558D01*
X035739Y019558D02*
X035298Y019558D01*
X035298Y020019D02*
X035739Y020019D01*
X035592Y020166D01*
X035739Y020312D01*
X035298Y020312D01*
X035298Y020479D02*
X035298Y020699D01*
X035372Y020773D01*
X035519Y020773D01*
X035592Y020699D01*
X035592Y020479D01*
X035739Y020479D02*
X035298Y020479D01*
X035592Y020626D02*
X035739Y020773D01*
X035665Y021400D02*
X035372Y021400D01*
X035298Y021473D01*
X035298Y021620D01*
X035372Y021694D01*
X035665Y021694D01*
X035739Y021620D01*
X035739Y021473D01*
X035665Y021400D01*
X035739Y021860D02*
X035298Y021860D01*
X035739Y022154D01*
X035298Y022154D01*
X035298Y022321D02*
X035739Y022321D01*
X035739Y022614D01*
X035519Y022928D02*
X035372Y022781D01*
X035298Y022781D01*
X035519Y022928D02*
X035372Y023075D01*
X035298Y023075D01*
X035519Y022928D02*
X035739Y022928D01*
X033803Y023546D02*
X033509Y023546D01*
X033656Y023546D02*
X033656Y023106D01*
X033343Y023106D02*
X033049Y023106D01*
X033049Y023546D01*
X033343Y023546D01*
X033196Y023326D02*
X033049Y023326D01*
X032882Y023252D02*
X032882Y023179D01*
X032809Y023106D01*
X032662Y023106D01*
X032589Y023179D01*
X032662Y023326D02*
X032809Y023326D01*
X032882Y023252D01*
X032882Y023472D02*
X032809Y023546D01*
X032662Y023546D01*
X032589Y023472D01*
X032589Y023399D01*
X032662Y023326D01*
X032422Y023546D02*
X032128Y023546D01*
X032128Y023106D01*
X032422Y023106D01*
X032275Y023326D02*
X032128Y023326D01*
X031961Y023326D02*
X031888Y023252D01*
X031668Y023252D01*
X031668Y023106D02*
X031668Y023546D01*
X031888Y023546D01*
X031961Y023472D01*
X031961Y023326D01*
X031815Y023252D02*
X031961Y023106D01*
D14*
X012577Y014464D03*
X011919Y015584D03*
X009168Y015584D03*
X007124Y015584D03*
X006179Y014464D03*
D15*
X012580Y014471D03*
D16*
X006182Y014471D03*
D17*
X006179Y014478D03*
X008083Y015598D03*
X012577Y015094D03*
X012577Y014478D03*
D18*
X012580Y014485D03*
X013063Y015486D03*
X013063Y015500D03*
X013063Y015507D03*
X013063Y015521D03*
X013063Y015535D03*
X013063Y015542D03*
X013063Y015556D03*
X013063Y015570D03*
X013063Y015577D03*
X013063Y015591D03*
X013063Y015605D03*
X013063Y015612D03*
X013063Y015626D03*
X013063Y015640D03*
X013063Y015647D03*
X013063Y015661D03*
X013063Y015675D03*
X013063Y015682D03*
X013063Y015696D03*
X013063Y015710D03*
X013063Y015717D03*
X013063Y015731D03*
X013063Y015745D03*
X013063Y015752D03*
X013063Y015766D03*
X013063Y015780D03*
X013063Y015787D03*
X013063Y015801D03*
X013063Y015815D03*
X013063Y015822D03*
X013063Y015836D03*
X013063Y015850D03*
X013063Y015857D03*
X013063Y015871D03*
X013063Y015885D03*
X013063Y015892D03*
X013063Y015906D03*
X013063Y015920D03*
X013063Y015927D03*
X013063Y015941D03*
X013063Y015955D03*
X013063Y015962D03*
X013063Y015976D03*
X013063Y015990D03*
X013063Y015997D03*
X013063Y016011D03*
X013063Y016025D03*
X013063Y016032D03*
X013063Y016046D03*
X013063Y016060D03*
X013063Y016067D03*
X013063Y016081D03*
X013063Y016095D03*
X013063Y016102D03*
X013063Y016116D03*
X013063Y016130D03*
X013063Y016137D03*
X013063Y016151D03*
X013063Y016165D03*
X013063Y016172D03*
X013063Y016186D03*
X013063Y016200D03*
X013063Y016207D03*
X013063Y016221D03*
X013063Y016235D03*
X013063Y016242D03*
X013063Y016256D03*
X013063Y016270D03*
X013063Y016277D03*
X013063Y016291D03*
X013063Y016305D03*
X013063Y016312D03*
X013063Y016326D03*
X013063Y016340D03*
X013063Y016347D03*
X013063Y016361D03*
X013063Y016375D03*
X013063Y016382D03*
X013063Y016396D03*
X013070Y016676D03*
X012594Y016676D03*
X012594Y016690D03*
X012594Y016697D03*
X012594Y016711D03*
X012594Y016725D03*
X012594Y016732D03*
X012594Y016746D03*
X012594Y016760D03*
X012594Y016767D03*
X012594Y016781D03*
X012594Y016795D03*
X012594Y016802D03*
X012594Y016816D03*
X012594Y016830D03*
X012594Y016837D03*
X012594Y016851D03*
X012594Y016865D03*
X012594Y016662D03*
X012594Y016655D03*
X012594Y016641D03*
X012594Y016627D03*
X012594Y016620D03*
X012594Y016606D03*
X012594Y016592D03*
X012594Y016585D03*
X012594Y016571D03*
X012594Y016557D03*
X012594Y016550D03*
X012594Y016536D03*
X012594Y016522D03*
X012594Y016515D03*
X012594Y016501D03*
X012594Y016487D03*
X012594Y016480D03*
X012594Y016466D03*
X012594Y016452D03*
X012594Y016445D03*
X012594Y016431D03*
X012594Y016417D03*
X012594Y016410D03*
X012594Y016396D03*
X012594Y016382D03*
X012594Y016375D03*
X012594Y016361D03*
X012594Y016347D03*
X012594Y016340D03*
X012594Y016326D03*
X012594Y016312D03*
X012594Y016305D03*
X012594Y016291D03*
X012594Y016277D03*
X012594Y016270D03*
X012594Y016256D03*
X012594Y016242D03*
X012594Y016235D03*
X012594Y016221D03*
X012594Y016207D03*
X012594Y016200D03*
X012594Y016186D03*
X012594Y016172D03*
X012594Y016165D03*
X012594Y016151D03*
X012594Y016137D03*
X012594Y016130D03*
X012594Y016116D03*
X012594Y016102D03*
X012594Y016095D03*
X012594Y016081D03*
X012594Y016067D03*
X012594Y016060D03*
X012594Y016046D03*
X012594Y016032D03*
X012594Y016025D03*
X012594Y016011D03*
X012594Y015997D03*
X012594Y015990D03*
X012594Y015976D03*
X012594Y015962D03*
X012594Y015955D03*
X012594Y015941D03*
X012594Y015927D03*
X012594Y015920D03*
X012594Y015906D03*
X012594Y015892D03*
X012594Y015885D03*
X012594Y015871D03*
X012594Y015857D03*
X012594Y015850D03*
X012594Y015836D03*
X012594Y015822D03*
X012594Y015815D03*
X012594Y015801D03*
X012594Y015787D03*
X012594Y015780D03*
X012594Y015766D03*
X012594Y015752D03*
X012594Y015745D03*
X012594Y015731D03*
X012594Y015717D03*
X012594Y015710D03*
X012594Y015696D03*
X012594Y015682D03*
X012594Y015675D03*
X012594Y015661D03*
X012594Y015647D03*
X012594Y015640D03*
X012594Y015626D03*
X012594Y015612D03*
X012594Y015605D03*
X012223Y016172D03*
X012223Y016186D03*
X011586Y016207D03*
X011579Y016186D03*
X011572Y016172D03*
X011572Y016165D03*
X011579Y015920D03*
X011586Y015906D03*
X011593Y015892D03*
X010627Y015892D03*
X010627Y015885D03*
X010627Y015871D03*
X010627Y015857D03*
X010627Y015850D03*
X010627Y015836D03*
X010627Y015822D03*
X010627Y015815D03*
X010627Y015801D03*
X010627Y015787D03*
X010627Y015780D03*
X010627Y015766D03*
X010627Y015752D03*
X010627Y015745D03*
X010627Y015731D03*
X010627Y015717D03*
X010627Y015710D03*
X010627Y015696D03*
X010627Y015682D03*
X010627Y015675D03*
X010627Y015661D03*
X010627Y015647D03*
X010627Y015640D03*
X010627Y015626D03*
X010627Y015612D03*
X010627Y015605D03*
X010627Y015906D03*
X010627Y015920D03*
X010627Y015927D03*
X010627Y015941D03*
X010627Y015955D03*
X010627Y015962D03*
X010627Y015976D03*
X010627Y015990D03*
X010627Y015997D03*
X010627Y016011D03*
X010627Y016025D03*
X010627Y016032D03*
X010627Y016046D03*
X010627Y016060D03*
X010627Y016067D03*
X010627Y016081D03*
X010627Y016095D03*
X010627Y016102D03*
X010627Y016431D03*
X010627Y016445D03*
X010627Y016452D03*
X010627Y016466D03*
X010627Y016480D03*
X010627Y016487D03*
X010627Y016501D03*
X010627Y016515D03*
X010627Y016522D03*
X010627Y016536D03*
X010627Y016550D03*
X010627Y016557D03*
X010627Y016571D03*
X010627Y016585D03*
X010627Y016592D03*
X010627Y016606D03*
X010627Y016620D03*
X010627Y016627D03*
X010627Y016641D03*
X010627Y016655D03*
X010627Y016662D03*
X010627Y016676D03*
X010627Y016690D03*
X010627Y016697D03*
X010627Y016711D03*
X010627Y016725D03*
X010627Y016732D03*
X010627Y016746D03*
X010627Y016760D03*
X010627Y016767D03*
X010627Y016781D03*
X010627Y016795D03*
X010627Y016802D03*
X010627Y016816D03*
X010627Y016830D03*
X010627Y016837D03*
X010627Y016851D03*
X010627Y016865D03*
X009815Y016312D03*
X009808Y016235D03*
X009479Y016165D03*
X009472Y016186D03*
X008835Y016207D03*
X008828Y016186D03*
X008821Y016172D03*
X008821Y016165D03*
X008828Y015927D03*
X008828Y015920D03*
X008835Y015906D03*
X008478Y015990D03*
X008478Y015997D03*
X008478Y016011D03*
X008478Y016025D03*
X008478Y016095D03*
X008478Y016102D03*
X008478Y016116D03*
X008478Y016445D03*
X008478Y016452D03*
X008478Y016466D03*
X008478Y016480D03*
X008478Y016487D03*
X008478Y016501D03*
X008478Y016515D03*
X008478Y016522D03*
X008478Y016536D03*
X008478Y016550D03*
X008478Y016557D03*
X008478Y016571D03*
X008478Y016585D03*
X008478Y016592D03*
X008478Y016606D03*
X008478Y016620D03*
X008478Y016627D03*
X008478Y016641D03*
X008478Y016655D03*
X008478Y016662D03*
X008478Y016676D03*
X008478Y016690D03*
X008478Y016697D03*
X008478Y016711D03*
X008478Y016725D03*
X008478Y016732D03*
X008478Y016746D03*
X008478Y016760D03*
X008478Y016767D03*
X008478Y016781D03*
X008478Y016795D03*
X008478Y016802D03*
X008478Y016816D03*
X008478Y016830D03*
X008478Y016837D03*
X008478Y016851D03*
X008478Y016865D03*
X007792Y016102D03*
X007792Y016095D03*
X007792Y016081D03*
X007792Y016067D03*
X007792Y016060D03*
X007792Y016046D03*
X007792Y016032D03*
X007792Y016025D03*
X007792Y016011D03*
X007484Y016046D03*
X007484Y016060D03*
X007484Y016067D03*
X007477Y016095D03*
X007477Y016102D03*
X007477Y016116D03*
X007477Y016032D03*
X007477Y016025D03*
X007477Y016011D03*
X007477Y015997D03*
X006770Y016011D03*
X006770Y016102D03*
X005895Y016151D03*
X005888Y016137D03*
X005888Y016130D03*
X005888Y016116D03*
X005881Y016081D03*
X005881Y016067D03*
X005881Y016060D03*
X005881Y016046D03*
X005888Y015997D03*
X005888Y015990D03*
X005888Y015976D03*
X005895Y015962D03*
X005895Y015955D03*
X008079Y015605D03*
X008478Y015605D03*
X008478Y015612D03*
X008478Y015626D03*
X008478Y015640D03*
X008478Y015647D03*
X008478Y015661D03*
X008478Y015675D03*
X008478Y015682D03*
X008478Y015696D03*
X010249Y015801D03*
X010263Y015885D03*
X006182Y014485D03*
D19*
X008079Y015612D03*
X007834Y015885D03*
X007820Y016207D03*
X007435Y016235D03*
X006805Y016221D03*
X006238Y016515D03*
X005923Y016221D03*
X006448Y015822D03*
X006798Y015906D03*
X006805Y015892D03*
X008464Y015920D03*
X008464Y015927D03*
X008464Y016200D03*
X008863Y015857D03*
X009444Y016256D03*
X009836Y016326D03*
X010039Y016515D03*
X010641Y016207D03*
X010249Y015906D03*
X011215Y016235D03*
X011208Y016256D03*
X011908Y016515D03*
X012188Y016270D03*
X012195Y016256D03*
X011614Y015857D03*
X013091Y016725D03*
X012580Y014492D03*
D20*
X009437Y016270D03*
X007827Y016221D03*
X007442Y016221D03*
X007442Y015892D03*
X006812Y015885D03*
X006182Y014492D03*
D21*
X006179Y014499D03*
X006844Y015843D03*
X007397Y016284D03*
X007866Y015843D03*
X008447Y016249D03*
X012577Y014499D03*
D22*
X012577Y014506D03*
X012150Y016305D03*
X010666Y016270D03*
X009399Y016305D03*
X008916Y016305D03*
X008440Y015857D03*
X007390Y016291D03*
X005969Y016277D03*
X006179Y014506D03*
D23*
X006179Y014513D03*
X006179Y015059D03*
X005990Y015829D03*
X008426Y016284D03*
X010204Y015948D03*
X012577Y015059D03*
X012577Y014513D03*
X013200Y016858D03*
D24*
X011912Y016501D03*
X011023Y016480D03*
X009161Y016501D03*
X008419Y016291D03*
X006179Y015052D03*
X012577Y015052D03*
X012577Y014520D03*
D25*
X010193Y015955D03*
X009878Y016172D03*
X007911Y016312D03*
X006182Y014520D03*
D26*
X006182Y014527D03*
X006182Y015045D03*
X009892Y016165D03*
X012580Y015045D03*
X012580Y014527D03*
X013182Y016816D03*
D27*
X013172Y016774D03*
X012577Y015038D03*
X012577Y014534D03*
D28*
X010169Y015969D03*
X007124Y016494D03*
X006179Y015038D03*
X006179Y014534D03*
D29*
X006179Y014541D03*
X006179Y015031D03*
X007124Y015626D03*
X008391Y016312D03*
X009168Y015626D03*
X009917Y016151D03*
X010015Y015626D03*
X012577Y015031D03*
X012577Y014541D03*
D30*
X012577Y014548D03*
X012577Y015024D03*
X008384Y015808D03*
X006179Y015024D03*
X006179Y014548D03*
D31*
X006179Y014555D03*
X006179Y015017D03*
X011016Y016445D03*
X012577Y015017D03*
X012577Y014555D03*
D32*
X012577Y014562D03*
X012577Y015010D03*
X010134Y015990D03*
X007124Y016480D03*
X006235Y015640D03*
X006179Y015010D03*
X006179Y014562D03*
D33*
X012577Y014569D03*
X012577Y015003D03*
D34*
X006182Y015003D03*
X006182Y014569D03*
D35*
X006179Y014576D03*
X006179Y014996D03*
X010106Y016011D03*
X012577Y014996D03*
X012577Y014576D03*
D36*
X012577Y014583D03*
X010099Y016018D03*
X008076Y016438D03*
D37*
X008072Y015689D03*
X006182Y014989D03*
X006182Y014583D03*
X009962Y016123D03*
X012580Y014989D03*
D38*
X012577Y014982D03*
X012577Y014590D03*
X011919Y015647D03*
X011912Y016466D03*
X009973Y016116D03*
X010008Y015647D03*
X009168Y015647D03*
X009161Y016466D03*
X007124Y015647D03*
X006242Y016466D03*
D39*
X008072Y015696D03*
X006182Y014982D03*
X006182Y014590D03*
D40*
X006179Y014597D03*
X006179Y014975D03*
X007124Y016466D03*
X010092Y016025D03*
X012577Y014975D03*
X012577Y014597D03*
D41*
X012577Y014604D03*
X010008Y015654D03*
X010008Y016088D03*
X009168Y015654D03*
X007124Y015654D03*
X007124Y016459D03*
X006242Y016459D03*
X006179Y014604D03*
D42*
X006182Y014611D03*
X006182Y014961D03*
X010018Y016081D03*
X010046Y016060D03*
X012580Y014961D03*
X012580Y014611D03*
D43*
X012577Y014618D03*
X012577Y014954D03*
D44*
X006235Y015668D03*
X006179Y014954D03*
X006179Y014618D03*
D45*
X009164Y015661D03*
X010004Y015661D03*
X012580Y014625D03*
D46*
X006182Y014625D03*
D47*
X006179Y014632D03*
X006179Y014940D03*
X006242Y016452D03*
X007124Y016452D03*
X010057Y016445D03*
X012577Y014940D03*
X012577Y014632D03*
D48*
X012580Y014639D03*
X012580Y014933D03*
X013077Y016424D03*
X013077Y016438D03*
X013077Y016459D03*
X013077Y016473D03*
X013077Y016494D03*
X013077Y016508D03*
X013077Y016529D03*
X013077Y016543D03*
X013077Y016564D03*
X013077Y016578D03*
X006182Y014933D03*
X006182Y014639D03*
D49*
X006179Y014646D03*
X006179Y014926D03*
X006235Y015675D03*
X006242Y016445D03*
X007124Y016445D03*
X012577Y014926D03*
X012577Y014646D03*
D50*
X012577Y014653D03*
X012577Y014919D03*
X007124Y016438D03*
X006179Y014919D03*
X006179Y014653D03*
D51*
X006179Y014660D03*
X006179Y014905D03*
X006179Y014912D03*
X007124Y015675D03*
X009168Y015675D03*
X012577Y014912D03*
X012577Y014905D03*
X012577Y014667D03*
X012577Y014660D03*
D52*
X011915Y015675D03*
X009997Y015675D03*
X006182Y014667D03*
D53*
X006235Y015689D03*
X012577Y014674D03*
D54*
X012580Y014898D03*
X006182Y014898D03*
X006182Y014674D03*
X006245Y016438D03*
D55*
X007124Y015682D03*
X006179Y014891D03*
X006179Y014681D03*
X009161Y016431D03*
X010064Y016431D03*
X012577Y014891D03*
X012577Y014681D03*
D56*
X012580Y014688D03*
X012580Y014884D03*
X010060Y016424D03*
X006182Y014884D03*
X006182Y014688D03*
D57*
X006242Y016431D03*
X009168Y015682D03*
X010057Y016417D03*
X012577Y014877D03*
X012577Y014870D03*
X012577Y014702D03*
X012577Y014695D03*
D58*
X011919Y015682D03*
X010015Y016347D03*
X007124Y016431D03*
X006179Y014877D03*
X006179Y014870D03*
X006179Y014702D03*
X006179Y014695D03*
D59*
X010018Y016354D03*
X010025Y016368D03*
X010039Y016389D03*
X010046Y016403D03*
X012580Y014863D03*
X012580Y014709D03*
D60*
X006182Y014709D03*
X006182Y014863D03*
D61*
X006179Y014842D03*
X006179Y014835D03*
X006179Y014821D03*
X006179Y014807D03*
X006179Y014800D03*
X006179Y014772D03*
X006179Y014765D03*
X006179Y014751D03*
X006179Y014737D03*
X006179Y014730D03*
X006235Y015696D03*
X009161Y016417D03*
X011912Y016417D03*
X012577Y014842D03*
X012577Y014835D03*
X012577Y014821D03*
X012577Y014807D03*
X012577Y014800D03*
X012577Y014772D03*
X012577Y014765D03*
X012577Y014751D03*
X012577Y014737D03*
X012577Y014730D03*
X012577Y014716D03*
D62*
X010032Y016375D03*
X010032Y016382D03*
X006182Y014856D03*
X006182Y014716D03*
D63*
X006179Y014723D03*
X006179Y014744D03*
X006179Y014758D03*
X006179Y014814D03*
X006179Y014828D03*
X006179Y014849D03*
X006242Y016424D03*
X007124Y016424D03*
X009168Y015689D03*
X009994Y015689D03*
X011919Y015689D03*
X012577Y014849D03*
X012577Y014828D03*
X012577Y014814D03*
X012577Y014793D03*
X012577Y014779D03*
X012577Y014758D03*
X012577Y014744D03*
X012577Y014723D03*
D64*
X006182Y014779D03*
X006182Y014793D03*
D65*
X006182Y014786D03*
X012580Y014786D03*
D66*
X012580Y014856D03*
X010053Y016410D03*
X010039Y016396D03*
X010018Y016361D03*
X010011Y016340D03*
D67*
X010057Y016452D03*
X011912Y016452D03*
X012577Y014947D03*
D68*
X011919Y015661D03*
X010036Y016067D03*
X009161Y016452D03*
X007124Y015661D03*
X006179Y014947D03*
D69*
X006182Y014968D03*
X009157Y016459D03*
X010074Y016039D03*
X011908Y016459D03*
X012580Y014968D03*
D70*
X012580Y015066D03*
X011915Y015605D03*
X011649Y015822D03*
X009164Y015605D03*
X008443Y016256D03*
X008079Y016501D03*
X007869Y015836D03*
X007400Y015836D03*
X006861Y016291D03*
X005958Y015850D03*
X006182Y015066D03*
D71*
X005944Y015864D03*
X007855Y016263D03*
X008450Y015878D03*
X010655Y016249D03*
X012580Y015073D03*
X013224Y016893D03*
D72*
X011642Y015829D03*
X008891Y015829D03*
X007407Y015843D03*
X006182Y015073D03*
X005951Y016263D03*
D73*
X005927Y015892D03*
X005927Y015885D03*
X006816Y016235D03*
X006816Y016242D03*
X007432Y016242D03*
X007439Y015885D03*
X007831Y015892D03*
X008461Y015906D03*
X008461Y016207D03*
X008874Y016270D03*
X009161Y016515D03*
X009826Y016207D03*
X010645Y016221D03*
X011205Y016270D03*
X011625Y016270D03*
X011625Y015850D03*
X012577Y015080D03*
X013235Y016900D03*
X008874Y015850D03*
X006179Y015080D03*
D74*
X006179Y015087D03*
X007124Y016522D03*
X008083Y016515D03*
X008482Y016081D03*
X008482Y016067D03*
X008482Y016060D03*
X008482Y016046D03*
X008482Y016032D03*
X008818Y015962D03*
X008818Y015955D03*
X009812Y016305D03*
X010267Y015871D03*
X010267Y015857D03*
X011569Y015955D03*
X011569Y015962D03*
X011576Y015927D03*
X012577Y015087D03*
X013067Y016585D03*
X013067Y016592D03*
X013067Y016606D03*
X013067Y016620D03*
X013067Y016627D03*
X013067Y016641D03*
X013067Y016655D03*
X013067Y016662D03*
D75*
X006182Y015094D03*
D76*
X006179Y015101D03*
X006473Y015857D03*
X008083Y015591D03*
X009770Y015822D03*
X012577Y015101D03*
D77*
X012580Y015108D03*
D78*
X012132Y015843D03*
X009381Y015843D03*
X006182Y015108D03*
D79*
X009416Y015220D03*
D80*
X009420Y015227D03*
D81*
X009420Y015234D03*
D82*
X009423Y015241D03*
D83*
X009427Y015248D03*
D84*
X009430Y015255D03*
X009430Y015262D03*
D85*
X009434Y015269D03*
D86*
X009437Y015276D03*
D87*
X009441Y015283D03*
D88*
X009441Y015290D03*
D89*
X009448Y015297D03*
D90*
X009448Y015304D03*
D91*
X009451Y015311D03*
D92*
X009455Y015318D03*
D93*
X009458Y015325D03*
X009458Y015332D03*
D94*
X009462Y015339D03*
D95*
X009465Y015346D03*
D96*
X009469Y015353D03*
D97*
X009469Y015360D03*
D98*
X009472Y015367D03*
D99*
X009476Y015374D03*
D100*
X009479Y015381D03*
D101*
X009479Y015388D03*
D102*
X009483Y015395D03*
D103*
X009486Y015402D03*
D104*
X009486Y015409D03*
D105*
X009493Y015416D03*
D106*
X009493Y015423D03*
D107*
X009497Y015430D03*
D108*
X009500Y015437D03*
D109*
X009504Y015444D03*
D110*
X009507Y015451D03*
D111*
X009507Y015458D03*
D112*
X009511Y015465D03*
D113*
X009514Y015472D03*
D114*
X009479Y016158D03*
X009472Y016179D03*
X008828Y016179D03*
X008828Y016193D03*
X008821Y016158D03*
X008835Y015899D03*
X008478Y016004D03*
X008478Y016018D03*
X008478Y016088D03*
X008478Y016109D03*
X008478Y016123D03*
X008478Y016438D03*
X008478Y016459D03*
X008478Y016473D03*
X008478Y016494D03*
X008478Y016508D03*
X008478Y016529D03*
X008478Y016543D03*
X008478Y016564D03*
X008478Y016578D03*
X008478Y016599D03*
X008478Y016613D03*
X008478Y016634D03*
X008478Y016648D03*
X008478Y016669D03*
X008478Y016683D03*
X008478Y016704D03*
X008478Y016718D03*
X008478Y016739D03*
X008478Y016753D03*
X008478Y016774D03*
X008478Y016788D03*
X008478Y016809D03*
X008478Y016823D03*
X008478Y016844D03*
X008478Y016858D03*
X007792Y016088D03*
X007792Y016074D03*
X007792Y016053D03*
X007792Y016039D03*
X007792Y016018D03*
X007484Y016039D03*
X007484Y016053D03*
X007484Y016074D03*
X007477Y016088D03*
X007477Y016109D03*
X007477Y016018D03*
X007477Y016004D03*
X006770Y016018D03*
X006770Y016109D03*
X006455Y015829D03*
X005888Y015983D03*
X005888Y016004D03*
X005881Y016039D03*
X005881Y016053D03*
X005881Y016074D03*
X005888Y016123D03*
X005888Y016144D03*
X005895Y016158D03*
X008478Y015689D03*
X008478Y015668D03*
X008478Y015654D03*
X008478Y015633D03*
X008478Y015619D03*
X008478Y015598D03*
X010627Y015598D03*
X010627Y015619D03*
X010627Y015633D03*
X010627Y015654D03*
X010627Y015668D03*
X010627Y015689D03*
X010627Y015703D03*
X010627Y015724D03*
X010627Y015738D03*
X010627Y015759D03*
X010627Y015773D03*
X010627Y015794D03*
X010627Y015808D03*
X010627Y015829D03*
X010627Y015843D03*
X010627Y015864D03*
X010627Y015878D03*
X010627Y015899D03*
X010627Y015913D03*
X010627Y015934D03*
X010627Y015948D03*
X010627Y015969D03*
X010627Y015983D03*
X010627Y016004D03*
X010627Y016018D03*
X010627Y016039D03*
X010627Y016053D03*
X010627Y016074D03*
X010627Y016088D03*
X010627Y016109D03*
X010627Y016438D03*
X010627Y016459D03*
X010627Y016473D03*
X010627Y016494D03*
X010627Y016508D03*
X010627Y016529D03*
X010627Y016543D03*
X010627Y016564D03*
X010627Y016578D03*
X010627Y016599D03*
X010627Y016613D03*
X010627Y016634D03*
X010627Y016648D03*
X010627Y016669D03*
X010627Y016683D03*
X010627Y016704D03*
X010627Y016718D03*
X010627Y016739D03*
X010627Y016753D03*
X010627Y016774D03*
X010627Y016788D03*
X010627Y016809D03*
X010627Y016823D03*
X010627Y016844D03*
X010627Y016858D03*
X011586Y016214D03*
X011579Y016193D03*
X011579Y016179D03*
X011572Y016158D03*
X011586Y015899D03*
X012230Y016158D03*
X012223Y016179D03*
X012594Y016179D03*
X012594Y016193D03*
X012594Y016214D03*
X012594Y016228D03*
X012594Y016249D03*
X012594Y016263D03*
X012594Y016284D03*
X012594Y016298D03*
X012594Y016319D03*
X012594Y016333D03*
X012594Y016354D03*
X012594Y016368D03*
X012594Y016389D03*
X012594Y016403D03*
X012594Y016424D03*
X012594Y016438D03*
X012594Y016459D03*
X012594Y016473D03*
X012594Y016494D03*
X012594Y016508D03*
X012594Y016529D03*
X012594Y016543D03*
X012594Y016564D03*
X012594Y016578D03*
X012594Y016599D03*
X012594Y016613D03*
X012594Y016634D03*
X012594Y016648D03*
X012594Y016669D03*
X012594Y016683D03*
X012594Y016704D03*
X012594Y016718D03*
X012594Y016739D03*
X012594Y016753D03*
X012594Y016774D03*
X012594Y016788D03*
X012594Y016809D03*
X012594Y016823D03*
X012594Y016844D03*
X012594Y016858D03*
X013070Y016683D03*
X013070Y016669D03*
X013063Y016403D03*
X013063Y016389D03*
X013063Y016368D03*
X013063Y016354D03*
X013063Y016333D03*
X013063Y016319D03*
X013063Y016298D03*
X013063Y016284D03*
X013063Y016263D03*
X013063Y016249D03*
X013063Y016228D03*
X013063Y016214D03*
X013063Y016193D03*
X013063Y016179D03*
X013063Y016158D03*
X013063Y016144D03*
X013063Y016123D03*
X013063Y016109D03*
X013063Y016088D03*
X013063Y016074D03*
X013063Y016053D03*
X013063Y016039D03*
X013063Y016018D03*
X013063Y016004D03*
X013063Y015983D03*
X013063Y015969D03*
X013063Y015948D03*
X013063Y015934D03*
X013063Y015913D03*
X013063Y015899D03*
X013063Y015878D03*
X013063Y015864D03*
X013063Y015843D03*
X013063Y015829D03*
X013063Y015808D03*
X013063Y015794D03*
X013063Y015773D03*
X013063Y015759D03*
X013063Y015738D03*
X013063Y015724D03*
X013063Y015703D03*
X013063Y015689D03*
X013063Y015668D03*
X013063Y015654D03*
X013063Y015633D03*
X013063Y015619D03*
X013063Y015598D03*
X013063Y015584D03*
X013063Y015563D03*
X013063Y015549D03*
X013063Y015528D03*
X013063Y015514D03*
X013063Y015493D03*
X013063Y015479D03*
X012594Y015598D03*
X012594Y015619D03*
X012594Y015633D03*
X012594Y015654D03*
X012594Y015668D03*
X012594Y015689D03*
X012594Y015703D03*
X012594Y015724D03*
X012594Y015738D03*
X012594Y015759D03*
X012594Y015773D03*
X012594Y015794D03*
X012594Y015808D03*
X012594Y015829D03*
X012594Y015843D03*
X012594Y015864D03*
X012594Y015878D03*
X012594Y015899D03*
X012594Y015913D03*
X012594Y015934D03*
X012594Y015948D03*
X012594Y015969D03*
X012594Y015983D03*
X012594Y016004D03*
X012594Y016018D03*
X012594Y016039D03*
X012594Y016053D03*
X012594Y016074D03*
X012594Y016088D03*
X012594Y016109D03*
X012594Y016123D03*
X012594Y016144D03*
X012594Y016158D03*
D115*
X010242Y016298D03*
X010032Y015584D03*
X006476Y015878D03*
X006245Y015584D03*
D116*
X008079Y015584D03*
D117*
X007124Y015591D03*
X011919Y015591D03*
D118*
X011019Y016522D03*
X010032Y015591D03*
D119*
X009168Y015591D03*
D120*
X009364Y015815D03*
X009777Y015815D03*
X012115Y015815D03*
X006242Y015591D03*
D121*
X006805Y015899D03*
X007435Y015878D03*
X007820Y016214D03*
X008464Y016193D03*
X008464Y015913D03*
X008870Y016263D03*
X009164Y015598D03*
X010641Y016214D03*
X011614Y016263D03*
X012188Y016263D03*
X011915Y015598D03*
D122*
X011233Y015598D03*
X011233Y015619D03*
X011233Y015633D03*
X011233Y015654D03*
X011233Y015668D03*
X011233Y015689D03*
X011233Y015703D03*
X011233Y015724D03*
X011233Y015738D03*
X011233Y015759D03*
X011233Y015773D03*
X011233Y015794D03*
X011233Y015808D03*
X011233Y015829D03*
X011233Y015843D03*
X011233Y015864D03*
X011233Y015878D03*
X011233Y015899D03*
X011233Y015913D03*
X011233Y015934D03*
X011233Y015948D03*
X011233Y015969D03*
X011233Y015983D03*
X011233Y016004D03*
X011233Y016018D03*
X011233Y016039D03*
X011233Y016053D03*
X011233Y016074D03*
X011233Y016088D03*
X011233Y016109D03*
X011233Y016123D03*
X011233Y016144D03*
X011233Y016158D03*
X011226Y016179D03*
X011226Y016193D03*
X011597Y016228D03*
X012220Y016193D03*
X013074Y016704D03*
X013249Y016914D03*
X010631Y016158D03*
X010631Y016144D03*
X010631Y016123D03*
X009812Y016228D03*
X009469Y016193D03*
X008846Y016228D03*
X008839Y016214D03*
X008475Y016144D03*
X008475Y015983D03*
X008475Y015969D03*
X007803Y015969D03*
X007796Y015983D03*
X007796Y016004D03*
X007796Y016109D03*
X007796Y016123D03*
X007474Y016123D03*
X007474Y016144D03*
X007474Y015983D03*
X007467Y015948D03*
X006774Y015969D03*
X006774Y015983D03*
X006774Y016004D03*
X006767Y016039D03*
X006767Y016053D03*
X006767Y016074D03*
X006767Y016088D03*
X006774Y016123D03*
X006774Y016144D03*
X006781Y016158D03*
X006788Y016179D03*
X006438Y016298D03*
X005899Y016179D03*
X005892Y015969D03*
X005899Y015948D03*
D123*
X005920Y015899D03*
X006795Y015913D03*
X006809Y016228D03*
X007446Y016214D03*
X007810Y016179D03*
X007446Y015899D03*
X008860Y015864D03*
X009805Y015794D03*
X010029Y015598D03*
X010239Y015794D03*
X011219Y016228D03*
X011604Y016249D03*
X011611Y015864D03*
D124*
X009822Y016214D03*
X007827Y015899D03*
X007127Y015598D03*
D125*
X006791Y015934D03*
X006784Y015948D03*
X006791Y016193D03*
X007456Y016193D03*
X007463Y016179D03*
X007470Y016158D03*
X007470Y015969D03*
X007463Y015934D03*
X007806Y015948D03*
X007813Y015934D03*
X007820Y015913D03*
X007799Y016144D03*
X007799Y016158D03*
X008471Y016158D03*
X008471Y015948D03*
X008849Y015878D03*
X008856Y016249D03*
X009458Y016228D03*
X009465Y016214D03*
X009822Y016319D03*
X010256Y015899D03*
X010634Y016179D03*
X011019Y016508D03*
X011222Y016214D03*
X011600Y015878D03*
X012216Y016214D03*
X012209Y016228D03*
X012202Y016249D03*
X013084Y016718D03*
X006238Y015598D03*
X005902Y015934D03*
X005909Y016193D03*
X005916Y016214D03*
D126*
X005899Y016172D03*
X005899Y016165D03*
X005899Y015941D03*
X006767Y016025D03*
X006767Y016032D03*
X006767Y016046D03*
X006767Y016060D03*
X006767Y016067D03*
X006767Y016081D03*
X006767Y016095D03*
X006774Y016116D03*
X006774Y016130D03*
X006774Y016137D03*
X006781Y016151D03*
X006781Y016165D03*
X006774Y015997D03*
X006774Y015990D03*
X006774Y015976D03*
X006781Y015962D03*
X006781Y015955D03*
X007474Y015976D03*
X007474Y015990D03*
X007481Y016081D03*
X007474Y016130D03*
X007474Y016137D03*
X007467Y016165D03*
X007467Y016172D03*
X007796Y016130D03*
X007796Y016116D03*
X007796Y015997D03*
X007796Y015990D03*
X007803Y015962D03*
X007803Y015955D03*
X007810Y015941D03*
X008475Y015962D03*
X008475Y015976D03*
X008475Y016130D03*
X008475Y016137D03*
X008475Y016151D03*
X008832Y016200D03*
X008839Y016221D03*
X008846Y015892D03*
X008846Y015885D03*
X009476Y016172D03*
X009469Y016200D03*
X009469Y016207D03*
X010260Y015892D03*
X010631Y016116D03*
X010631Y016130D03*
X010631Y016137D03*
X010631Y016151D03*
X010631Y016165D03*
X011226Y016186D03*
X011226Y016200D03*
X011233Y016151D03*
X011233Y016137D03*
X011233Y016130D03*
X011233Y016116D03*
X011233Y016102D03*
X011233Y016095D03*
X011233Y016081D03*
X011233Y016067D03*
X011233Y016060D03*
X011233Y016046D03*
X011233Y016032D03*
X011233Y016025D03*
X011233Y016011D03*
X011233Y015997D03*
X011233Y015990D03*
X011233Y015976D03*
X011233Y015962D03*
X011233Y015955D03*
X011233Y015941D03*
X011233Y015927D03*
X011233Y015920D03*
X011233Y015906D03*
X011233Y015892D03*
X011233Y015885D03*
X011233Y015871D03*
X011233Y015857D03*
X011233Y015850D03*
X011233Y015836D03*
X011233Y015822D03*
X011233Y015815D03*
X011233Y015801D03*
X011233Y015787D03*
X011233Y015780D03*
X011233Y015766D03*
X011233Y015752D03*
X011233Y015745D03*
X011233Y015731D03*
X011233Y015717D03*
X011233Y015710D03*
X011233Y015696D03*
X011233Y015682D03*
X011233Y015675D03*
X011233Y015661D03*
X011233Y015647D03*
X011233Y015640D03*
X011233Y015626D03*
X011233Y015612D03*
X011233Y015605D03*
X011597Y015885D03*
X011583Y016200D03*
X011590Y016221D03*
X012220Y016200D03*
X012227Y016165D03*
X013074Y016690D03*
X013074Y016697D03*
D127*
X013221Y016886D03*
X010659Y016256D03*
X009819Y015787D03*
X010022Y015605D03*
X008902Y015822D03*
X008447Y015871D03*
X008447Y016242D03*
X007866Y016277D03*
X007404Y016277D03*
X006844Y016277D03*
X006851Y015836D03*
X007124Y015605D03*
X005962Y016270D03*
D128*
X005951Y015857D03*
X006238Y015605D03*
X007862Y015850D03*
X007848Y016256D03*
X008891Y016291D03*
X010228Y015927D03*
X011187Y016291D03*
X011642Y016291D03*
D129*
X011919Y015612D03*
X009168Y015612D03*
X008426Y015836D03*
X007362Y016305D03*
X006886Y016305D03*
D130*
X005986Y016291D03*
X008429Y016277D03*
X008926Y016312D03*
X010025Y015612D03*
X011019Y016487D03*
D131*
X011677Y016312D03*
X007127Y015612D03*
D132*
X007379Y015822D03*
X007890Y015822D03*
X008079Y015626D03*
X008436Y015850D03*
X008436Y016270D03*
X007876Y016291D03*
X006868Y015822D03*
X006238Y015612D03*
X005972Y015836D03*
X008912Y015815D03*
X009857Y016186D03*
X010214Y015941D03*
X011663Y015815D03*
X011663Y016305D03*
X013210Y016872D03*
D133*
X011912Y016494D03*
X011919Y015619D03*
X009168Y015619D03*
X009161Y016494D03*
X007124Y015619D03*
X006242Y016494D03*
D134*
X010018Y015619D03*
X013175Y016788D03*
D135*
X012160Y016298D03*
X011656Y016298D03*
X011019Y016494D03*
X010662Y016263D03*
X010221Y015934D03*
X009850Y016193D03*
X009409Y016298D03*
X008905Y016298D03*
X008443Y015864D03*
X008079Y015619D03*
X007869Y016284D03*
X006854Y016284D03*
X005965Y015843D03*
D136*
X006235Y015619D03*
D137*
X008079Y016466D03*
X010046Y016487D03*
X010158Y015976D03*
X011915Y015626D03*
X011908Y016487D03*
D138*
X006235Y015626D03*
D139*
X007124Y015633D03*
X008076Y015668D03*
X008076Y016459D03*
X009168Y015633D03*
X009931Y016144D03*
X011919Y015633D03*
D140*
X010015Y015633D03*
D141*
X009871Y016179D03*
X008079Y015633D03*
X013196Y016844D03*
D142*
X006238Y015633D03*
D143*
X008079Y016445D03*
X010011Y015640D03*
X011019Y016431D03*
X011915Y015640D03*
D144*
X010127Y015997D03*
X009952Y016130D03*
X009168Y015640D03*
D145*
X008944Y015801D03*
X008412Y015822D03*
X008076Y015640D03*
X007124Y016501D03*
X010183Y015962D03*
D146*
X007124Y015640D03*
X006235Y015647D03*
D147*
X006910Y016312D03*
X007337Y016312D03*
X008401Y015815D03*
X008079Y015647D03*
X010704Y016305D03*
X011019Y016466D03*
D148*
X010053Y016053D03*
X010025Y016074D03*
X011915Y015654D03*
D149*
X013165Y016739D03*
X008076Y015654D03*
D150*
X006235Y015654D03*
X010050Y016459D03*
D151*
X009161Y016487D03*
X008076Y015661D03*
X006242Y016487D03*
D152*
X006235Y015661D03*
X010001Y016095D03*
X010064Y016046D03*
D153*
X010001Y015668D03*
X009168Y015668D03*
X011919Y015668D03*
D154*
X007124Y015668D03*
D155*
X008079Y015675D03*
X008079Y016452D03*
X009941Y016137D03*
D156*
X009997Y015682D03*
X011908Y016431D03*
D157*
X008072Y015682D03*
D158*
X006235Y015682D03*
D159*
X007124Y015689D03*
X009161Y016424D03*
D160*
X007124Y016417D03*
X007124Y015696D03*
X006249Y016417D03*
X011919Y015696D03*
D161*
X009990Y015696D03*
D162*
X009171Y015696D03*
X009157Y016410D03*
X011908Y016410D03*
D163*
X011919Y015703D03*
X009168Y015703D03*
X007124Y015703D03*
D164*
X009157Y016403D03*
X009990Y015703D03*
X011908Y016403D03*
D165*
X008205Y016424D03*
X008205Y015703D03*
D166*
X006235Y015703D03*
D167*
X009168Y015710D03*
X011919Y015710D03*
D168*
X011908Y016396D03*
X009990Y015710D03*
X009157Y016396D03*
X006238Y015717D03*
D169*
X007124Y015787D03*
X008202Y015710D03*
X008202Y016417D03*
X010904Y016375D03*
D170*
X007127Y015710D03*
X006245Y016410D03*
D171*
X006235Y015710D03*
D172*
X009161Y016382D03*
X009987Y015717D03*
X010015Y015780D03*
X011919Y015717D03*
D173*
X009171Y015717D03*
X006245Y016396D03*
D174*
X007120Y016326D03*
X008198Y016410D03*
X008198Y015717D03*
X010907Y016361D03*
D175*
X007124Y016396D03*
X007124Y015717D03*
D176*
X006245Y016389D03*
X009171Y015724D03*
X009983Y015724D03*
X010011Y015773D03*
X011922Y015724D03*
D177*
X010911Y016354D03*
X008195Y016403D03*
X008195Y015724D03*
X007124Y015794D03*
X007124Y016319D03*
D178*
X007127Y015724D03*
X009157Y016389D03*
D179*
X011908Y016389D03*
X006238Y015724D03*
D180*
X007124Y016382D03*
X009126Y015780D03*
X009140Y015766D03*
X009987Y015731D03*
X009994Y015745D03*
X010001Y015752D03*
X010008Y015766D03*
X011877Y015780D03*
X011919Y015731D03*
D181*
X011908Y015745D03*
X011901Y015752D03*
X011887Y015766D03*
X011873Y015787D03*
X011908Y016375D03*
X009157Y016375D03*
X009157Y015745D03*
X009171Y015731D03*
D182*
X008195Y015731D03*
X010911Y016340D03*
X010911Y016347D03*
D183*
X011908Y016382D03*
X009122Y015787D03*
X007127Y015731D03*
X006238Y015731D03*
D184*
X009164Y015738D03*
X009990Y015738D03*
X011894Y015759D03*
X011915Y015738D03*
D185*
X010914Y016333D03*
X008191Y015738D03*
D186*
X009161Y016368D03*
X007124Y015738D03*
D187*
X006238Y015738D03*
X009136Y015773D03*
X009143Y015759D03*
X011887Y015773D03*
X011908Y016368D03*
D188*
X010918Y016312D03*
X008188Y016382D03*
X008188Y015745D03*
D189*
X009154Y015752D03*
X007124Y015745D03*
X007124Y016375D03*
D190*
X006245Y016375D03*
X006238Y015745D03*
X009157Y016361D03*
X011908Y016361D03*
D191*
X008184Y016375D03*
X008184Y015752D03*
D192*
X007127Y015752D03*
X006238Y015752D03*
X006210Y016326D03*
X006224Y016347D03*
X006238Y016361D03*
D193*
X009119Y015794D03*
X010001Y015759D03*
X011870Y015794D03*
D194*
X008181Y015759D03*
X008181Y016368D03*
D195*
X007124Y015759D03*
D196*
X006238Y015759D03*
X006210Y015808D03*
D197*
X008181Y015766D03*
D198*
X007124Y015766D03*
X007124Y016347D03*
X006242Y015766D03*
X006228Y015787D03*
X006214Y015801D03*
X006207Y015815D03*
X010890Y016410D03*
D199*
X008177Y015773D03*
D200*
X007124Y015773D03*
X010897Y016389D03*
D201*
X010893Y016403D03*
X011908Y016333D03*
X009157Y016333D03*
X006238Y015773D03*
D202*
X008174Y015780D03*
X008174Y015787D03*
X008174Y016347D03*
D203*
X009157Y016326D03*
X007127Y015780D03*
X011908Y016326D03*
D204*
X006231Y015780D03*
D205*
X006819Y015871D03*
X007428Y015871D03*
X007841Y015871D03*
X007834Y016235D03*
X007421Y016256D03*
X008457Y016221D03*
X009430Y016277D03*
X010228Y015787D03*
X010648Y016235D03*
X011019Y016501D03*
X011194Y016277D03*
X011628Y016277D03*
X012181Y016277D03*
X011635Y015836D03*
X005937Y016242D03*
X005930Y016235D03*
D206*
X008170Y015794D03*
D207*
X007124Y016354D03*
X006221Y015794D03*
D208*
X005909Y015920D03*
X005902Y015927D03*
X005902Y016186D03*
X005909Y016200D03*
X006784Y016172D03*
X006791Y016186D03*
X006784Y015941D03*
X006791Y015927D03*
X006791Y015920D03*
X007456Y015920D03*
X007456Y015927D03*
X007463Y015941D03*
X007470Y015955D03*
X007470Y015962D03*
X007470Y016151D03*
X007456Y016186D03*
X007799Y016151D03*
X007799Y016137D03*
X007806Y016165D03*
X007806Y016172D03*
X007799Y015976D03*
X008471Y015955D03*
X008471Y016165D03*
X008471Y016172D03*
X008849Y016235D03*
X009458Y016235D03*
X009465Y016221D03*
X009815Y016221D03*
X009339Y015801D03*
X010634Y016172D03*
X010634Y016186D03*
X011222Y016207D03*
X011222Y016221D03*
X011229Y016172D03*
X011229Y016165D03*
X011600Y016235D03*
X011600Y016242D03*
X012216Y016221D03*
X012216Y016207D03*
X012090Y015801D03*
X013077Y016711D03*
D209*
X011695Y015801D03*
D210*
X010043Y016522D03*
X009791Y015801D03*
D211*
X008167Y015801D03*
X008167Y016326D03*
D212*
X008191Y016396D03*
X007127Y015801D03*
X010914Y016326D03*
D213*
X012104Y015808D03*
X009353Y015808D03*
D214*
X011677Y015808D03*
D215*
X011583Y015913D03*
X011576Y015934D03*
X011569Y015948D03*
X013067Y016599D03*
X013067Y016613D03*
X013067Y016634D03*
X013067Y016648D03*
X010267Y015878D03*
X010267Y015864D03*
X010253Y015808D03*
X008832Y015913D03*
X008818Y015948D03*
X008482Y016039D03*
X008482Y016053D03*
X008482Y016074D03*
D216*
X009780Y015808D03*
D217*
X008926Y015808D03*
X008429Y015843D03*
X007890Y016298D03*
X008079Y016494D03*
X010676Y016284D03*
D218*
X011019Y016473D03*
X010046Y016494D03*
X007925Y015808D03*
X007344Y015808D03*
X006903Y015808D03*
X013182Y016809D03*
D219*
X010260Y015815D03*
X009805Y016242D03*
X008825Y015941D03*
X005885Y016011D03*
X005885Y016025D03*
X005885Y016032D03*
X005885Y016095D03*
X005885Y016102D03*
D220*
X006238Y016501D03*
X006882Y015815D03*
X007365Y015815D03*
X007904Y015815D03*
X007897Y016305D03*
X010046Y016501D03*
X010683Y016291D03*
X013196Y016851D03*
D221*
X012125Y015822D03*
X010235Y016312D03*
X009374Y015822D03*
X006469Y016270D03*
D222*
X006238Y016522D03*
X009157Y016522D03*
X009801Y016291D03*
X009801Y016277D03*
X009801Y016270D03*
X009801Y016256D03*
X010263Y015836D03*
X010263Y015822D03*
X011572Y015941D03*
X011908Y016522D03*
D223*
X013189Y016830D03*
X013189Y016837D03*
X008079Y016487D03*
X006000Y015822D03*
D224*
X009374Y015829D03*
X012125Y015829D03*
D225*
X010263Y015829D03*
X010263Y015843D03*
X009801Y016249D03*
X009801Y016263D03*
X009801Y016284D03*
D226*
X009763Y015829D03*
X011016Y016529D03*
X006473Y015864D03*
D227*
X008419Y015829D03*
D228*
X007880Y015829D03*
X007390Y015829D03*
X006858Y015829D03*
X011177Y016298D03*
X013214Y016879D03*
D229*
X012132Y015836D03*
X009381Y015836D03*
D230*
X009759Y015836D03*
D231*
X010239Y015920D03*
X010652Y016242D03*
X009420Y016291D03*
X008881Y016277D03*
X008881Y015836D03*
X008454Y015885D03*
X008454Y015892D03*
X007852Y015857D03*
X007418Y015857D03*
X007411Y015850D03*
X007411Y016270D03*
X007124Y016515D03*
X006837Y016270D03*
X006830Y016256D03*
X006830Y015857D03*
X006837Y015850D03*
X005941Y015871D03*
X005948Y016256D03*
X007838Y016242D03*
X012171Y016291D03*
X013102Y016732D03*
D232*
X013266Y016921D03*
X011019Y016515D03*
X006462Y015836D03*
D233*
X006826Y015864D03*
X006833Y016263D03*
X007414Y016263D03*
X007428Y016249D03*
X007841Y016249D03*
X008079Y016508D03*
X007848Y015864D03*
X008457Y015899D03*
X008877Y015843D03*
X011628Y015843D03*
X005930Y015878D03*
D234*
X009756Y015843D03*
D235*
X006466Y015843D03*
D236*
X009385Y015850D03*
X009749Y015857D03*
X012136Y015850D03*
D237*
X010270Y015850D03*
D238*
X009752Y015850D03*
D239*
X006469Y015850D03*
X006462Y016277D03*
D240*
X006480Y015906D03*
X009385Y015857D03*
X010260Y016277D03*
X012136Y015857D03*
D241*
X012136Y015864D03*
X006480Y015913D03*
D242*
X006483Y016228D03*
X009745Y015864D03*
D243*
X009388Y015864D03*
D244*
X009441Y016263D03*
X010246Y015913D03*
X010645Y016228D03*
X011205Y016263D03*
X008461Y016214D03*
X007831Y016228D03*
X007439Y016228D03*
X007425Y015864D03*
X007838Y015878D03*
X006816Y015878D03*
X006823Y016249D03*
X005927Y016228D03*
D245*
X009392Y015871D03*
X010267Y016270D03*
X012143Y015871D03*
D246*
X011604Y015871D03*
X011611Y016256D03*
X012206Y016242D03*
X012206Y016235D03*
X009455Y016242D03*
X008860Y016256D03*
X007810Y016186D03*
X007824Y015906D03*
X007446Y015906D03*
X006795Y016200D03*
X006795Y016207D03*
D247*
X009745Y015871D03*
D248*
X010638Y016200D03*
X011212Y016242D03*
X013242Y016907D03*
X008853Y016242D03*
X008468Y016186D03*
X008468Y015941D03*
X008853Y015871D03*
X007817Y015920D03*
X007817Y015927D03*
X007817Y016200D03*
X007453Y016200D03*
X007453Y016207D03*
X005913Y016207D03*
X005913Y015906D03*
D249*
X006473Y015871D03*
D250*
X009392Y015878D03*
X012143Y015878D03*
D251*
X009738Y015878D03*
X006483Y016214D03*
D252*
X006487Y016200D03*
X009392Y015885D03*
X012143Y015885D03*
D253*
X013371Y016732D03*
X010270Y016256D03*
X009738Y015885D03*
D254*
X006480Y015885D03*
D255*
X009738Y015892D03*
D256*
X010253Y016291D03*
X006480Y015892D03*
D257*
X006480Y015899D03*
X010260Y016284D03*
D258*
X010638Y016193D03*
X011212Y016249D03*
X009448Y016249D03*
X008468Y016179D03*
X008468Y015934D03*
X007817Y016193D03*
X007453Y015913D03*
X006802Y016214D03*
X005913Y015913D03*
D259*
X006480Y015920D03*
D260*
X006483Y015927D03*
D261*
X005885Y016018D03*
X005885Y016088D03*
X005885Y016109D03*
X008825Y015934D03*
X009805Y016298D03*
D262*
X006480Y015934D03*
D263*
X006480Y015941D03*
D264*
X009150Y015969D03*
X009150Y015983D03*
X009150Y016004D03*
X009150Y016109D03*
X009150Y016123D03*
X009150Y016144D03*
X011901Y016144D03*
X011901Y016123D03*
X011901Y015983D03*
X011901Y015969D03*
D265*
X011901Y015976D03*
X011901Y015990D03*
X011901Y015997D03*
X011901Y016130D03*
X011901Y016137D03*
X011901Y016151D03*
X009150Y016151D03*
X009150Y016137D03*
X009150Y016130D03*
X009150Y016116D03*
X009150Y016011D03*
X009150Y015997D03*
X009150Y015990D03*
X009150Y015976D03*
D266*
X010144Y015983D03*
D267*
X009147Y016018D03*
X009147Y016039D03*
X009147Y016053D03*
X009147Y016074D03*
X009147Y016088D03*
X011898Y016088D03*
X011898Y016074D03*
X011898Y016053D03*
X011898Y016039D03*
X011898Y016018D03*
X011898Y016004D03*
X011898Y016109D03*
D268*
X011912Y016473D03*
X010113Y016004D03*
X007124Y016473D03*
X006242Y016473D03*
D269*
X009147Y016102D03*
X009147Y016095D03*
X009147Y016081D03*
X009147Y016067D03*
X009147Y016060D03*
X009147Y016046D03*
X009147Y016032D03*
X009147Y016025D03*
X011898Y016025D03*
X011898Y016032D03*
X011898Y016046D03*
X011898Y016060D03*
X011898Y016067D03*
X011898Y016081D03*
X011898Y016095D03*
X011898Y016102D03*
X011898Y016116D03*
X011898Y016011D03*
D270*
X010081Y016032D03*
X009990Y016102D03*
D271*
X009983Y016109D03*
D272*
X009906Y016158D03*
X011019Y016459D03*
X013168Y016753D03*
X008079Y016473D03*
D273*
X006487Y016193D03*
D274*
X009840Y016200D03*
D275*
X006487Y016207D03*
D276*
X006487Y016221D03*
D277*
X005941Y016249D03*
X008454Y016228D03*
X008888Y016284D03*
X009427Y016284D03*
X011191Y016284D03*
X011639Y016284D03*
X012178Y016284D03*
D278*
X008450Y016235D03*
X007855Y016270D03*
D279*
X006483Y016235D03*
D280*
X006483Y016242D03*
D281*
X010274Y016249D03*
D282*
X006480Y016249D03*
D283*
X006473Y016256D03*
D284*
X010270Y016263D03*
D285*
X010046Y016508D03*
X009157Y016508D03*
X008436Y016263D03*
X006238Y016508D03*
X005979Y016284D03*
X011908Y016508D03*
D286*
X006473Y016263D03*
D287*
X009392Y016312D03*
X010673Y016277D03*
X011163Y016305D03*
X012143Y016312D03*
X013207Y016865D03*
D288*
X006455Y016284D03*
D289*
X006452Y016291D03*
D290*
X008412Y016298D03*
X010694Y016298D03*
X013186Y016823D03*
D291*
X007376Y016298D03*
X007124Y016508D03*
D292*
X006872Y016298D03*
D293*
X006007Y016298D03*
D294*
X010239Y016305D03*
D295*
X008405Y016305D03*
X008076Y016480D03*
X013179Y016795D03*
X013179Y016802D03*
D296*
X006221Y016340D03*
X006200Y016312D03*
X006200Y016305D03*
D297*
X011905Y016319D03*
D298*
X010918Y016319D03*
X008188Y016389D03*
D299*
X010046Y016529D03*
X010221Y016319D03*
X011908Y016529D03*
X006238Y016529D03*
D300*
X007124Y016333D03*
X009154Y016319D03*
X010904Y016368D03*
D301*
X008163Y016319D03*
D302*
X009157Y016354D03*
X011908Y016354D03*
X006231Y016354D03*
X006217Y016333D03*
X006203Y016319D03*
D303*
X010207Y016326D03*
D304*
X010008Y016333D03*
X011912Y016424D03*
D305*
X008167Y016333D03*
D306*
X010886Y016417D03*
X011908Y016347D03*
X011908Y016340D03*
D307*
X009157Y016340D03*
X009157Y016347D03*
D308*
X008170Y016340D03*
D309*
X008209Y016431D03*
X007124Y016340D03*
X010897Y016396D03*
D310*
X008174Y016354D03*
D311*
X008177Y016361D03*
D312*
X007124Y016361D03*
D313*
X007124Y016368D03*
X006242Y016368D03*
D314*
X010900Y016382D03*
D315*
X006245Y016382D03*
D316*
X007124Y016389D03*
D317*
X007124Y016403D03*
D318*
X006245Y016403D03*
D319*
X009157Y016445D03*
X011908Y016445D03*
X013077Y016445D03*
X013077Y016452D03*
X013077Y016466D03*
X013077Y016480D03*
X013077Y016487D03*
X013077Y016501D03*
X013077Y016515D03*
X013077Y016522D03*
X013077Y016536D03*
X013077Y016550D03*
X013077Y016557D03*
X013077Y016571D03*
X013077Y016431D03*
X013077Y016417D03*
X013077Y016410D03*
D320*
X007124Y016410D03*
D321*
X010883Y016424D03*
D322*
X011908Y016438D03*
X009157Y016438D03*
D323*
X011016Y016438D03*
D324*
X010060Y016438D03*
D325*
X011019Y016452D03*
D326*
X010053Y016466D03*
D327*
X010053Y016473D03*
D328*
X009157Y016473D03*
D329*
X009157Y016480D03*
X011908Y016480D03*
X006245Y016480D03*
D330*
X010050Y016480D03*
D331*
X007127Y016487D03*
D332*
X008079Y016522D03*
D333*
X007124Y016529D03*
X009154Y016529D03*
D334*
X008079Y016529D03*
D335*
X013168Y016746D03*
X013168Y016760D03*
D336*
X013172Y016767D03*
X013172Y016781D03*
D337*
X013259Y016928D03*
D338*
X032971Y005007D02*
X033298Y005007D01*
X033487Y004844D02*
X033568Y004844D01*
X033568Y004762D01*
X033487Y004762D01*
X033487Y004844D01*
X033744Y004844D02*
X033826Y004762D01*
X033990Y004762D01*
X034071Y004844D01*
X034071Y005007D01*
X033990Y005089D01*
X033908Y005089D01*
X033744Y005007D01*
X033744Y005253D01*
X034071Y005253D01*
X034260Y005253D02*
X034260Y004926D01*
X034423Y004762D01*
X034587Y004926D01*
X034587Y005253D01*
X035291Y005007D02*
X035618Y005007D01*
X036323Y005089D02*
X036486Y005253D01*
X036486Y004762D01*
X036323Y004762D02*
X036650Y004762D01*
X036838Y004844D02*
X036920Y004762D01*
X037083Y004762D01*
X037165Y004844D01*
X037165Y005007D01*
X037083Y005089D01*
X037002Y005089D01*
X036838Y005007D01*
X036838Y005253D01*
X037165Y005253D01*
X037354Y005253D02*
X037354Y004926D01*
X037517Y004762D01*
X037681Y004926D01*
X037681Y005253D01*
X033216Y005253D02*
X033216Y004762D01*
X032971Y005007D02*
X033216Y005253D01*
D339*
X032502Y005661D02*
X032502Y006342D01*
X032499Y005664D02*
X038168Y005664D01*
X038168Y009208D01*
X038175Y009211D02*
X034870Y009211D01*
X034870Y009213D01*
X034969Y010183D02*
X035202Y010183D01*
X035863Y011811D02*
X033855Y011811D01*
X033855Y018740D01*
X035863Y018740D01*
X035863Y011811D01*
X037449Y010183D02*
X037683Y010183D01*
X037566Y010067D02*
X037566Y010300D01*
X033058Y009215D02*
X032502Y009215D01*
X032502Y009213D02*
X032502Y008331D01*
X032505Y009213D02*
X032502Y009213D01*
X032500Y005661D02*
X032502Y005661D01*
X032621Y004471D02*
X033723Y004471D01*
X031912Y004471D02*
X030810Y004471D01*
X030101Y004471D02*
X028999Y004471D01*
X028290Y004471D02*
X027188Y004471D01*
X026479Y004471D02*
X025377Y004471D01*
X024668Y004471D02*
X023566Y004471D01*
X022857Y004471D02*
X021755Y004471D01*
X021046Y004471D02*
X019944Y004471D01*
X019235Y004471D02*
X018133Y004471D01*
X017424Y004471D02*
X016322Y004471D01*
X015613Y004471D02*
X014511Y004471D01*
X013802Y004471D02*
X012700Y004471D01*
X011991Y004471D02*
X010889Y004471D01*
X010180Y004471D02*
X009078Y004471D01*
X008369Y004471D02*
X007267Y004471D01*
X006519Y004471D02*
X005416Y004471D01*
X005416Y002345D02*
X006519Y002345D01*
X007267Y002345D02*
X008369Y002345D01*
X009078Y002345D02*
X010180Y002345D01*
X010889Y002345D02*
X011991Y002345D01*
X012700Y002345D02*
X013802Y002345D01*
X014511Y002345D02*
X015613Y002345D01*
X016322Y002345D02*
X017424Y002345D01*
X018133Y002345D02*
X019235Y002345D01*
X019944Y002345D02*
X021046Y002345D01*
X021755Y002345D02*
X022857Y002345D01*
X023566Y002345D02*
X024668Y002345D01*
X025377Y002345D02*
X026479Y002345D01*
X027188Y002345D02*
X028290Y002345D01*
X028999Y002345D02*
X030101Y002345D01*
X030810Y002345D02*
X031912Y002345D01*
X032621Y002345D02*
X033723Y002345D01*
X035612Y015039D02*
X035612Y015506D01*
X035848Y015506D01*
X035844Y015040D02*
X035844Y015039D01*
X035612Y015039D01*
X038349Y019786D02*
X038349Y022621D01*
X030948Y023566D02*
X029845Y023566D01*
X029156Y023566D02*
X028054Y023566D01*
X027365Y023566D02*
X026263Y023566D01*
X025574Y023566D02*
X024471Y023566D01*
X023782Y023566D02*
X022680Y023566D01*
X022680Y021440D02*
X023782Y021440D01*
X024471Y021440D02*
X025574Y021440D01*
X026263Y021440D02*
X027365Y021440D01*
X028054Y021440D02*
X029156Y021440D01*
X029845Y021440D02*
X030948Y021440D01*
X007267Y021538D02*
X007267Y020436D01*
X007267Y020042D02*
X007267Y018940D01*
X007267Y018546D02*
X007267Y017444D01*
X007267Y017030D02*
X007267Y015928D01*
X005141Y015928D02*
X005141Y017030D01*
X005141Y017444D02*
X005141Y018546D01*
X005141Y018940D02*
X005141Y020042D01*
X005141Y020436D02*
X005141Y021538D01*
X005141Y021932D02*
X005141Y023034D01*
X005141Y023428D02*
X005141Y024530D01*
X005141Y024924D02*
X005141Y026026D01*
X007267Y026026D02*
X007267Y024924D01*
X007267Y024530D02*
X007267Y023428D01*
X007267Y023034D02*
X007267Y021932D01*
D340*
X008501Y019168D02*
X008503Y019217D01*
X008509Y019265D01*
X008519Y019313D01*
X008533Y019360D01*
X008550Y019406D01*
X008571Y019450D01*
X008596Y019492D01*
X008624Y019532D01*
X008656Y019570D01*
X008690Y019605D01*
X008727Y019637D01*
X008766Y019666D01*
X008808Y019692D01*
X008852Y019714D01*
X008897Y019732D01*
X008944Y019747D01*
X008991Y019758D01*
X009040Y019765D01*
X009089Y019768D01*
X009138Y019767D01*
X009186Y019762D01*
X009235Y019753D01*
X009282Y019740D01*
X009328Y019723D01*
X009372Y019703D01*
X009415Y019679D01*
X009456Y019652D01*
X009494Y019621D01*
X009530Y019588D01*
X009562Y019552D01*
X009592Y019513D01*
X009619Y019472D01*
X009642Y019428D01*
X009661Y019383D01*
X009677Y019337D01*
X009689Y019290D01*
X009697Y019241D01*
X009701Y019192D01*
X009701Y019144D01*
X009697Y019095D01*
X009689Y019046D01*
X009677Y018999D01*
X009661Y018953D01*
X009642Y018908D01*
X009619Y018864D01*
X009592Y018823D01*
X009562Y018784D01*
X009530Y018748D01*
X009494Y018715D01*
X009456Y018684D01*
X009415Y018657D01*
X009372Y018633D01*
X009328Y018613D01*
X009282Y018596D01*
X009235Y018583D01*
X009186Y018574D01*
X009138Y018569D01*
X009089Y018568D01*
X009040Y018571D01*
X008991Y018578D01*
X008944Y018589D01*
X008897Y018604D01*
X008852Y018622D01*
X008808Y018644D01*
X008766Y018670D01*
X008727Y018699D01*
X008690Y018731D01*
X008656Y018766D01*
X008624Y018804D01*
X008596Y018844D01*
X008571Y018886D01*
X008550Y018930D01*
X008533Y018976D01*
X008519Y019023D01*
X008509Y019071D01*
X008503Y019119D01*
X008501Y019168D01*
X010062Y016806D02*
X010064Y016827D01*
X010070Y016847D01*
X010079Y016867D01*
X010091Y016884D01*
X010106Y016898D01*
X010124Y016910D01*
X010144Y016918D01*
X010164Y016923D01*
X010185Y016924D01*
X010206Y016921D01*
X010226Y016915D01*
X010245Y016904D01*
X010262Y016891D01*
X010275Y016875D01*
X010286Y016857D01*
X010294Y016837D01*
X010298Y016817D01*
X010298Y016795D01*
X010294Y016775D01*
X010286Y016755D01*
X010275Y016737D01*
X010262Y016721D01*
X010245Y016708D01*
X010226Y016697D01*
X010206Y016691D01*
X010185Y016688D01*
X010164Y016689D01*
X010144Y016694D01*
X010124Y016702D01*
X010106Y016714D01*
X010091Y016728D01*
X010079Y016745D01*
X010070Y016765D01*
X010064Y016785D01*
X010062Y016806D01*
X010062Y012239D02*
X010064Y012260D01*
X010070Y012280D01*
X010079Y012300D01*
X010091Y012317D01*
X010106Y012331D01*
X010124Y012343D01*
X010144Y012351D01*
X010164Y012356D01*
X010185Y012357D01*
X010206Y012354D01*
X010226Y012348D01*
X010245Y012337D01*
X010262Y012324D01*
X010275Y012308D01*
X010286Y012290D01*
X010294Y012270D01*
X010298Y012250D01*
X010298Y012228D01*
X010294Y012208D01*
X010286Y012188D01*
X010275Y012170D01*
X010262Y012154D01*
X010245Y012141D01*
X010226Y012130D01*
X010206Y012124D01*
X010185Y012121D01*
X010164Y012122D01*
X010144Y012127D01*
X010124Y012135D01*
X010106Y012147D01*
X010091Y012161D01*
X010079Y012178D01*
X010070Y012198D01*
X010064Y012218D01*
X010062Y012239D01*
X008501Y009877D02*
X008503Y009926D01*
X008509Y009974D01*
X008519Y010022D01*
X008533Y010069D01*
X008550Y010115D01*
X008571Y010159D01*
X008596Y010201D01*
X008624Y010241D01*
X008656Y010279D01*
X008690Y010314D01*
X008727Y010346D01*
X008766Y010375D01*
X008808Y010401D01*
X008852Y010423D01*
X008897Y010441D01*
X008944Y010456D01*
X008991Y010467D01*
X009040Y010474D01*
X009089Y010477D01*
X009138Y010476D01*
X009186Y010471D01*
X009235Y010462D01*
X009282Y010449D01*
X009328Y010432D01*
X009372Y010412D01*
X009415Y010388D01*
X009456Y010361D01*
X009494Y010330D01*
X009530Y010297D01*
X009562Y010261D01*
X009592Y010222D01*
X009619Y010181D01*
X009642Y010137D01*
X009661Y010092D01*
X009677Y010046D01*
X009689Y009999D01*
X009697Y009950D01*
X009701Y009901D01*
X009701Y009853D01*
X009697Y009804D01*
X009689Y009755D01*
X009677Y009708D01*
X009661Y009662D01*
X009642Y009617D01*
X009619Y009573D01*
X009592Y009532D01*
X009562Y009493D01*
X009530Y009457D01*
X009494Y009424D01*
X009456Y009393D01*
X009415Y009366D01*
X009372Y009342D01*
X009328Y009322D01*
X009282Y009305D01*
X009235Y009292D01*
X009186Y009283D01*
X009138Y009278D01*
X009089Y009277D01*
X009040Y009280D01*
X008991Y009287D01*
X008944Y009298D01*
X008897Y009313D01*
X008852Y009331D01*
X008808Y009353D01*
X008766Y009379D01*
X008727Y009408D01*
X008690Y009440D01*
X008656Y009475D01*
X008624Y009513D01*
X008596Y009553D01*
X008571Y009595D01*
X008550Y009639D01*
X008533Y009685D01*
X008519Y009732D01*
X008509Y009780D01*
X008503Y009828D01*
X008501Y009877D01*
X030841Y024452D02*
X030843Y024483D01*
X030849Y024514D01*
X030858Y024544D01*
X030871Y024573D01*
X030888Y024600D01*
X030908Y024624D01*
X030930Y024646D01*
X030956Y024665D01*
X030983Y024681D01*
X031012Y024693D01*
X031042Y024702D01*
X031073Y024707D01*
X031105Y024708D01*
X031136Y024705D01*
X031167Y024698D01*
X031197Y024688D01*
X031225Y024674D01*
X031251Y024656D01*
X031275Y024636D01*
X031296Y024612D01*
X031315Y024587D01*
X031330Y024559D01*
X031341Y024530D01*
X031349Y024499D01*
X031353Y024468D01*
X031353Y024436D01*
X031349Y024405D01*
X031341Y024374D01*
X031330Y024345D01*
X031315Y024317D01*
X031296Y024292D01*
X031275Y024268D01*
X031251Y024248D01*
X031225Y024230D01*
X031197Y024216D01*
X031167Y024206D01*
X031136Y024199D01*
X031105Y024196D01*
X031073Y024197D01*
X031042Y024202D01*
X031012Y024211D01*
X030983Y024223D01*
X030956Y024239D01*
X030930Y024258D01*
X030908Y024280D01*
X030888Y024304D01*
X030871Y024331D01*
X030858Y024360D01*
X030849Y024390D01*
X030843Y024421D01*
X030841Y024452D01*
X033597Y024452D02*
X033599Y024483D01*
X033605Y024514D01*
X033614Y024544D01*
X033627Y024573D01*
X033644Y024600D01*
X033664Y024624D01*
X033686Y024646D01*
X033712Y024665D01*
X033739Y024681D01*
X033768Y024693D01*
X033798Y024702D01*
X033829Y024707D01*
X033861Y024708D01*
X033892Y024705D01*
X033923Y024698D01*
X033953Y024688D01*
X033981Y024674D01*
X034007Y024656D01*
X034031Y024636D01*
X034052Y024612D01*
X034071Y024587D01*
X034086Y024559D01*
X034097Y024530D01*
X034105Y024499D01*
X034109Y024468D01*
X034109Y024436D01*
X034105Y024405D01*
X034097Y024374D01*
X034086Y024345D01*
X034071Y024317D01*
X034052Y024292D01*
X034031Y024268D01*
X034007Y024248D01*
X033981Y024230D01*
X033953Y024216D01*
X033923Y024206D01*
X033892Y024199D01*
X033861Y024196D01*
X033829Y024197D01*
X033798Y024202D01*
X033768Y024211D01*
X033739Y024223D01*
X033712Y024239D01*
X033686Y024258D01*
X033664Y024280D01*
X033644Y024304D01*
X033627Y024331D01*
X033614Y024360D01*
X033605Y024390D01*
X033599Y024421D01*
X033597Y024452D01*
D341*
X036084Y012028D03*
D342*
X030785Y025046D02*
X030861Y025123D01*
X030861Y025430D01*
X030785Y025507D01*
X030631Y025507D01*
X030555Y025430D01*
X030555Y025353D01*
X030631Y025277D01*
X030861Y025277D01*
X030785Y025046D02*
X030631Y025046D01*
X030555Y025123D01*
X030401Y025123D02*
X030401Y025200D01*
X030324Y025277D01*
X030171Y025277D01*
X030094Y025353D01*
X030094Y025430D01*
X030171Y025507D01*
X030324Y025507D01*
X030401Y025430D01*
X030248Y025584D02*
X030248Y024970D01*
X030324Y025046D02*
X030401Y025123D01*
X030324Y025046D02*
X030171Y025046D01*
X030094Y025123D01*
X029941Y025123D02*
X029941Y025507D01*
X029634Y025507D02*
X029634Y025123D01*
X029711Y025046D01*
X029864Y025046D01*
X029941Y025123D01*
D343*
X029430Y025128D02*
X029183Y025128D01*
X029307Y025005D02*
X029307Y025252D01*
X027855Y025128D02*
X027608Y025128D01*
X027732Y025005D02*
X027732Y025252D01*
X026280Y025128D02*
X026034Y025128D01*
X026157Y025005D02*
X026157Y025252D01*
X024706Y025128D02*
X024459Y025128D01*
X024582Y025005D02*
X024582Y025252D01*
X023131Y025128D02*
X022884Y025128D01*
X023007Y025005D02*
X023007Y025252D01*
X030153Y016162D02*
X030153Y015915D01*
X030030Y016039D02*
X030277Y016039D01*
X030561Y001518D02*
X030561Y001272D01*
X030438Y001395D02*
X030684Y001395D01*
X032249Y001395D02*
X032495Y001395D01*
X032372Y001272D02*
X032372Y001518D01*
X028873Y001395D02*
X028626Y001395D01*
X028750Y001272D02*
X028750Y001518D01*
X027062Y001395D02*
X026815Y001395D01*
X026939Y001272D02*
X026939Y001518D01*
X025251Y001395D02*
X025004Y001395D01*
X025128Y001272D02*
X025128Y001518D01*
X023440Y001395D02*
X023193Y001395D01*
X023317Y001272D02*
X023317Y001518D01*
X021629Y001395D02*
X021382Y001395D01*
X021506Y001272D02*
X021506Y001518D01*
X019818Y001395D02*
X019571Y001395D01*
X019695Y001272D02*
X019695Y001518D01*
X018007Y001395D02*
X017760Y001395D01*
X017884Y001272D02*
X017884Y001518D01*
X016196Y001395D02*
X015949Y001395D01*
X016073Y001272D02*
X016073Y001518D01*
X014385Y001395D02*
X014138Y001395D01*
X014262Y001272D02*
X014262Y001518D01*
X012574Y001395D02*
X012327Y001395D01*
X012451Y001272D02*
X012451Y001518D01*
X010763Y001395D02*
X010516Y001395D01*
X010640Y001272D02*
X010640Y001518D01*
X008952Y001395D02*
X008705Y001395D01*
X008829Y001272D02*
X008829Y001518D01*
X007141Y001395D02*
X006894Y001395D01*
X007018Y001272D02*
X007018Y001518D01*
X005330Y001395D02*
X005083Y001395D01*
X005207Y001272D02*
X005207Y001518D01*
X003145Y016742D02*
X003145Y016989D01*
X003022Y016866D02*
X003269Y016866D01*
X003145Y017608D02*
X003145Y017855D01*
X003022Y017732D02*
X003269Y017732D01*
X003145Y018475D02*
X003145Y018721D01*
X003022Y018598D02*
X003269Y018598D01*
X003145Y019341D02*
X003145Y019588D01*
X003022Y019464D02*
X003269Y019464D01*
X003145Y020207D02*
X003145Y020454D01*
X003022Y020330D02*
X003269Y020330D01*
X003145Y021073D02*
X003145Y021320D01*
X003022Y021196D02*
X003269Y021196D01*
X003145Y021939D02*
X003145Y022186D01*
X003022Y022063D02*
X003269Y022063D01*
D344*
X002286Y022188D03*
X002286Y021794D03*
X002286Y021322D03*
X002286Y020928D03*
X002286Y020456D03*
X002286Y020062D03*
X002286Y019589D03*
X002286Y019196D03*
X002286Y018723D03*
X002286Y018330D03*
X002286Y017857D03*
X002286Y017463D03*
X002286Y016991D03*
X002286Y022660D03*
X029294Y016637D03*
X029294Y016164D03*
X029609Y001361D03*
X029609Y000889D03*
X027798Y000889D03*
X027798Y001361D03*
X025987Y001361D03*
X025987Y000889D03*
X024176Y000889D03*
X024176Y001361D03*
X022365Y001361D03*
X022365Y000889D03*
X020554Y000889D03*
X020554Y001361D03*
X018743Y001361D03*
X018743Y000889D03*
X016932Y000889D03*
X016932Y001361D03*
X015121Y001361D03*
X015121Y000889D03*
X013310Y000889D03*
X013310Y001361D03*
X011499Y001361D03*
X011499Y000889D03*
X009688Y000889D03*
X009688Y001361D03*
X007877Y001361D03*
X007877Y000889D03*
X006066Y000889D03*
X006066Y001361D03*
X031420Y001361D03*
X031420Y000889D03*
X033231Y000889D03*
X033231Y001361D03*
D345*
X033231Y001125D03*
X031420Y001125D03*
X029609Y001125D03*
X027798Y001125D03*
X025987Y001125D03*
X024176Y001125D03*
X022365Y001125D03*
X020554Y001125D03*
X018743Y001125D03*
X016932Y001125D03*
X015121Y001125D03*
X013310Y001125D03*
X011499Y001125D03*
X009688Y001125D03*
X007877Y001125D03*
X006066Y001125D03*
X002286Y017227D03*
X002286Y018093D03*
X002286Y018960D03*
X002286Y019826D03*
X002286Y020692D03*
X002286Y021558D03*
X002286Y022424D03*
X023369Y025987D03*
X024944Y025987D03*
X026519Y025987D03*
X028093Y025987D03*
X029668Y025987D03*
X029294Y016400D03*
D346*
X029432Y025987D03*
X029904Y025987D03*
X028330Y025987D03*
X027857Y025987D03*
X026755Y025987D03*
X026282Y025987D03*
X025180Y025987D03*
X024708Y025987D03*
X023605Y025987D03*
X023133Y025987D03*
M02*
