  0
SECTION
  2
HEADER
  9
$ACADVER
  1
AC1009
  9
$FILLMODE
 70
0
  9
$EXTMIN
 10
29.3865
 20
3.1245
 30
0.0000
  9
$EXTMAX
 10
59.5135
 20
53.2515
 30
0.0000
  0
ENDSEC
  0
SECTION
  2
TABLES
  0
TABLE
  2
LTYPE
 70
1
  0
LTYPE
  2
CONTINUOUS
 70
64
  3
Solid line
 72
65
 73
0
 40
0
  0
ENDTAB
  0
TABLE
  2
LAYER
 70
255
  0
LAYER
  2
1
 70
64
 62
22
  6
CONTINUOUS
  0
LAYER
  2
16
 70
64
 62
175
  6
CONTINUOUS
  0
LAYER
  2
17
 70
64
 62
82
  6
CONTINUOUS
  0
LAYER
  2
18
 70
64
 62
82
  6
CONTINUOUS
  0
LAYER
  2
19
 70
64
 62
53
  6
CONTINUOUS
  0
LAYER
  2
20
 70
64
 62
7
  6
CONTINUOUS
  0
LAYER
  2
21
 70
64
 62
253
  6
CONTINUOUS
  0
LAYER
  2
22
 70
64
 62
253
  6
CONTINUOUS
  0
LAYER
  2
23
 70
64
 62
7
  6
CONTINUOUS
  0
LAYER
  2
24
 70
64
 62
7
  6
CONTINUOUS
  0
LAYER
  2
25
 70
64
 62
253
  6
CONTINUOUS
  0
LAYER
  2
26
 70
64
 62
253
  6
CONTINUOUS
  0
LAYER
  2
27
 70
64
 62
253
  6
CONTINUOUS
  0
LAYER
  2
28
 70
64
 62
253
  6
CONTINUOUS
  0
LAYER
  2
39
 70
64
 62
22
  6
CONTINUOUS
  0
LAYER
  2
40
 70
64
 62
175
  6
CONTINUOUS
  0
LAYER
  2
41
 70
64
 62
22
  6
CONTINUOUS
  0
LAYER
  2
42
 70
64
 62
175
  6
CONTINUOUS
  0
LAYER
  2
43
 70
64
 62
82
  6
CONTINUOUS
  0
LAYER
  2
48
 70
64
 62
253
  6
CONTINUOUS
  0
LAYER
  2
49
 70
64
 62
253
  6
CONTINUOUS
  0
LAYER
  2
50
 70
64
 62
253
  6
CONTINUOUS
  0
LAYER
  2
51
 70
64
 62
253
  6
CONTINUOUS
  0
LAYER
  2
52
 70
64
 62
253
  6
CONTINUOUS
  0
LAYER
  2
53
 70
64
 62
253
  6
CONTINUOUS
  0
LAYER
  2
54
 70
64
 62
253
  6
CONTINUOUS
  0
LAYER
  2
56
 70
64
 62
253
  6
CONTINUOUS
  0
LAYER
  2
100
 70
64
 62
253
  6
CONTINUOUS
  0
LAYER
  2
101
 70
64
 62
253
  6
CONTINUOUS
  0
LAYER
  2
102
 70
64
 62
253
  6
CONTINUOUS
  0
LAYER
  2
103
 70
64
 62
253
  6
CONTINUOUS
  0
LAYER
  2
104
 70
64
 62
253
  6
CONTINUOUS
  0
LAYER
  2
105
 70
64
 62
253
  6
CONTINUOUS
  0
LAYER
  2
106
 70
64
 62
253
  6
CONTINUOUS
  0
LAYER
  2
107
 70
64
 62
253
  6
CONTINUOUS
  0
LAYER
  2
108
 70
64
 62
253
  6
CONTINUOUS
  0
LAYER
  2
109
 70
64
 62
253
  6
CONTINUOUS
  0
LAYER
  2
110
 70
64
 62
253
  6
CONTINUOUS
  0
LAYER
  2
111
 70
64
 62
253
  6
CONTINUOUS
  0
LAYER
  2
112
 70
64
 62
253
  6
CONTINUOUS
  0
LAYER
  2
116
 70
64
 62
253
  6
CONTINUOUS
  0
LAYER
  2
118
 70
64
 62
22
  6
CONTINUOUS
  0
LAYER
  2
121
 70
64
 62
253
  6
CONTINUOUS
  0
LAYER
  2
122
 70
64
 62
253
  6
CONTINUOUS
  0
LAYER
  2
123
 70
64
 62
253
  6
CONTINUOUS
  0
LAYER
  2
124
 70
64
 62
253
  6
CONTINUOUS
  0
LAYER
  2
125
 70
64
 62
253
  6
CONTINUOUS
  0
LAYER
  2
126
 70
64
 62
253
  6
CONTINUOUS
  0
LAYER
  2
127
 70
64
 62
253
  6
CONTINUOUS
  0
LAYER
  2
128
 70
64
 62
253
  6
CONTINUOUS
  0
LAYER
  2
131
 70
64
 62
253
  6
CONTINUOUS
  0
LAYER
  2
132
 70
64
 62
253
  6
CONTINUOUS
  0
LAYER
  2
144
 70
64
 62
253
  6
CONTINUOUS
  0
LAYER
  2
150
 70
64
 62
253
  6
CONTINUOUS
  0
LAYER
  2
151
 70
64
 62
253
  6
CONTINUOUS
  0
LAYER
  2
152
 70
64
 62
253
  6
CONTINUOUS
  0
LAYER
  2
199
 70
64
 62
253
  6
CONTINUOUS
  0
LAYER
  2
200
 70
64
 62
253
  6
CONTINUOUS
  0
LAYER
  2
201
 70
64
 62
253
  6
CONTINUOUS
  0
LAYER
  2
202
 70
64
 62
253
  6
CONTINUOUS
  0
LAYER
  2
203
 70
64
 62
253
  6
CONTINUOUS
  0
LAYER
  2
204
 70
64
 62
253
  6
CONTINUOUS
  0
LAYER
  2
205
 70
64
 62
253
  6
CONTINUOUS
  0
LAYER
  2
206
 70
64
 62
253
  6
CONTINUOUS
  0
LAYER
  2
207
 70
64
 62
253
  6
CONTINUOUS
  0
LAYER
  2
208
 70
64
 62
253
  6
CONTINUOUS
  0
LAYER
  2
209
 70
64
 62
253
  6
CONTINUOUS
  0
LAYER
  2
210
 70
64
 62
253
  6
CONTINUOUS
  0
LAYER
  2
211
 70
64
 62
253
  6
CONTINUOUS
  0
LAYER
  2
212
 70
64
 62
253
  6
CONTINUOUS
  0
LAYER
  2
213
 70
64
 62
253
  6
CONTINUOUS
  0
LAYER
  2
214
 70
64
 62
253
  6
CONTINUOUS
  0
LAYER
  2
215
 70
64
 62
253
  6
CONTINUOUS
  0
LAYER
  2
216
 70
64
 62
253
  6
CONTINUOUS
  0
LAYER
  2
217
 70
64
 62
253
  6
CONTINUOUS
  0
LAYER
  2
218
 70
64
 62
253
  6
CONTINUOUS
  0
LAYER
  2
219
 70
64
 62
253
  6
CONTINUOUS
  0
LAYER
  2
220
 70
64
 62
253
  6
CONTINUOUS
  0
LAYER
  2
221
 70
64
 62
253
  6
CONTINUOUS
  0
LAYER
  2
222
 70
64
 62
253
  6
CONTINUOUS
  0
LAYER
  2
223
 70
64
 62
253
  6
CONTINUOUS
  0
LAYER
  2
224
 70
64
 62
253
  6
CONTINUOUS
  0
LAYER
  2
248
 70
64
 62
253
  6
CONTINUOUS
  0
LAYER
  2
249
 70
64
 62
253
  6
CONTINUOUS
  0
LAYER
  2
250
 70
64
 62
253
  6
CONTINUOUS
  0
LAYER
  2
251
 70
64
 62
253
  6
CONTINUOUS
  0
LAYER
  2
254
 70
64
 62
253
  6
CONTINUOUS
  0
LAYER
  2
255
 70
64
 62
253
  6
CONTINUOUS
  0
ENDTAB
  0
ENDSEC
  0
SECTION
  2
BLOCKS
  0
BLOCK
  8
0
  2
RECT
 70
64
 10
0.0000
 20
0.0000
 30
0.0000
  3
RECT
  0
SOLID
  8
0
 10
-0.5000
 20
-0.5000
 30
0.0000
 11
0.5000
 21
-0.5000
 31
0.0000
 12
-0.5000
 22
0.5000
 32
0.0000
 13
0.5000
 23
0.5000
 33
0.0000
  0
ENDBLK
  8
0
  0
BLOCK
  8
0
  2
PIE
 70
64
 10
0.0000
 20
0.0000
 30
0.0000
  3
PIE
  0
CIRCLE
  8
0
 10
0.0000
 20
0.0000
 30
0.0000
 40
0.5000
  0
ENDBLK
  8
0
  0
BLOCK
  8
0
  2
OCTAGONP
 70
64
 10
0.0000
 20
0.0000
 30
0.0000
  3
OCTAGONP
  0
POLYLINE
  8
0
 66
1
 10
0.0000
 20
0.0000
 30
0.0000
 40
0.0000
 41
0.0000
 70
1
  0
VERTEX
  8
0
 10
-0.5000
 20
-0.2071
 30
0.0000
  0
VERTEX
  8
0
 10
-0.5000
 20
0.2071
 30
0.0000
  0
VERTEX
  8
0
 10
-0.2071
 20
0.5000
 30
0.0000
  0
VERTEX
  8
0
 10
0.2071
 20
0.5000
 30
0.0000
  0
VERTEX
  8
0
 10
0.5000
 20
0.2071
 30
0.0000
  0
VERTEX
  8
0
 10
0.5000
 20
-0.2071
 30
0.0000
  0
VERTEX
  8
0
 10
0.2071
 20
-0.5000
 30
0.0000
  0
VERTEX
  8
0
 10
-0.2071
 20
-0.5000
 30
0.0000
  0
SEQEND
  8
0
  0
ENDBLK
  8
0
  0
BLOCK
  8
0
  2
SQUAREP
 70
64
 10
0.0000
 20
0.0000
 30
0.0000
  3
SQUAREP
  0
SOLID
  8
0
 10
-0.5000
 20
-0.5000
 30
0.0000
 11
0.5000
 21
-0.5000
 31
0.0000
 12
-0.5000
 22
0.5000
 32
0.0000
 13
0.5000
 23
0.5000
 33
0.0000
  0
ENDBLK
  8
0
  0
BLOCK
  8
0
  2
ROUNDP
 70
64
 10
0.0000
 20
0.0000
 30
0.0000
  3
ROUNDP
  0
CIRCLE
  8
0
 10
0.0000
 20
0.0000
 30
0.0000
 40
0.5000
  0
ENDBLK
  8
0
  0
BLOCK
  8
0
  2
ANNULUSP
 70
64
 10
0.0000
 20
0.0000
 30
0.0000
  3
ANNULUSP
  0
CIRCLE
  8
0
 10
0.0000
 20
0.0000
 30
0.0000
 40
0.5000
  0
ENDBLK
  8
0
  0
BLOCK
  8
0
  2
THERMALP
 70
64
 10
0.0000
 20
0.0000
 30
0.0000
  3
THERMALP
  0
LINE
  8
0
 10
-0.2379
 20
0.4500
 30
0.0000
 11
0.2379
 21
0.4500
 31
0.0000
  0
LINE
  8
0
 10
0.4500
 20
0.2379
 30
0.0000
 11
0.4500
 21
-0.2379
 31
0.0000
  0
LINE
  8
0
 10
0.2379
 20
-0.4500
 30
0.0000
 11
-0.2379
 21
-0.4500
 31
0.0000
  0
LINE
  8
0
 10
-0.4500
 20
-0.2379
 30
0.0000
 11
-0.4500
 21
0.2379
 31
0.0000
  0
ENDBLK
  8
0
  0
BLOCK
  8
0
  2
OCTAGONV
 70
64
 10
0.0000
 20
0.0000
 30
0.0000
  3
OCTAGONV
  0
POLYLINE
  8
0
 66
1
 10
0.0000
 20
0.0000
 30
0.0000
 40
0.0000
 41
0.0000
 70
1
  0
VERTEX
  8
0
 10
-0.5000
 20
-0.2071
 30
0.0000
  0
VERTEX
  8
0
 10
-0.5000
 20
0.2071
 30
0.0000
  0
VERTEX
  8
0
 10
-0.2071
 20
0.5000
 30
0.0000
  0
VERTEX
  8
0
 10
0.2071
 20
0.5000
 30
0.0000
  0
VERTEX
  8
0
 10
0.5000
 20
0.2071
 30
0.0000
  0
VERTEX
  8
0
 10
0.5000
 20
-0.2071
 30
0.0000
  0
VERTEX
  8
0
 10
0.2071
 20
-0.5000
 30
0.0000
  0
VERTEX
  8
0
 10
-0.2071
 20
-0.5000
 30
0.0000
  0
SEQEND
  8
0
  0
ENDBLK
  8
0
  0
BLOCK
  8
0
  2
SQUAREV
 70
64
 10
0.0000
 20
0.0000
 30
0.0000
  3
SQUAREV
  0
SOLID
  8
0
 10
-0.5000
 20
-0.5000
 30
0.0000
 11
0.5000
 21
-0.5000
 31
0.0000
 12
-0.5000
 22
0.5000
 32
0.0000
 13
0.5000
 23
0.5000
 33
0.0000
  0
ENDBLK
  8
0
  0
BLOCK
  8
0
  2
ROUNDV
 70
64
 10
0.0000
 20
0.0000
 30
0.0000
  3
ROUNDV
  0
CIRCLE
  8
0
 10
0.0000
 20
0.0000
 30
0.0000
 40
0.5000
  0
ENDBLK
  8
0
  0
BLOCK
  8
0
  2
ANNULUSV
 70
64
 10
0.0000
 20
0.0000
 30
0.0000
  3
ANNULUSV
  0
CIRCLE
  8
0
 10
0.0000
 20
0.0000
 30
0.0000
 40
0.5000
  0
ENDBLK
  8
0
  0
BLOCK
  8
0
  2
THERMALV
 70
64
 10
0.0000
 20
0.0000
 30
0.0000
  3
THERMALV
  0
LINE
  8
0
 10
-0.2379
 20
0.4500
 30
0.0000
 11
0.2379
 21
0.4500
 31
0.0000
  0
LINE
  8
0
 10
0.4500
 20
0.2379
 30
0.0000
 11
0.4500
 21
-0.2379
 31
0.0000
  0
LINE
  8
0
 10
0.2379
 20
-0.4500
 30
0.0000
 11
-0.2379
 21
-0.4500
 31
0.0000
  0
LINE
  8
0
 10
-0.4500
 20
-0.2379
 30
0.0000
 11
-0.4500
 21
0.2379
 31
0.0000
  0
ENDBLK
  8
0
  0
ENDSEC
  0
SECTION
  2
ENTITIES
  0
POINT
  8
23
 10
44.4500
 20
45.7200
 30
0.0000
  0
LINE
  8
41
 10
38.5191
 20
46.5821
 30
0.0000
 11
50.3635
 21
46.5821
 31
0.0000
  0
LINE
  8
41
 10
50.3635
 20
46.5821
 30
0.0000
 11
50.3635
 21
44.8927
 31
0.0000
  0
LINE
  8
41
 10
50.3635
 20
44.8927
 30
0.0000
 11
38.5203
 21
44.8927
 31
0.0000
  0
LINE
  8
41
 10
38.5203
 20
44.8927
 30
0.0000
 11
38.5203
 21
46.5812
 31
0.0000
  0
LINE
  8
41
 10
38.5203
 20
46.5812
 30
0.0000
 11
38.5191
 21
46.5821
 31
0.0000
  0
LINE
  8
41
 10
38.5203
 20
44.9580
 30
0.0000
 11
50.3635
 21
44.9580
 31
0.0000
  0
LINE
  8
41
 10
38.5203
 20
45.0850
 30
0.0000
 11
50.3635
 21
45.0850
 31
0.0000
  0
LINE
  8
41
 10
38.5203
 20
45.2120
 30
0.0000
 11
50.3635
 21
45.2120
 31
0.0000
  0
LINE
  8
41
 10
38.5203
 20
45.3390
 30
0.0000
 11
50.3635
 21
45.3390
 31
0.0000
  0
LINE
  8
41
 10
38.5203
 20
45.4660
 30
0.0000
 11
50.3635
 21
45.4660
 31
0.0000
  0
LINE
  8
41
 10
38.5203
 20
45.5930
 30
0.0000
 11
50.3635
 21
45.5930
 31
0.0000
  0
LINE
  8
41
 10
38.5203
 20
45.7200
 30
0.0000
 11
50.3635
 21
45.7200
 31
0.0000
  0
LINE
  8
41
 10
38.5203
 20
45.8470
 30
0.0000
 11
50.3635
 21
45.8470
 31
0.0000
  0
LINE
  8
41
 10
38.5203
 20
45.9740
 30
0.0000
 11
50.3635
 21
45.9740
 31
0.0000
  0
LINE
  8
41
 10
38.5203
 20
46.1010
 30
0.0000
 11
50.3635
 21
46.1010
 31
0.0000
  0
LINE
  8
41
 10
38.5203
 20
46.2280
 30
0.0000
 11
50.3635
 21
46.2280
 31
0.0000
  0
LINE
  8
41
 10
38.5203
 20
46.3550
 30
0.0000
 11
50.3635
 21
46.3550
 31
0.0000
  0
LINE
  8
41
 10
38.5203
 20
46.4820
 30
0.0000
 11
50.3635
 21
46.4820
 31
0.0000
  0
LINE
  8
21
 10
29.4500
 20
53.1880
 30
0.0000
 11
29.4500
 21
10.1880
 31
0.0000
  0
LINE
  8
21
 10
29.4500
 20
10.1880
 30
0.0000
 11
29.4500
 21
3.1880
 31
0.0000
  0
LINE
  8
21
 10
29.4500
 20
3.1880
 30
0.0000
 11
59.4500
 21
3.1880
 31
0.0000
  0
LINE
  8
21
 10
59.4500
 20
3.1880
 30
0.0000
 11
59.4500
 21
10.1880
 31
0.0000
  0
LINE
  8
21
 10
59.4500
 20
10.1880
 30
0.0000
 11
59.4500
 21
53.1880
 31
0.0000
  0
LINE
  8
21
 10
59.4500
 20
53.1880
 30
0.0000
 11
29.4500
 21
53.1880
 31
0.0000
  0
LINE
  8
21
 10
59.4500
 20
10.1880
 30
0.0000
 11
29.4500
 21
10.1880
 31
0.0000
  0
LINE
  8
21
 10
42.7404
 20
52.0202
 30
0.0000
 11
41.9608
 21
52.0202
 31
0.0000
  0
LINE
  8
21
 10
41.9608
 20
52.0202
 30
0.0000
 11
41.9608
 21
50.8508
 31
0.0000
  0
LINE
  8
21
 10
41.9608
 20
50.8508
 30
0.0000
 11
42.7404
 21
50.8508
 31
0.0000
  0
LINE
  8
21
 10
41.9608
 20
51.4355
 30
0.0000
 11
42.3506
 21
51.4355
 31
0.0000
  0
LINE
  8
21
 10
43.1302
 20
51.0457
 30
0.0000
 11
43.3251
 21
50.8508
 31
0.0000
  0
LINE
  8
21
 10
43.3251
 20
50.8508
 30
0.0000
 11
43.7149
 21
50.8508
 31
0.0000
  0
LINE
  8
21
 10
43.7149
 20
50.8508
 30
0.0000
 11
43.9098
 21
51.0457
 31
0.0000
  0
LINE
  8
21
 10
43.9098
 20
51.0457
 30
0.0000
 11
43.9098
 21
51.2406
 31
0.0000
  0
LINE
  8
21
 10
43.9098
 20
51.2406
 30
0.0000
 11
43.7149
 21
51.4355
 31
0.0000
  0
LINE
  8
21
 10
43.7149
 20
51.4355
 30
0.0000
 11
43.3251
 21
51.4355
 31
0.0000
  0
LINE
  8
21
 10
43.3251
 20
51.4355
 30
0.0000
 11
43.1302
 21
51.6304
 31
0.0000
  0
LINE
  8
21
 10
43.1302
 20
51.6304
 30
0.0000
 11
43.1302
 21
51.8253
 31
0.0000
  0
LINE
  8
21
 10
43.1302
 20
51.8253
 30
0.0000
 11
43.3251
 21
52.0202
 31
0.0000
  0
LINE
  8
21
 10
43.3251
 20
52.0202
 30
0.0000
 11
43.7149
 21
52.0202
 31
0.0000
  0
LINE
  8
21
 10
43.7149
 20
52.0202
 30
0.0000
 11
43.9098
 21
51.8253
 31
0.0000
  0
LINE
  8
21
 10
43.5200
 20
52.2151
 30
0.0000
 11
43.5200
 21
50.6559
 31
0.0000
  0
LINE
  8
21
 10
44.2996
 20
51.6304
 30
0.0000
 11
44.6894
 21
52.0202
 31
0.0000
  0
LINE
  8
21
 10
44.6894
 20
52.0202
 30
0.0000
 11
44.6894
 21
50.8508
 31
0.0000
  0
LINE
  8
21
 10
44.2996
 20
50.8508
 30
0.0000
 11
45.0792
 21
50.8508
 31
0.0000
  0
CIRCLE
  8
21
 10
38.7884
 20
48.9265
 30
0.0000
 40
0.2694
  0
CIRCLE
  8
20
 10
38.6500
 20
47.2200
 30
0.0000
 40
0.3000
  0
CIRCLE
  8
20
 10
50.2500
 20
47.2200
 30
0.0000
 40
0.3000
  0
CIRCLE
  8
20
 10
32.6500
 20
49.9600
 30
0.0000
 40
1.5240
  0
CIRCLE
  8
20
 10
56.2500
 20
49.9600
 30
0.0000
 40
1.5240
  0
CIRCLE
  8
20
 10
32.6500
 20
45.7200
 30
0.0000
 40
1.5240
  0
CIRCLE
  8
20
 10
56.2500
 20
45.7200
 30
0.0000
 40
1.5240
  0
INSERT
  8
1
  2
RECT
 10
39.7000
 20
48.0200
 30
0.0000
 41
2.6000
 42
0.3000
 43
1.0000
 50
90.0000
  0
INSERT
  8
1
  2
RECT
 10
39.7000
 20
43.4200
 30
0.0000
 41
2.6000
 42
0.3000
 43
1.0000
 50
90.0000
  0
INSERT
  8
1
  2
RECT
 10
40.2000
 20
48.0200
 30
0.0000
 41
2.6000
 42
0.3000
 43
1.0000
 50
90.0000
  0
INSERT
  8
1
  2
RECT
 10
40.2000
 20
43.4200
 30
0.0000
 41
2.6000
 42
0.3000
 43
1.0000
 50
90.0000
  0
INSERT
  8
1
  2
RECT
 10
40.7000
 20
48.0200
 30
0.0000
 41
2.6000
 42
0.3000
 43
1.0000
 50
90.0000
  0
INSERT
  8
1
  2
RECT
 10
40.7000
 20
43.4200
 30
0.0000
 41
2.6000
 42
0.3000
 43
1.0000
 50
90.0000
  0
INSERT
  8
1
  2
RECT
 10
41.2000
 20
48.0200
 30
0.0000
 41
2.6000
 42
0.3000
 43
1.0000
 50
90.0000
  0
INSERT
  8
1
  2
RECT
 10
41.2000
 20
43.4200
 30
0.0000
 41
2.6000
 42
0.3000
 43
1.0000
 50
90.0000
  0
INSERT
  8
1
  2
RECT
 10
41.7000
 20
48.0200
 30
0.0000
 41
2.6000
 42
0.3000
 43
1.0000
 50
90.0000
  0
INSERT
  8
1
  2
RECT
 10
41.7000
 20
43.4200
 30
0.0000
 41
2.6000
 42
0.3000
 43
1.0000
 50
90.0000
  0
INSERT
  8
1
  2
RECT
 10
42.2000
 20
48.0200
 30
0.0000
 41
2.6000
 42
0.3000
 43
1.0000
 50
90.0000
  0
INSERT
  8
1
  2
RECT
 10
42.2000
 20
43.4200
 30
0.0000
 41
2.6000
 42
0.3000
 43
1.0000
 50
90.0000
  0
INSERT
  8
1
  2
RECT
 10
42.7000
 20
48.0200
 30
0.0000
 41
2.6000
 42
0.3000
 43
1.0000
 50
90.0000
  0
INSERT
  8
1
  2
RECT
 10
42.7000
 20
43.4200
 30
0.0000
 41
2.6000
 42
0.3000
 43
1.0000
 50
90.0000
  0
INSERT
  8
1
  2
RECT
 10
43.2000
 20
48.0200
 30
0.0000
 41
2.6000
 42
0.3000
 43
1.0000
 50
90.0000
  0
INSERT
  8
1
  2
RECT
 10
43.2000
 20
43.4200
 30
0.0000
 41
2.6000
 42
0.3000
 43
1.0000
 50
90.0000
  0
INSERT
  8
1
  2
RECT
 10
43.7000
 20
48.0200
 30
0.0000
 41
2.6000
 42
0.3000
 43
1.0000
 50
90.0000
  0
INSERT
  8
1
  2
RECT
 10
43.7000
 20
43.4200
 30
0.0000
 41
2.6000
 42
0.3000
 43
1.0000
 50
90.0000
  0
INSERT
  8
1
  2
RECT
 10
44.2000
 20
48.0200
 30
0.0000
 41
2.6000
 42
0.3000
 43
1.0000
 50
90.0000
  0
INSERT
  8
1
  2
RECT
 10
44.2000
 20
43.4200
 30
0.0000
 41
2.6000
 42
0.3000
 43
1.0000
 50
90.0000
  0
INSERT
  8
1
  2
RECT
 10
44.7000
 20
48.0200
 30
0.0000
 41
2.6000
 42
0.3000
 43
1.0000
 50
90.0000
  0
INSERT
  8
1
  2
RECT
 10
44.7000
 20
43.4200
 30
0.0000
 41
2.6000
 42
0.3000
 43
1.0000
 50
90.0000
  0
INSERT
  8
1
  2
RECT
 10
45.2000
 20
48.0200
 30
0.0000
 41
2.6000
 42
0.3000
 43
1.0000
 50
90.0000
  0
INSERT
  8
1
  2
RECT
 10
45.2000
 20
43.4200
 30
0.0000
 41
2.6000
 42
0.3000
 43
1.0000
 50
90.0000
  0
INSERT
  8
1
  2
RECT
 10
45.7000
 20
48.0200
 30
0.0000
 41
2.6000
 42
0.3000
 43
1.0000
 50
90.0000
  0
INSERT
  8
1
  2
RECT
 10
45.7000
 20
43.4200
 30
0.0000
 41
2.6000
 42
0.3000
 43
1.0000
 50
90.0000
  0
INSERT
  8
1
  2
RECT
 10
46.2000
 20
48.0200
 30
0.0000
 41
2.6000
 42
0.3000
 43
1.0000
 50
90.0000
  0
INSERT
  8
1
  2
RECT
 10
46.2000
 20
43.4200
 30
0.0000
 41
2.6000
 42
0.3000
 43
1.0000
 50
90.0000
  0
INSERT
  8
1
  2
RECT
 10
46.7000
 20
48.0200
 30
0.0000
 41
2.6000
 42
0.3000
 43
1.0000
 50
90.0000
  0
INSERT
  8
1
  2
RECT
 10
46.7000
 20
43.4200
 30
0.0000
 41
2.6000
 42
0.3000
 43
1.0000
 50
90.0000
  0
INSERT
  8
1
  2
RECT
 10
47.2000
 20
48.0200
 30
0.0000
 41
2.6000
 42
0.3000
 43
1.0000
 50
90.0000
  0
INSERT
  8
1
  2
RECT
 10
47.2000
 20
43.4200
 30
0.0000
 41
2.6000
 42
0.3000
 43
1.0000
 50
90.0000
  0
INSERT
  8
1
  2
RECT
 10
47.7000
 20
48.0200
 30
0.0000
 41
2.6000
 42
0.3000
 43
1.0000
 50
90.0000
  0
INSERT
  8
1
  2
RECT
 10
47.7000
 20
43.4200
 30
0.0000
 41
2.6000
 42
0.3000
 43
1.0000
 50
90.0000
  0
INSERT
  8
1
  2
RECT
 10
48.2000
 20
48.0200
 30
0.0000
 41
2.6000
 42
0.3000
 43
1.0000
 50
90.0000
  0
INSERT
  8
1
  2
RECT
 10
48.2000
 20
43.4200
 30
0.0000
 41
2.6000
 42
0.3000
 43
1.0000
 50
90.0000
  0
INSERT
  8
1
  2
RECT
 10
48.7000
 20
48.0200
 30
0.0000
 41
2.6000
 42
0.3000
 43
1.0000
 50
90.0000
  0
INSERT
  8
1
  2
RECT
 10
48.7000
 20
43.4200
 30
0.0000
 41
2.6000
 42
0.3000
 43
1.0000
 50
90.0000
  0
INSERT
  8
1
  2
RECT
 10
49.2000
 20
48.0200
 30
0.0000
 41
2.6000
 42
0.3000
 43
1.0000
 50
90.0000
  0
INSERT
  8
1
  2
RECT
 10
49.2000
 20
43.4200
 30
0.0000
 41
2.6000
 42
0.3000
 43
1.0000
 50
90.0000
  0
INSERT
  8
1
  2
RECT
 10
37.9500
 20
45.7200
 30
0.0000
 41
1.8000
 42
0.8000
 43
1.0000
 50
90.0000
  0
INSERT
  8
1
  2
RECT
 10
50.9500
 20
45.7200
 30
0.0000
 41
1.8000
 42
0.8000
 43
1.0000
 50
90.0000
  0
ENDSEC
  0
EOF
